<svg preserveAspectRatio="none" width="100%" height="100%" overflow="visible" style="display: block;" viewBox="0 0 88.2638 46.4112" fill="none" xmlns="http://www.w3.org/2000/svg">
<g id="freepik--book-1--inject-22">
<path id="Vector" d="M46.5422 38.608C46.5422 38.608 48.2178 41.0244 49.9687 40.9867C61.6401 40.732 81.7683 46.3219 84.104 46.3219C86.4397 46.3219 88.1763 46.1156 88.1763 45.6187C88.1763 45.1218 79.9618 12.6104 79.9618 12.6104L78.3328 12.1152L83.9264 43.8427C83.9264 43.8427 76.9856 42.8524 62.9641 40.5149C48.9425 38.1775 49.5094 36.2095 47.8159 36.5575C46.1224 36.9056 46.5422 38.608 46.5422 38.608Z" fill="var(--fill-0, #E8C5DB)"/>
<path id="Vector_2" d="M84.1027 46.4079C83.3959 46.4079 81.0997 45.9074 77.9226 45.2149C70.5243 43.6004 58.1371 40.8951 49.9692 41.0889H49.9208C48.1591 41.0889 46.532 38.7711 46.4638 38.6725L46.4495 38.642C46.4495 38.6097 46.2557 37.8383 46.654 37.2068C46.784 37.015 46.9523 36.8522 47.1484 36.7287C47.3445 36.6052 47.564 36.5237 47.7931 36.4893C48.4031 36.3637 48.7368 36.5215 49.4651 36.8696C50.8554 37.5315 53.7473 38.9075 62.9736 40.4467C75.8398 42.5994 82.8218 43.6129 83.8121 43.7565L78.2132 12.0039L80.0305 12.5582L80.043 12.6067C80.3785 13.9342 88.2611 45.1306 88.2611 45.6311C88.2611 46.1316 86.8654 46.4079 84.1027 46.4079ZM50.7711 40.8933C58.9551 40.8933 70.7934 43.4748 77.9602 45.0391C81.1266 45.7298 83.4138 46.2285 84.1027 46.2285C87.0394 46.2285 88.0853 45.9128 88.0853 45.615C88.0602 45.1324 82.7178 23.8977 79.8798 12.6838L78.4446 12.2461L84.0364 43.952L83.9126 43.9341C83.8444 43.9233 76.8103 42.9151 62.9484 40.6045C53.6952 39.0635 50.789 37.6786 49.3915 37.0167C48.674 36.6776 48.3833 36.5359 47.8344 36.6579C47.6281 36.6884 47.4304 36.7614 47.2538 36.8722C47.0771 36.9831 46.9254 37.1294 46.8083 37.3019C46.5969 37.6949 46.5333 38.1505 46.6289 38.5864C46.7688 38.7819 48.36 40.9472 49.971 40.9185C50.2293 40.8951 50.4984 40.8933 50.7711 40.8933Z" fill="var(--fill-0, #263238)"/>
<path id="Vector_3" d="M85.7706 45.4732C83.3632 45.3314 78.6791 44.1134 67.1135 41.74C55.5479 39.3666 46.8885 37.9297 46.8885 37.9297L46.6445 38.7639C47.0446 39.2895 48.4762 41.0242 49.9615 40.9919C61.642 40.7318 81.7701 46.3217 84.1058 46.3217C86.4416 46.3217 88.1781 46.1154 88.1781 45.6185C88.1781 45.5754 86.9708 45.5449 85.7706 45.4732Z" fill="var(--fill-0, #263238)"/>
<path id="Vector_4" d="M84.1018 46.4112C83.395 46.4112 81.0987 45.9107 77.9216 45.2183C70.5234 43.6037 58.1397 40.9003 49.9683 41.0922C48.4362 41.1317 46.9885 39.3683 46.5777 38.8283L46.5508 38.7924L46.8288 37.8398L46.9078 37.8524C46.9939 37.8667 55.7125 39.318 67.1364 41.6627C71.2768 42.513 74.5185 43.2109 77.1215 43.7724C81.7069 44.7608 84.2328 45.3044 85.772 45.3869C86.2294 45.4138 86.6905 45.4353 87.0833 45.4533C88.2638 45.5089 88.2638 45.5089 88.2638 45.6183C88.2638 46.1457 86.8645 46.4112 84.1018 46.4112ZM50.7702 40.8967C58.9542 40.8967 70.7925 43.4782 77.9593 45.0425C81.1256 45.7331 83.4129 46.2318 84.1018 46.2318C86.8125 46.2318 87.9122 45.9628 88.0646 45.6937C87.8996 45.6757 87.496 45.6578 87.0744 45.6381C86.6815 45.6201 86.2205 45.5986 85.7612 45.5717C84.2094 45.4802 81.6782 44.9348 77.0839 43.9464C74.4808 43.3849 71.2392 42.6906 67.1005 41.8367C56.2561 39.6105 47.8532 38.1915 46.9562 38.0408L46.7481 38.7583C47.1751 39.3127 48.5295 40.9111 49.9252 40.9111H49.9647C50.2284 40.8985 50.4975 40.8967 50.7702 40.8967Z" fill="var(--fill-0, #263238)"/>
<path id="Vector_5" d="M8.72617 11.3398C8.72617 11.3398 7.87584 11.6233 7.73591 12.2601C7.59599 12.897 -0.550354 45.5465 0.228221 45.6272C1.0068 45.708 43.9253 45.986 44.4205 45.4855C44.9156 44.985 46.5463 38.6076 46.5463 38.6076L42.9297 43.4996L5.67825 42.5793L10.1398 12.1256L8.72617 11.3398Z" fill="var(--fill-0, #E8C5DB)"/>
<path id="Vector_6" d="M27.1236 45.8732C14.8189 45.8732 0.449326 45.7386 0.214318 45.7171C0.196712 45.7155 0.179679 45.71 0.164468 45.701C0.149257 45.692 0.136253 45.6797 0.126413 45.6651C-0.00275131 45.4857 -0.397421 44.9296 7.26814 13.7816C7.49059 12.8846 7.62693 12.3285 7.64308 12.2513C7.79377 11.5732 8.65666 11.2772 8.69254 11.2665L8.73021 11.2539L10.2353 12.0809L5.78095 42.4952L42.8871 43.4137L46.7423 38.1951L46.6293 38.64C46.4624 39.2948 44.9806 45.0515 44.4765 45.5503C44.2325 45.7996 36.2441 45.8732 27.1236 45.8732ZM0.268137 45.5413C1.69074 45.5808 43.4271 45.8875 44.3653 45.4157C44.7241 45.0569 45.8202 41.0421 46.3386 39.0419L42.9732 43.5949H42.9265L5.57285 42.6728L5.58721 42.5723L10.0398 12.1796L8.71406 11.4512C8.5562 11.5122 7.93011 11.7849 7.81709 12.2926C7.80094 12.3715 7.6664 12.9187 7.44215 13.8264C0.957013 40.1846 0.144354 45.0695 0.268137 45.5413Z" fill="var(--fill-0, #263238)"/>
<path id="Vector_7" d="M44.4142 45.484C44.9112 44.9871 46.5401 38.6133 46.5401 38.6133L46.2997 38.9362L44.0608 44.7073L0.647187 45.267L0.214844 45.6258C1.00059 45.6957 43.9191 45.9792 44.4142 45.484Z" fill="var(--fill-0, #263238)"/>
<path id="Vector_8" d="M27.1246 45.8694C14.8198 45.8694 0.450282 45.7349 0.215274 45.7134L0 45.6936L0.624295 45.1734H0.656585L44.0039 44.6155L46.232 38.8839L46.7432 38.1914L46.6302 38.6363C46.4634 39.2911 44.9816 45.0478 44.4775 45.5465C44.2335 45.7959 36.2468 45.8694 27.1246 45.8694ZM0.466426 45.5411C3.87494 45.5932 43.3222 45.8712 44.3609 45.4138C44.7197 45.0245 45.7673 41.2321 46.3001 39.196L44.1259 44.7931H44.0667L0.692466 45.3528L0.466426 45.5411Z" fill="var(--fill-0, #263238)"/>
<path id="Vector_9" d="M9.71266 10.9215L8.72061 11.3467L1.85156 44.5613L44.0615 44.703L46.8941 37.4089L7.23342 39.3212L10.9164 10.8516L9.71266 10.9215Z" fill="var(--fill-0, white)"/>
<path id="Vector_10" d="M44.1243 44.794H44.0633L1.74219 44.6523L8.64532 11.2852L9.70913 10.835L11.0205 10.7578L11.008 10.8654L7.33753 39.2275L47.0305 37.3152L44.1243 44.794ZM1.96643 44.4747L44.0059 44.6147L46.7668 37.5071L7.13302 39.4176L7.14737 39.3118L10.8142 10.948L9.73784 11.0126L8.80319 11.4126L1.96643 44.4747Z" fill="var(--fill-0, #263238)"/>
<path id="Vector_11" d="M4.68421 40.3884L2.7593 43.5906L1.85156 44.5665L44.0615 44.7082L46.8941 37.4141L7.23342 39.3264L4.68421 40.3884Z" fill="var(--fill-0, #E0E0E0)"/>
<path id="Vector_12" d="M44.1335 44.7956H44.0725L1.65625 44.6539L2.69854 43.5327L4.63421 40.3144L7.24083 39.238L47.0397 37.3203L44.1335 44.7956ZM2.06707 44.4763L44.0115 44.6162L46.7724 37.5087L7.26415 39.4138L4.75261 40.4579L2.83309 43.6493L2.06707 44.4763Z" fill="var(--fill-0, #263238)"/>
<path id="Vector_13" d="M46.8919 37.4101V30.8945L12.8266 34.6474L10.2773 39.1107L46.8919 37.4101Z" fill="var(--fill-0, #B8B8B8)"/>
<path id="Vector_14" d="M10.1211 39.2107L12.7743 34.568H12.821L46.985 30.8008V37.4993H46.8989L10.1211 39.2107ZM12.8856 34.7349L10.4386 39.0152L46.8056 37.3271V30.9981L12.8856 34.7349Z" fill="var(--fill-0, #263238)"/>
<path id="Vector_15" d="M11.2735 7.31023L10.2831 7.45195L4.6875 40.3825C4.6875 40.3825 9.29103 40.0237 15.5236 38.542C21.7561 37.0602 34.4346 34.7873 38.6847 35.426C42.9348 36.0646 46.5462 38.6065 46.5462 38.6065C46.5462 38.6065 51.8494 39.6596 57.7985 40.8633C63.7476 42.067 72.6012 43.9129 78.4803 44.9013C84.3594 45.8898 85.7749 45.4664 85.7749 45.4664L78.4803 11.5438L77.7716 11.3393L81.6665 42.0741C81.6665 42.0741 57.1024 35.2843 53.8408 35.2843C50.5792 35.2843 48.8175 31.8131 42.2961 30.5394C35.7748 29.2657 28.482 31.8131 22.323 32.8715C18.4614 33.5533 14.6514 34.5003 10.92 35.7058L12.549 7.30664L11.2735 7.31023Z" fill="var(--fill-0, #E0E0E0)"/>
<path id="Vector_16" d="M84.5637 45.6588C83.5052 45.6588 81.6304 45.5333 78.4639 44.9987C73.5123 44.1717 66.4653 42.7366 60.8033 41.5759L57.7749 40.9606C51.894 39.7713 46.5765 38.7147 46.5227 38.7039L46.4886 38.6896C46.4527 38.6644 42.8431 36.1458 38.6647 35.5179C34.3482 34.8703 21.2625 37.267 15.5394 38.6321C11.9705 39.501 8.34468 40.1173 4.68904 40.4763L4.57422 40.4852L4.59395 40.3722L10.2004 7.3753L11.2768 7.22461H12.6474L11.0202 35.5861C14.7173 34.4026 18.4897 33.4689 22.312 32.7912C23.8656 32.5239 25.4677 32.1669 27.1649 31.7884C32.2115 30.6619 37.4286 29.4994 42.3174 30.4556C45.8463 31.1462 47.9974 32.4827 49.7268 33.5554C51.2033 34.4739 52.3695 35.1986 53.8442 35.1986C56.9891 35.1986 79.4309 41.366 81.564 41.9544L77.6584 11.216L78.5554 11.4833L78.5661 11.5353L85.8733 45.5386L85.7944 45.562C85.7675 45.5709 85.4517 45.6588 84.5637 45.6588ZM46.5765 38.5317C46.9245 38.6016 52.1021 39.6296 57.8108 40.7848L60.8392 41.4001C66.4994 42.5536 73.5446 43.9869 78.489 44.8211C83.5249 45.6714 85.2867 45.4741 85.6652 45.4077L78.3975 11.625L77.8719 11.4672L81.7667 42.1984L81.6376 42.1625C81.3918 42.0944 57.0447 35.3762 53.8298 35.3762C52.3031 35.3762 51.1172 34.6389 49.6174 33.7061C47.9023 32.6405 45.7656 31.3131 42.2618 30.6296C37.4179 29.6806 32.2151 30.8395 27.1918 31.9606C25.4928 32.3392 23.8889 32.6979 22.3299 32.967C18.4731 33.6496 14.6675 34.5948 10.9395 35.796L10.8139 35.839L12.4483 7.39682H11.275L10.3546 7.52778L4.79309 40.2807C8.40017 39.9154 11.9781 39.3041 15.5018 38.451C21.4221 37.0392 34.298 34.6838 38.6952 35.3332C42.7713 35.9521 46.3092 38.3469 46.5765 38.5317Z" fill="var(--fill-0, #263238)"/>
<path id="Vector_17" d="M7.23671 39.3214L4.6875 40.3834L10.2828 7.45227L12.5486 7.31055L7.23671 39.3214Z" fill="var(--fill-0, white)"/>
<path id="Vector_18" d="M4.57031 40.5299L10.2051 7.36733L12.6557 7.21484L7.31685 39.3872L4.57031 40.5299ZM10.3576 7.53775L4.79635 40.2393L7.15002 39.258L12.435 7.40859L10.3576 7.53775Z" fill="var(--fill-0, #263238)"/>
<path id="Vector_19" d="M46.0547 2.91818C46.0547 2.91818 46.6933 1.78442 52.5004 3.27697C58.3074 4.76951 64.3889 8.50807 69.3474 9.21487C74.3059 9.92168 77.5583 10.6213 77.5583 10.6213L84.2874 44.758C84.2874 44.758 73.3138 43.2708 62.9735 40.5154C52.6331 37.7599 48.2505 35.9157 46.905 37.4083L46.0547 2.91818Z" fill="var(--fill-0, white)"/>
<path id="Vector_20" d="M84.3943 44.8757L84.2705 44.8577C84.1611 44.8434 73.1695 43.3383 62.9422 40.6061C60.4809 39.9495 58.3819 39.3504 56.5324 38.8247C50.8204 37.1976 47.9501 36.3814 46.9634 37.4739L46.8127 37.6389L45.957 2.90129L45.9696 2.87976C45.9965 2.82953 46.7069 1.70294 52.5139 3.19011C55.1654 3.87001 57.8778 5.01992 60.5006 6.13036C63.6705 7.47402 66.6628 8.74412 69.352 9.12802C74.2548 9.82765 77.5414 10.538 77.5737 10.5452L77.6311 10.5578L84.3943 44.8757ZM48.4883 36.7904C50.049 36.7904 52.5911 37.508 56.588 38.6525C58.4376 39.1781 60.5347 39.7755 62.996 40.4339C72.617 43.0046 82.9322 44.4882 84.17 44.6622L77.4786 10.7085C77.0193 10.6116 73.8691 9.95502 69.3268 9.30562C66.6144 8.91813 63.6113 7.64444 60.4306 6.2972C57.8151 5.18675 55.108 4.04043 52.4691 3.36412C47.2666 2.02944 46.2584 2.82594 46.1382 2.95331L46.9814 37.2174C47.3276 36.9214 47.8156 36.7904 48.4883 36.7904Z" fill="var(--fill-0, #263238)"/>
<path id="Vector_21" d="M75.7292 14.9301C64.2981 12.4186 63.6111 12.3433 63.5859 12.3415V12.1621C63.6003 12.1621 64.0865 12.1908 75.7615 14.7561L75.7292 14.9301Z" fill="var(--fill-0, #263238)"/>
<path id="Vector_22" d="M75.983 16.405C74.5264 16.0839 73.1845 15.7861 71.9807 15.517C70.4577 15.178 69.1427 14.8855 68.095 14.6613C64.1376 13.8128 63.7232 13.7769 63.707 13.7751L63.716 13.5957C63.7304 13.5957 64.1017 13.6226 68.1327 14.4927C69.1804 14.7169 70.4954 15.0111 72.0184 15.3502L76.0225 16.2364L75.983 16.405Z" fill="var(--fill-0, #263238)"/>
<path id="Vector_23" d="M76.2348 17.8742C74.7171 17.5405 73.2192 17.1996 71.8952 16.8983C70.4834 16.5771 69.2653 16.3009 68.2643 16.0856C64.3786 15.2532 63.8457 15.2066 63.8242 15.2048L63.8368 15.0254C63.8565 15.0254 64.375 15.0684 68.3019 15.9098C69.3029 16.1251 70.5228 16.4031 71.9365 16.7242C73.2586 17.0238 74.7566 17.3647 76.2742 17.6984L76.2348 17.8742Z" fill="var(--fill-0, #263238)"/>
<path id="Vector_24" d="M76.4775 19.3492C75.0424 19.0352 73.5803 18.6944 72.1613 18.3643C70.7728 18.0432 69.4596 17.7382 68.4263 17.5158C64.6285 16.7013 63.9414 16.6421 63.9414 16.6403L63.954 16.4609C63.9809 16.4609 64.6446 16.5183 68.4729 17.34C69.508 17.5624 70.8212 17.8656 72.2115 18.1885C73.6305 18.5168 75.098 18.8576 76.517 19.1716L76.4775 19.3492Z" fill="var(--fill-0, #263238)"/>
<path id="Vector_25" d="M76.7361 20.8251C75.4301 20.5381 73.9591 20.1901 72.5383 19.8546C71.0762 19.5102 69.6949 19.1819 68.6006 18.9577C64.8978 18.1629 64.0637 18.0876 64.0547 18.0876L64.069 17.9082C64.1013 17.9082 64.9122 17.9818 68.6382 18.7819C69.7343 19.0169 71.1157 19.3434 72.5849 19.6896C74.0057 20.025 75.475 20.3713 76.7792 20.6583L76.7361 20.8251Z" fill="var(--fill-0, #263238)"/>
<path id="Vector_26" d="M76.984 22.2994C75.8107 22.041 74.3594 21.693 72.9548 21.3557C71.4694 20.997 69.9319 20.6274 68.7677 20.3781C65.16 19.6031 64.1787 19.5134 64.168 19.5134L64.1841 19.334C64.2236 19.334 65.1798 19.4237 68.8053 20.2022C69.9714 20.4534 71.5088 20.8229 72.9978 21.1799C74.4007 21.5172 75.8502 21.867 77.0216 22.1235L76.984 22.2994Z" fill="var(--fill-0, #263238)"/>
<path id="Vector_27" d="M77.2339 23.7744C76.1952 23.5465 74.8372 23.2147 73.3984 22.863C71.8162 22.4756 70.1693 22.0755 68.9351 21.8082C65.4279 21.0548 64.2959 20.9507 64.2852 20.9489L64.2995 20.7695C64.3103 20.7695 65.4494 20.8736 68.9728 21.6306C70.2178 21.8997 71.8574 22.2998 73.4415 22.6872C74.8767 23.0371 76.2347 23.3689 77.2716 23.5968L77.2339 23.7744Z" fill="var(--fill-0, #263238)"/>
<path id="Vector_28" d="M77.4935 25.2495C76.5965 25.0504 75.2707 24.7239 73.8768 24.3777C72.1887 23.9579 70.4432 23.5256 69.1139 23.2385C65.7054 22.5066 64.4227 22.3864 64.4102 22.3864L64.4263 22.207C64.4389 22.207 65.7287 22.329 69.1516 23.0627C70.4827 23.3498 72.23 23.7803 73.9199 24.2037C75.3138 24.5499 76.6288 24.8764 77.5311 25.0737L77.4935 25.2495Z" fill="var(--fill-0, #263238)"/>
<path id="Vector_29" d="M77.7374 26.7226C76.9624 26.5522 75.7012 26.2346 74.3683 25.8992C72.6497 25.4651 70.7015 24.9735 69.2753 24.6668C65.9673 23.9492 64.5339 23.8218 64.5195 23.82L64.5357 23.6406C64.55 23.6406 65.9924 23.7788 69.313 24.4927C70.7481 24.7995 72.691 25.291 74.4114 25.7252C75.7443 26.0606 77.0037 26.3782 77.7768 26.5486L77.7374 26.7226Z" fill="var(--fill-0, #263238)"/>
<path id="Vector_30" d="M77.9951 28.2074C77.3457 28.0657 76.2012 27.775 74.8916 27.4378C73.0582 26.9678 70.9808 26.4368 69.4523 26.1067C66.2447 25.4178 64.6589 25.2671 64.6445 25.2653L64.6607 25.0859C64.6768 25.0859 66.2752 25.2384 69.49 25.9309C71.022 26.261 73.1012 26.792 74.9364 27.262C76.2514 27.5974 77.387 27.8898 78.0346 28.0316L77.9951 28.2074Z" fill="var(--fill-0, #263238)"/>
<path id="Vector_31" d="M78.239 29.6728C77.7116 29.5562 76.655 29.2817 75.4315 28.9642C73.5712 28.4816 71.257 27.8878 69.6137 27.529C66.5084 26.8599 64.7701 26.6931 64.7539 26.6931L64.7701 26.5137C66.412 26.7069 68.0425 26.9865 69.655 27.3514C71.3018 27.7102 73.6178 28.3076 75.4799 28.7866C76.7016 29.1041 77.7565 29.3786 78.2821 29.4934L78.239 29.6728Z" fill="var(--fill-0, #263238)"/>
<path id="Vector_32" d="M78.5004 31.1496C78.086 31.0581 77.1693 30.8159 76.0086 30.511C74.1321 30.0176 71.5614 29.3413 69.7925 28.9592C68.1705 28.5957 66.5303 28.3185 64.8789 28.1286L64.8968 27.9492C66.5548 28.1406 68.2015 28.419 69.8302 28.7834C71.6026 29.1655 74.1752 29.8436 76.0552 30.3387C77.2123 30.6419 78.1272 30.8769 78.5381 30.9738L78.5004 31.1496Z" fill="var(--fill-0, #263238)"/>
<path id="Vector_33" d="M78.7464 32.6246C78.4397 32.5564 77.6324 32.3412 76.6116 32.0685C74.6096 31.5303 71.8684 30.802 69.9561 30.3894C68.3171 30.0272 66.6602 29.7518 64.9922 29.5642L65.0083 29.3848C66.6835 29.5724 68.3477 29.8484 69.9937 30.2118C71.9097 30.6262 74.658 31.3581 76.6583 31.8945C77.6772 32.1654 78.4809 32.3806 78.7841 32.447L78.7464 32.6246Z" fill="var(--fill-0, #263238)"/>
<path id="Vector_34" d="M79.0035 34.0977C78.7954 34.051 78.155 33.8788 77.2688 33.6384C75.378 33.1254 72.2098 32.2679 70.1324 31.8176C68.4734 31.4578 66.7968 31.1842 65.1094 30.9978L65.1273 30.8184C66.8198 31.0041 68.5012 31.279 70.1647 31.6418C72.2475 32.0903 75.4174 32.9496 77.31 33.4626C78.1945 33.703 78.8331 33.8752 79.0358 33.9201L79.0035 34.0977Z" fill="var(--fill-0, #263238)"/>
<path id="Vector_35" d="M79.246 35.5753C79.1258 35.5484 78.6629 35.421 77.9633 35.229C76.0797 34.7088 72.5814 33.7437 70.2924 33.2557C68.6177 32.897 66.9255 32.6258 65.2227 32.4431L65.2406 32.2637C66.9502 32.4476 68.6489 32.7207 70.33 33.0817C72.6155 33.575 76.1245 34.542 78.0099 35.055C78.6827 35.2344 79.1688 35.3743 79.2837 35.3995L79.246 35.5753Z" fill="var(--fill-0, #263238)"/>
<path id="Vector_36" d="M79.4987 37.0478C79.452 37.0371 79.2063 36.9689 78.7632 36.8451C77.0445 36.3626 73.0225 35.2306 70.4643 34.6799C68.7751 34.3226 67.0686 34.0526 65.3516 33.8708L65.3677 33.6914C67.0948 33.875 68.8114 34.1462 70.511 34.5041C73.0745 35.0584 77.102 36.1886 78.8206 36.6711C79.217 36.7824 79.5041 36.8631 79.5471 36.872L79.4987 37.0478Z" fill="var(--fill-0, #263238)"/>
<path id="Vector_37" d="M79.7423 38.523C79.6849 38.5069 73.8976 36.8188 70.6308 36.112C68.13 35.5738 65.4839 35.3119 65.457 35.3083L65.475 35.1289C67.2185 35.3102 68.9519 35.579 70.6685 35.9344C73.9406 36.652 79.7351 38.3329 79.7925 38.349L79.7423 38.523Z" fill="var(--fill-0, #263238)"/>
<path id="Vector_38" d="M61.7606 11.8365C59.5343 10.8122 57.9682 9.91884 56.7106 9.20127C55.4028 8.4532 54.3677 7.86479 53.2267 7.49524C51.61 7.00772 49.9403 6.71739 48.2539 6.63056V6.45117C49.9574 6.53808 51.6441 6.83144 53.277 7.32481C54.4377 7.69975 55.4782 8.29354 56.7967 9.0452C58.0525 9.76277 59.6132 10.6597 61.8323 11.6733L61.7606 11.8365Z" fill="var(--fill-0, #263238)"/>
<path id="Vector_39" d="M61.884 13.2931C59.8874 12.3746 58.4163 11.5458 57.2341 10.8802C55.8546 10.1034 54.7638 9.48992 53.4848 9.07552C51.0055 8.27005 48.4904 8.1373 48.2966 8.16779L48.25 7.9884C48.3684 7.95252 50.9409 8.05657 53.5404 8.89972C54.8374 9.3195 55.9335 9.93661 57.322 10.7188C58.5616 11.4166 59.9681 12.2095 61.9594 13.1262L61.884 13.2931Z" fill="var(--fill-0, #263238)"/>
<path id="Vector_40" d="M61.9998 14.7493C60.2202 13.9295 58.9052 13.1994 57.7445 12.5535C56.3004 11.7499 55.1595 11.1184 53.7369 10.652C50.9526 9.74425 48.468 9.65814 48.3155 9.70299L48.2617 9.52359C48.477 9.45542 51.0495 9.57921 53.7925 10.4744C55.2276 10.9444 56.3794 11.5812 57.8325 12.3903C58.9896 13.0325 60.3009 13.7626 62.0752 14.5789L61.9998 14.7493Z" fill="var(--fill-0, #263238)"/>
<path id="Vector_41" d="M62.1135 16.2076C60.5384 15.4901 59.3221 14.8155 58.2493 14.2343C56.8141 13.4414 55.5584 12.7579 53.9851 12.2412C51.0502 11.2797 48.5871 11.1649 48.3234 11.2492L48.2695 11.0788C48.6283 10.964 51.1668 11.129 54.0407 12.0708C55.6319 12.5911 56.8841 13.2799 58.3354 14.0764C59.4118 14.6648 60.6191 15.3322 62.187 16.0498L62.1135 16.2076Z" fill="var(--fill-0, #263238)"/>
<path id="Vector_42" d="M62.2331 17.665C60.8536 17.0299 59.7395 16.4254 58.7565 15.8926C57.2639 15.0817 55.9758 14.3839 54.2393 13.8116C51.0963 12.7783 48.678 12.6725 48.339 12.7801L48.2852 12.6097C48.7211 12.4698 51.2936 12.6545 54.2967 13.6412C56.0476 14.217 57.3464 14.9203 58.8426 15.7347C59.8221 16.2729 60.9343 16.8685 62.3067 17.5017L62.2331 17.665Z" fill="var(--fill-0, #263238)"/>
<path id="Vector_43" d="M62.3411 19.1239C61.1463 18.5749 60.1794 18.0565 59.2465 17.5542C57.7127 16.7326 56.387 16.0222 54.4836 15.4015C51.1594 14.3036 48.777 14.1906 48.3429 14.3251L48.2891 14.1547C48.8362 13.9753 51.3944 14.1888 54.5392 15.2311C56.4587 15.8643 57.8544 16.6124 59.3308 17.4035C60.2619 17.904 61.227 18.4207 62.4164 18.9678L62.3411 19.1239Z" fill="var(--fill-0, #263238)"/>
<path id="Vector_44" d="M62.4569 20.5789C61.4361 20.1106 60.5714 19.6514 59.7372 19.2083C58.2357 18.4136 56.8185 17.6619 54.7357 16.9713C51.3146 15.8393 48.891 15.6868 48.3546 15.859L48.3008 15.6796C48.943 15.4751 51.451 15.6796 54.7913 16.7937C56.8884 17.4897 58.3128 18.2432 59.8144 19.0433C60.6486 19.4846 61.5114 19.9402 62.5268 20.4084L62.4569 20.5789Z" fill="var(--fill-0, #263238)"/>
<path id="Vector_45" d="M62.5648 22.0358C61.7073 21.6411 60.9503 21.2411 60.2094 20.8554C58.6881 20.0571 57.2493 19.3036 54.9782 18.5502C51.3275 17.3357 48.981 17.1976 48.3585 17.3949L48.3047 17.2245C49.1102 16.9679 51.7437 17.2855 55.0356 18.3798C57.3211 19.1386 58.8316 19.9315 60.2937 20.6975C61.0274 21.0814 61.7862 21.4797 62.6402 21.8725L62.5648 22.0358Z" fill="var(--fill-0, #263238)"/>
<path id="Vector_46" d="M62.6728 23.4978C61.966 23.1731 61.3381 22.8466 60.6725 22.5022C58.9284 21.5553 57.1048 20.763 55.2225 20.1342C51.6597 18.9466 49.1679 18.6829 48.3624 18.9394L48.3086 18.769C49.1697 18.4946 51.6579 18.7583 55.2799 19.9638C57.1707 20.5959 59.0027 21.3918 60.755 22.3425C61.4188 22.687 62.0449 23.0117 62.7481 23.3346L62.6728 23.4978Z" fill="var(--fill-0, #263238)"/>
<path id="Vector_47" d="M62.7874 24.9525C62.2205 24.6924 61.6913 24.4143 61.1298 24.1327C59.3193 23.1675 57.43 22.3579 55.4824 21.7126C51.5267 20.3905 49.1856 20.2219 48.3819 20.4766L48.3281 20.3062C49.1964 20.0299 51.5465 20.2093 55.5398 21.5422C57.4991 22.19 59.3997 23.0032 61.2213 23.973C61.7792 24.26 62.3084 24.5309 62.8717 24.791L62.7874 24.9525Z" fill="var(--fill-0, #263238)"/>
<path id="Vector_48" d="M62.9004 26.4085C62.4609 26.2057 62.0285 25.9851 61.5693 25.7537C59.6912 24.7734 57.7358 23.949 55.7228 23.2888C50.7302 21.6187 48.9255 21.8393 48.3819 22.0133L48.3281 21.8339C49.5121 21.459 52.2282 21.9236 55.7784 23.1112C57.8006 23.773 59.7645 24.601 61.65 25.5868C62.1075 25.8183 62.538 26.0371 62.9758 26.238L62.9004 26.4085Z" fill="var(--fill-0, #263238)"/>
<path id="Vector_49" d="M63.0201 27.8702C62.6936 27.7195 62.3545 27.5491 61.9957 27.3697C60.0591 26.3786 58.0465 25.5435 55.977 24.8725C51.2625 23.2921 49.2533 23.2849 48.3976 23.5576L48.3438 23.3782C49.5995 22.9763 52.2671 23.432 56.0344 24.6967C58.1118 25.3724 60.1322 26.2122 62.0765 27.2082C62.4352 27.3876 62.7725 27.5563 63.0954 27.7052L63.0201 27.8702Z" fill="var(--fill-0, #263238)"/>
<path id="Vector_50" d="M63.128 29.3289C62.902 29.223 62.6634 29.1046 62.3871 28.9701C61.2892 28.4319 59.6298 27.6013 56.2213 26.4586C52.3213 25.1472 49.6913 24.6916 48.4015 25.1006L48.3477 24.9302C49.6913 24.5032 52.2854 24.9463 56.2787 26.2882C59.698 27.4381 61.3646 28.2615 62.4661 28.8122C62.7423 28.9486 62.9791 29.067 63.2034 29.171L63.128 29.3289Z" fill="var(--fill-0, #263238)"/>
<path id="Vector_51" d="M63.2441 30.7837C63.1024 30.7173 62.9427 30.6402 62.7562 30.5487C61.7856 30.0715 60.1603 29.2732 56.4773 28.0372C52.3512 26.6487 49.7877 26.2038 48.4171 26.6397L48.3633 26.4603C49.7715 26.0118 52.3674 26.4603 56.5347 27.8596C60.2321 29.1046 61.8646 29.9065 62.8387 30.3854C63.0181 30.4769 63.1831 30.5541 63.323 30.6187L63.2441 30.7837Z" fill="var(--fill-0, #263238)"/>
<path id="Vector_52" d="M63.3557 32.2365L63.083 32.1055C62.3654 31.7611 60.7132 30.952 56.7216 29.6066C52.3587 28.1355 49.8759 27.705 48.4228 28.1714L48.3672 28.001C49.8616 27.5256 52.3767 27.9561 56.779 29.4361C60.7813 30.787 62.4497 31.5978 63.1619 31.9476C63.2696 32.0015 63.3575 32.0445 63.431 32.0768L63.3557 32.2365Z" fill="var(--fill-0, #263238)"/>
<path id="Vector_53" d="M63.4714 33.6952L63.3674 33.645C62.0004 32.9848 59.8494 32.1578 56.9719 31.1855C52.4279 29.6517 49.954 29.223 48.4345 29.7073L48.3789 29.5279C49.9612 29.0256 52.3866 29.44 57.0293 31.0097C59.914 31.9838 62.0721 32.8126 63.4445 33.4764L63.5468 33.5248L63.4714 33.6952Z" fill="var(--fill-0, #263238)"/>
<path id="Vector_54" d="M63.5776 35.1521C63.5632 35.1521 62.0743 34.4112 57.2162 32.768C52.4264 31.1535 50.0404 30.7355 48.4384 31.2467L48.3828 31.0763C50.0332 30.5507 52.4425 30.9633 57.2736 32.5976C62.1478 34.2462 63.644 34.9853 63.6583 34.9925L63.5776 35.1521Z" fill="var(--fill-0, #263238)"/>
<path id="Vector_55" d="M46.0487 2.91776L46.899 37.4079C46.899 37.4079 44.3498 32.1678 37.5507 32.3849C30.7516 32.6019 15.738 37.8384 13.3323 38.3335C10.9266 38.8287 7.23828 39.3238 7.23828 39.3238L11.2747 6.3926C11.2747 6.3926 29.1155 3.13124 32.8828 1.99747C36.6501 0.863709 39.8954 -0.334635 42.3029 0.226865C44.7104 0.788365 46.0487 1.21891 46.0487 2.91776Z" fill="var(--fill-0, white)"/>
<path id="Vector_56" d="M7.13672 39.429L7.15107 39.3142L11.1946 6.32022L11.2592 6.30766C11.4386 6.27537 29.1449 3.03912 32.8512 1.91971C33.3368 1.77261 33.8152 1.6261 34.2864 1.4802C37.4599 0.497125 40.2065 -0.351405 42.3197 0.147307C44.6895 0.705219 46.1426 1.13756 46.1426 2.92431L47.0037 37.8252L46.8243 37.4557C46.7992 37.4036 44.2177 32.2676 37.5586 32.4775C32.5642 32.6336 23.1406 35.5057 17.5094 37.2207C15.4678 37.8431 13.9914 38.297 13.3528 38.4244C10.9704 38.9159 7.29279 39.4128 7.25333 39.4182L7.13672 39.429ZM11.3561 6.46912L7.34302 39.2209C7.98526 39.1312 11.1731 38.6827 13.3115 38.245C13.943 38.1158 15.4912 37.644 17.4519 37.0466C23.0921 35.3281 32.5212 32.4524 37.5442 32.2945C43.3441 32.1151 46.105 35.9201 46.7974 37.0574L45.9561 2.92252C45.9561 1.26672 44.625 0.872056 42.2731 0.319525C40.1993 -0.168423 37.4814 0.678312 34.333 1.64883C33.863 1.79234 33.3858 1.94124 32.8979 2.08834C29.2956 3.17546 12.5437 6.25205 11.3561 6.46912Z" fill="var(--fill-0, #263238)"/>
<path id="Vector_57" d="M28.6924 7.3876L15.4102 10.3691L15.4496 10.5449L28.7319 7.5634L28.6924 7.3876Z" fill="var(--fill-0, #263238)"/>
<path id="Vector_58" d="M15.0317 11.9281L14.9922 11.7487C17.8966 11.0939 23.4238 9.84354 23.5798 9.79511C23.7592 9.7377 28.1472 8.7618 28.3338 8.71875L28.3715 8.89814C26.7946 9.25693 23.7736 9.92606 23.6337 9.9745C23.4363 10.0337 15.3743 11.851 15.0317 11.9281Z" fill="var(--fill-0, #263238)"/>
<path id="Vector_59" d="M14.8871 13.3978L14.8477 13.2184C14.9302 13.1987 23.1232 11.3312 23.5053 11.211C23.8874 11.0908 28.1193 10.1526 28.3005 10.1113L28.34 10.2907C28.2951 10.2907 23.9125 11.2738 23.5591 11.385C23.1698 11.5196 15.2262 13.3135 14.8871 13.3978Z" fill="var(--fill-0, #263238)"/>
<path id="Vector_60" d="M14.7444 14.8734L14.7031 14.694C14.7839 14.6761 22.8548 12.814 23.4325 12.6328C23.9707 12.4641 28.0968 11.5474 28.2672 11.5098L28.3067 11.6892C28.2636 11.6999 24.0155 12.6417 23.4863 12.8086C22.9033 12.9915 15.0763 14.798 14.7444 14.8734Z" fill="var(--fill-0, #263238)"/>
<path id="Vector_61" d="M14.6038 16.3508L14.5625 16.1714C14.6432 16.1534 22.5922 14.2967 23.3618 14.0545C24.0794 13.8303 28.0692 12.9459 28.2396 12.9082L28.2773 13.0876C28.236 13.0876 24.1225 14.0079 23.4157 14.2303C22.6389 14.4743 14.9303 16.2736 14.6038 16.3508Z" fill="var(--fill-0, #263238)"/>
<path id="Vector_62" d="M14.4514 17.8224L14.4102 17.643C14.4891 17.6251 22.3179 15.7755 23.2813 15.4724C24.1782 15.1925 28.0352 14.3386 28.1985 14.3027L28.2379 14.4821C28.1967 14.4911 24.2195 15.3791 23.3351 15.6482C22.3645 15.9531 14.7743 17.7471 14.4514 17.8224Z" fill="var(--fill-0, #263238)"/>
<path id="Vector_63" d="M14.3108 19.2998L14.2695 19.1204C14.3467 19.1025 22.0535 17.2601 23.2106 16.8959C24.287 16.5587 28.1314 15.7101 28.1691 15.7012L28.2085 15.8806C28.1691 15.8895 24.3264 16.7363 23.2644 17.0699C22.1019 17.4413 14.3879 19.2801 14.3108 19.2998Z" fill="var(--fill-0, #263238)"/>
<path id="Vector_64" d="M14.1624 20.7734L14.1211 20.594C14.1964 20.5761 21.7831 18.7391 23.1321 18.3157C24.3879 17.9229 28.096 17.1048 28.1337 17.0977L28.1713 17.277C28.1337 17.286 24.4274 18.1023 23.1859 18.4915C21.8315 18.9167 14.2395 20.7537 14.1624 20.7734Z" fill="var(--fill-0, #263238)"/>
<path id="Vector_65" d="M14.0178 22.2488L13.9766 22.0694C14.0501 22.0497 21.5112 20.2199 23.0593 19.7373C24.4837 19.2889 28.0645 18.5031 28.1004 18.4941L28.1398 18.6735C28.1021 18.6735 24.5304 19.4664 23.1168 19.9113C21.5632 20.3975 14.0932 22.2309 14.0178 22.2488Z" fill="var(--fill-0, #263238)"/>
<path id="Vector_66" d="M13.873 23.7203L13.8281 23.541C13.9035 23.523 21.2461 21.6986 22.9773 21.1514C24.5811 20.6473 28.0255 19.8957 28.0596 19.8867L28.099 20.0661C28.0649 20.0661 24.6277 20.8249 23.0311 21.3219C21.2946 21.8798 13.9465 23.706 13.873 23.7203Z" fill="var(--fill-0, #263238)"/>
<path id="Vector_67" d="M13.7284 25.1958L13.6836 25.0164C13.7571 24.9984 20.9778 23.1794 22.9099 22.573C24.6895 22.0133 27.9993 21.2904 28.0334 21.2832L28.0711 21.4626C28.0388 21.4626 24.7361 22.1909 22.9619 22.7471C21.028 23.3588 13.8002 25.1778 13.7284 25.1958Z" fill="var(--fill-0, #263238)"/>
<path id="Vector_68" d="M13.5839 26.6713L13.5391 26.4919C13.6108 26.474 20.7149 24.6621 22.8353 23.9948C24.7943 23.3795 27.9678 22.6888 28.0001 22.6816L28.0378 22.861C28.0073 22.861 24.8392 23.5553 22.8891 24.1688C20.7597 24.8397 13.6557 26.6534 13.5839 26.6713Z" fill="var(--fill-0, #263238)"/>
<path id="Vector_69" d="M13.4394 28.1468L13.3945 27.9674C13.4645 27.9494 20.4448 26.1447 22.7608 25.4164C24.8974 24.7437 27.9381 24.0853 27.9632 24.0781L28.0009 24.2575C27.9704 24.2575 24.9386 24.9213 22.8092 25.5904C20.4932 26.3223 13.5076 28.1288 13.4394 28.1468Z" fill="var(--fill-0, #263238)"/>
<path id="Vector_70" d="M13.2988 29.6204L13.2539 29.441C13.3221 29.423 20.1804 27.6237 22.6919 26.8362C25.0061 26.1079 27.9105 25.48 27.9392 25.4746L27.9769 25.654C27.9482 25.654 25.0509 26.2855 22.7457 27.0102C20.2306 27.8013 13.3687 29.6024 13.2988 29.6204Z" fill="var(--fill-0, #263238)"/>
<path id="Vector_71" d="M13.1521 31.0956L13.1055 30.9162C13.1736 30.8965 19.9099 29.1044 22.6134 28.2541C25.1052 27.4719 27.8751 26.8763 27.902 26.8691L27.9397 27.0485C27.9128 27.0485 25.1519 27.6477 22.6672 28.4299C19.9691 29.2802 13.2203 31.0741 13.1521 31.0956Z" fill="var(--fill-0, #263238)"/>
<path id="Vector_72" d="M13.0037 32.5732L12.957 32.3938C13.0234 32.3758 19.6377 30.5891 22.5349 29.6778C25.2061 28.8382 27.8397 28.2749 27.8666 28.2695L27.9025 28.4489C27.8773 28.4489 25.251 29.0158 22.5888 29.8518C19.6879 30.7685 13.07 32.5552 13.0037 32.5732Z" fill="var(--fill-0, #263238)"/>
<path id="Vector_73" d="M12.8552 34.0426L12.8086 33.8632C12.8732 33.8452 19.3673 32.0692 22.4583 31.0933C25.3053 30.1964 27.8042 29.6582 27.8294 29.6582L27.867 29.8376C27.8419 29.8376 25.3555 30.3758 22.5121 31.2727C19.4229 32.2433 12.9198 34.0246 12.8552 34.0426Z" fill="var(--fill-0, #263238)"/>
<path id="Vector_74" d="M30.2939 6.96454L30.2383 6.78515C30.7442 6.6237 42.6488 2.85644 44.4554 4.84233L44.3226 4.96431C42.5932 3.06992 30.4159 6.92508 30.2939 6.96454Z" fill="var(--fill-0, #263238)"/>
<path id="Vector_75" d="M30.2509 8.39177L30.1953 8.22135C30.2384 8.20699 34.4308 6.86155 38.1605 6.16012C39.7427 5.86591 43.5244 5.29186 44.4572 6.31799L44.3245 6.43997C43.7199 5.77263 41.4272 5.73496 38.1928 6.33593C34.4757 7.03556 30.2922 8.37742 30.2509 8.39177Z" fill="var(--fill-0, #263238)"/>
<path id="Vector_76" d="M30.214 9.81833L30.1602 9.6479C30.2014 9.63355 34.4656 8.25044 38.1486 7.56874C41.3401 6.9911 43.8211 7.07541 44.4651 7.78401L44.3324 7.906C43.7386 7.25121 41.2647 7.18843 38.1809 7.74634C34.5141 8.42444 30.257 9.80398 30.214 9.81833Z" fill="var(--fill-0, #263238)"/>
<path id="Vector_77" d="M30.1746 11.2524L30.1172 11.082C30.162 11.0677 34.5016 9.6379 38.1308 8.98671C41.1643 8.44853 43.8302 8.55617 44.4688 9.25759L44.3361 9.37958C43.7458 8.73018 41.0926 8.63689 38.1631 9.16251C34.5465 9.81192 30.2177 11.2381 30.1746 11.2524Z" fill="var(--fill-0, #263238)"/>
<path id="Vector_78" d="M30.1376 12.6791L30.082 12.4998C30.1251 12.4854 34.54 11.0162 38.1189 10.3865C41.0485 9.87165 43.8416 10.0152 44.4767 10.7148L44.344 10.8368C43.8309 10.2717 41.3176 10.0062 38.1494 10.5623C34.5848 11.1992 30.1915 12.6648 30.1376 12.6791Z" fill="var(--fill-0, #263238)"/>
<path id="Vector_79" d="M30.0965 14.1108L30.0391 13.9404C30.0839 13.9242 34.5724 12.4155 38.1011 11.8074C41.219 11.2692 43.9153 11.5742 44.4804 12.1931L44.3458 12.3151C43.8973 11.82 41.4253 11.4181 38.1316 11.985C34.6172 12.5949 30.1413 14.0947 30.0965 14.1108Z" fill="var(--fill-0, #263238)"/>
<path id="Vector_80" d="M30.0613 15.54L30.0039 15.3696C30.0488 15.3534 34.6126 13.8053 38.091 13.2168C41.4386 12.6553 44.0057 13.1325 44.4901 13.6707L44.3573 13.7927C43.9501 13.3442 41.5175 12.8329 38.1197 13.4052C34.6574 13.9793 30.1062 15.5238 30.0613 15.54Z" fill="var(--fill-0, #263238)"/>
<path id="Vector_81" d="M30.0183 16.9765L29.9609 16.8061C30.0076 16.79 34.6467 15.2041 38.0714 14.639C41.4961 14.074 44.0614 14.666 44.492 15.1378L44.3592 15.2598C43.9627 14.8238 41.3956 14.2731 38.1019 14.8149C34.6898 15.3782 30.065 16.9604 30.0183 16.9765Z" fill="var(--fill-0, #263238)"/>
<path id="Vector_82" d="M29.9889 18.3993L29.9297 18.2307C29.9763 18.2127 34.6908 16.5892 38.0653 16.0439C41.4128 15.5057 44.075 16.1282 44.5056 16.6L44.3692 16.7202C44.0104 16.3255 41.4415 15.6779 38.0904 16.2197C34.7393 16.7614 30.0355 18.3832 29.9889 18.3993Z" fill="var(--fill-0, #263238)"/>
<path id="Vector_83" d="M29.9459 19.8293L29.8867 19.6607C29.9352 19.6427 34.7304 17.9816 38.0474 17.4559C41.4559 16.9178 44.1181 17.6353 44.5056 18.0695L44.3729 18.1915C44.0859 17.8757 41.56 17.0828 38.0725 17.6335C34.7681 18.1556 29.9944 19.8132 29.9459 19.8293Z" fill="var(--fill-0, #263238)"/>
<path id="Vector_84" d="M29.9069 21.2624L29.8477 21.0937C29.8961 21.0758 34.7595 19.377 38.0335 18.8729C41.5765 18.3257 44.2029 19.2011 44.5132 19.542L44.3805 19.664C44.1652 19.4272 41.7362 18.4818 38.0604 19.0487C34.8043 19.5528 29.9553 21.2462 29.9069 21.2624Z" fill="var(--fill-0, #263238)"/>
<path id="Vector_85" d="M29.8639 22.6927L29.8047 22.5222C29.8549 22.5043 34.7937 20.7696 38.0138 20.2834C41.7506 19.7183 44.2837 20.7552 44.5151 21.001L44.3823 21.123C44.1904 20.9095 41.6914 19.9013 38.0407 20.452C34.8367 20.9436 29.9141 22.6747 29.8639 22.6927Z" fill="var(--fill-0, #263238)"/>
<path id="Vector_86" d="M29.8344 24.1271L29.7734 23.9566C29.8237 23.9405 34.8378 22.1627 38.0077 21.6999C41.7176 21.1617 44.3224 22.256 44.5287 22.4838L44.3959 22.6058C44.2829 22.4802 41.8557 21.3142 38.0346 21.8775C34.8754 22.3421 29.8793 24.1091 29.8344 24.1271Z" fill="var(--fill-0, #263238)"/>
<path id="Vector_87" d="M29.7876 25.5561L29.7266 25.3874C29.7786 25.3677 34.8662 23.5612 37.9787 23.1109C41.6779 22.5728 44.3078 23.7191 44.5195 23.9523L44.3867 24.0743C44.2414 23.929 41.7604 22.7486 38.0039 23.2885C34.9111 23.7352 29.8324 25.5381 29.7876 25.5561Z" fill="var(--fill-0, #263238)"/>
<path id="Vector_88" d="M29.7506 26.9856L29.6914 26.817C29.7416 26.799 34.9064 24.9603 37.9723 24.5243C41.8508 23.9862 44.4126 25.2868 44.5346 25.4213L44.4036 25.5433C44.2009 25.3639 41.6858 24.1907 37.9974 24.7019C34.9495 25.1361 29.8026 26.9677 29.7506 26.9856Z" fill="var(--fill-0, #263238)"/>
<path id="Vector_89" d="M29.7094 28.4132L29.6484 28.2446C29.7005 28.2266 34.9388 26.3502 37.9544 25.934C41.8222 25.4084 44.4127 26.7502 44.5382 26.8884L44.4055 27.0103C44.3929 27.0103 41.9334 25.5752 37.9796 26.1134C34.9819 26.5242 29.7615 28.3953 29.7094 28.4132Z" fill="var(--fill-0, #263238)"/>
<path id="Vector_90" d="M29.6704 29.8446L29.6094 29.6759C29.6632 29.6562 34.9769 27.7439 37.9405 27.3438C41.9464 26.8057 44.4992 28.3251 44.5243 28.3395L44.431 28.4937C44.4059 28.4776 41.9051 26.9976 37.9638 27.5232C35.0199 27.9179 29.7224 29.8212 29.6704 29.8446Z" fill="var(--fill-0, #263238)"/>
<path id="Vector_91" d="M60.6552 40.7507C60.6552 40.7507 60.0991 40.6125 59.2344 40.4313L59.272 40.252C60.1403 40.4313 60.6947 40.5713 60.7072 40.5731L60.6552 40.7507Z" fill="var(--fill-0, #263238)"/>
<path id="Vector_92" d="M58.5845 40.2982C57.8274 40.1493 57.1978 39.6076 56.5322 39.0425C55.6926 38.3249 54.8244 37.5697 53.6045 37.5338C51.2089 37.489 48.8256 37.8861 46.574 38.7052L46.504 38.7321L46.4645 38.6675C46.1898 38.2488 45.8871 37.849 45.5586 37.471L45.6931 37.3544C46.0121 37.721 46.3075 38.1074 46.5776 38.5115C48.833 37.706 51.2152 37.3141 53.6099 37.3544C54.8925 37.3921 55.7859 38.1617 56.6506 38.9061C57.2964 39.4623 57.9064 39.9825 58.624 40.1296L58.5845 40.2982Z" fill="var(--fill-0, #263238)"/>
<path id="Vector_93" d="M45.0953 36.9537C44.6509 36.4895 44.1711 36.0607 43.6602 35.671L43.7678 35.5293C44.2859 35.9236 44.7718 36.3585 45.2209 36.8299L45.0953 36.9537Z" fill="var(--fill-0, #263238)"/>
<path id="Vector_94" d="M43.6647 35.6664C42.9426 35.1111 42.1445 34.6623 41.2949 34.3336C37.6066 32.9343 33.502 33.9855 33.0427 34.1093L32.9961 33.9299C33.4571 33.8043 37.6137 32.7405 41.3559 34.1613C42.2212 34.496 43.0338 34.9533 43.7688 35.5193L43.6647 35.6664Z" fill="var(--fill-0, #263238)"/>
<path id="Vector_95" d="M22.5981 36.6674L22.5586 36.488C22.6591 36.4647 32.6442 34.2349 36.9102 34.3353C38.5734 34.3591 40.2218 34.6517 41.7916 35.2018L41.7306 35.3704C40.1771 34.8263 38.5454 34.5385 36.8994 34.5183C32.6567 34.4196 22.6985 36.6459 22.5981 36.6674Z" fill="var(--fill-0, #263238)"/>
<path id="Vector_96" d="M43.3387 36.1451C43.0759 35.9736 42.7993 35.8242 42.5117 35.6984L42.5853 35.5352C42.8817 35.6671 43.1678 35.8212 43.441 35.9962L43.3387 36.1451Z" fill="var(--fill-0, #263238)"/>
<path id="Vector_97" d="M42.7485 38.8922L15.6406 40.1895L15.6492 40.3686L42.7571 39.0714L42.7485 38.8922Z" fill="var(--fill-0, #263238)"/>
<path id="Vector_98" d="M45.3082 38.769L43.8281 38.8398L43.8367 39.019L45.3168 38.9482L45.3082 38.769Z" fill="var(--fill-0, #263238)"/>
<path id="Vector_99" d="M24.1073 41.4249L22.5273 41.4648L22.5319 41.6442L24.1118 41.6042L24.1073 41.4249Z" fill="var(--fill-0, #263238)"/>
<path id="Vector_100" d="M21.6181 41.4894L9.08594 41.8066L9.09048 41.986L21.6226 41.6688L21.6181 41.4894Z" fill="var(--fill-0, #263238)"/>
<path id="Vector_101" d="M41.3843 42.4387L39.9922 42.4805L39.9976 42.6599L41.3897 42.6181L41.3843 42.4387Z" fill="var(--fill-0, #263238)"/>
<path id="Vector_102" d="M38.8752 42.5115L21.2227 43.041L21.228 43.2204L38.8805 42.6909L38.8752 42.5115Z" fill="var(--fill-0, #263238)"/>
<path id="Vector_103" d="M34.0837 40.9086L30.3867 41.0352L30.3929 41.2144L34.0898 41.0879L34.0837 40.9086Z" fill="var(--fill-0, #263238)"/>
<path id="Vector_104" d="M44.2666 40.5651L35.0977 40.8789L35.1038 41.0582L44.2727 40.7444L44.2666 40.5651Z" fill="var(--fill-0, #263238)"/>
<path id="Vector_105" d="M18.2239 42.9415L16.9453 42.9766L16.9502 43.1559L18.2288 43.1208L18.2239 42.9415Z" fill="var(--fill-0, #263238)"/>
<path id="Vector_106" d="M16.1466 43.0001L4.25 43.3262L4.25492 43.5055L16.1515 43.1794L16.1466 43.0001Z" fill="var(--fill-0, #263238)"/>
</g>
</svg>
