<svg preserveAspectRatio="none" width="100%" height="100%" overflow="visible" style="display: block;" viewBox="0 0 60.3508 45.3275" fill="none" xmlns="http://www.w3.org/2000/svg">
<g id="freepik--books-2--inject-22">
<path id="Vector" d="M9.77822 30.4813C9.77822 30.4813 15.6444 44.4129 17.0563 45.1502C18.4681 45.8875 59.8582 42.2943 59.8582 42.2943L58.6831 40.9865L58.6275 31.9702L60.1757 31.9021L44.3638 11.0781L8.63547 13.6883C8.63547 13.6883 6.7285 15.0086 6.46299 16.1639C6.19749 17.3192 6.26566 19.0468 6.26566 19.0468L9.77822 30.4813Z" fill="var(--fill-0, #263238)"/>
<path id="Vector_2" d="M18.4405 45.3275C17.6529 45.3275 17.156 45.2952 17.0179 45.2235C15.5935 44.4808 9.93713 31.0801 9.69854 30.5133V30.5043L6.17701 19.0644V19.0518C6.17701 19.0339 6.1214 17.292 6.37614 16.1457C6.63088 14.9993 8.50556 13.67 8.58629 13.6144L8.60602 13.6019H8.62934L44.4026 10.9863L44.4313 11.0258L60.3508 31.9843L58.7183 32.0578L58.7739 40.9539L60.0458 42.3693L59.8664 42.3837C58.3398 42.5164 25.7867 45.3275 18.4405 45.3275ZM9.86538 30.4379C11.8908 35.2474 16.0061 44.4862 17.1004 45.0566C18.1947 45.6271 45.3193 43.4511 59.6727 42.2061L58.5963 41.0077V40.9737L58.5407 31.8713L60.0028 31.8067L44.3236 11.1729L8.66881 13.7759C8.46609 13.9212 6.78337 15.1465 6.55195 16.1851C6.31156 17.2615 6.35102 18.876 6.35461 19.0339L9.86538 30.4379Z" fill="var(--fill-0, #263238)"/>
<path id="Vector_3" d="M58.6311 31.9766L18.034 35.2451C17.4205 35.6498 16.9038 36.1849 16.5209 36.8122C16.1379 37.4395 15.8981 38.1436 15.8185 38.8742C15.5207 41.409 16.545 43.9833 17.3074 44.3529C17.8629 44.5905 18.4566 44.7261 19.0601 44.7529L58.6868 40.9857L58.6311 31.9766Z" fill="var(--fill-0, #E0E0E0)"/>
<path id="Vector_4" d="M19.0654 44.8415C18.4475 44.8155 17.8395 44.6769 17.2714 44.4325C16.4516 44.0343 15.4362 41.3828 15.7322 38.8713C15.8153 38.1278 16.0601 37.4114 16.4493 36.7724C16.8386 36.1334 17.3628 35.5872 17.9854 35.1722L18.0231 35.1597L58.7171 31.875L58.7745 41.0689L58.692 41.0779L19.0654 44.8415ZM18.05 35.3337C17.4557 35.7353 16.9555 36.261 16.5839 36.8745C16.2123 37.488 15.978 38.1748 15.8972 38.8875C15.5977 41.4492 16.6651 43.9481 17.3324 44.2693C17.8766 44.5014 18.4582 44.6338 19.0492 44.6603L58.5826 40.9074L58.527 32.0687L18.05 35.3337Z" fill="var(--fill-0, #263238)"/>
<path id="Vector_5" d="M17.3189 0.509942L0.941934 23.1224C0.941934 23.1224 0.044959 24.0015 0.0916017 26.156C0.138245 28.3105 0.24409 31.8248 0.884531 32.0759C1.52497 32.3271 48.914 35.9149 48.914 35.9149L59.8571 10.6439L59.0032 10.2851L59.2974 4.05475L60.015 2.03837L18.5227 0.09375L17.3189 0.509942Z" fill="var(--fill-0, #E8C5DB)"/>
<path id="Vector_6" d="M48.9711 36.0024H48.9065C46.9708 35.8571 1.49948 32.402 0.853653 32.1544C0.3352 31.9553 0.0804589 30.1613 0.00152497 26.1573C-0.0415299 23.9884 0.841092 23.0951 0.878765 23.0574L17.2629 0.432337L18.5079 0H18.5259L60.133 1.9518L59.3867 4.07043L59.0925 10.2164L59.9716 10.5932L59.9357 10.6775L48.9711 36.0024ZM17.3742 0.583027L1.01331 23.1722C0.995372 23.1919 0.139659 24.0692 0.18092 26.1519C0.20783 27.535 0.292146 31.7454 0.916442 31.9858C1.53177 32.1849 32.5026 34.5762 48.8562 35.823L59.7366 10.6882L58.9078 10.3294L59.2127 4.0202L59.8837 2.11504L18.5348 0.181187L17.3742 0.583027Z" fill="var(--fill-0, #263238)"/>
<path id="Vector_7" d="M2.40655 23.7644C2.40655 23.7644 0.924741 23.3052 0.503162 24.7296C0.081583 26.154 1.11849 31.3151 1.11849 31.3151C1.11849 31.3151 2.00291 31.6846 2.41013 31.6972C2.81736 31.7098 48.4196 34.72 48.4196 34.72L58.9914 10.2759L59.2892 4.05273L49.1749 25.9566L2.40655 23.7644Z" fill="var(--fill-0, white)"/>
<path id="Vector_8" d="M48.4834 34.8119H48.4206C47.965 34.7814 2.81297 31.7999 2.41292 31.7891C2.01286 31.7783 1.12665 31.416 1.08898 31.4016L1.04592 31.3819L1.03695 31.3352C0.993896 31.1236 0.00183982 26.1328 0.425213 24.7067C0.472104 24.5131 0.558238 24.3312 0.678276 24.1723C0.798314 24.0134 0.949702 23.8808 1.12306 23.7828C1.5317 23.5924 1.99509 23.5548 2.42906 23.677L49.1256 25.8673L59.4068 3.5957L59.0803 10.3086L48.4834 34.8119ZM1.202 31.2491C1.38139 31.3227 2.08283 31.5954 2.4183 31.6079C2.81835 31.6187 45.7566 34.4549 48.3686 34.6271L58.9099 10.253L59.1843 4.5124L49.2387 26.0485H49.1777L2.39856 23.851H2.386C1.99509 23.74 1.57751 23.7711 1.20738 23.9389C1.05554 24.0265 0.923041 24.144 0.817897 24.2843C0.712754 24.4246 0.637147 24.5848 0.59564 24.7551C0.208147 26.0683 1.10154 30.7289 1.202 31.2491Z" fill="var(--fill-0, #263238)"/>
<path id="Vector_9" d="M48.129 25.9057L2.40655 23.762C2.40655 23.762 0.924741 23.3027 0.503162 24.7271C0.081583 26.1515 1.11849 31.3126 1.11849 31.3126C1.11849 31.3126 2.00291 31.6822 2.41013 31.6947C2.81736 31.7073 48.4196 34.7175 48.4196 34.7175L48.3568 26.1067L48.129 25.9057Z" fill="var(--fill-0, #E0E0E0)"/>
<path id="Vector_10" d="M48.5175 34.8108H48.4206C47.965 34.7803 2.81297 31.7988 2.41292 31.7881C2.01286 31.7773 1.12665 31.4149 1.08898 31.4006L1.04592 31.3808L1.03695 31.3342C0.993896 31.1225 0.00183982 26.1318 0.425213 24.7056C0.472104 24.5121 0.558238 24.3302 0.678276 24.1713C0.798314 24.0124 0.949702 23.8798 1.12306 23.7818C1.5317 23.5913 1.99509 23.5538 2.42906 23.6759L48.1749 25.8286L48.4565 26.069V26.1103L48.5175 34.8108ZM1.202 31.2463C1.38139 31.3199 2.08283 31.5925 2.4183 31.6051C2.81655 31.6159 45.414 34.4287 48.3435 34.6207L48.2807 26.1426L48.1013 25.9937L2.39856 23.8481H2.386C1.99509 23.7372 1.57751 23.7683 1.20738 23.936C1.05554 24.0237 0.923041 24.1412 0.817897 24.2815C0.712754 24.4218 0.637147 24.5819 0.59564 24.7523C0.208147 26.0654 1.10154 30.7261 1.202 31.2463Z" fill="var(--fill-0, #263238)"/>
</g>
</svg>
