<svg preserveAspectRatio="none" width="100%" height="100%" overflow="visible" style="display: block;" viewBox="0 0 22.5656 47.6215" fill="none" xmlns="http://www.w3.org/2000/svg">
<g id="freepik--search-engines--inject-86">
<path id="Vector" d="M12.4392 1.17544C14.5536 1.40949 16.5511 2.26526 18.1791 3.63455C19.8071 5.00384 20.9925 6.82515 21.5854 8.86815C22.1784 10.9112 22.1521 13.0841 21.5101 15.1122C20.868 17.1403 19.639 18.9324 17.9784 20.262C16.3178 21.5916 14.3002 22.3989 12.1808 22.5819C10.0614 22.7648 7.93528 22.3151 6.07141 21.2898C4.20754 20.2644 2.68959 18.7093 1.70951 16.8213C0.729434 14.9332 0.331249 12.7969 0.565312 10.6825C0.879173 7.84818 2.30611 5.25463 4.53221 3.47239C6.75831 1.69016 9.60123 0.86522 12.4356 1.17907L12.4392 1.17544ZM10.3047 20.4436C12.0015 20.6327 13.7162 20.3144 15.232 19.529C16.7479 18.7435 17.9968 17.5262 18.8208 16.031C19.6449 14.5358 20.007 12.8298 19.8615 11.1288C19.716 9.42774 19.0693 7.80805 18.0033 6.47452C16.9373 5.14099 15.4998 4.15351 13.8726 3.63694C12.2453 3.12037 10.5015 3.09792 8.86149 3.57242C7.2215 4.04691 5.75904 4.99705 4.65904 6.30269C3.55904 7.60833 2.8709 9.21083 2.68163 10.9076C2.42879 13.1828 3.08974 15.4654 4.51919 17.2536C5.94864 19.0417 8.02961 20.1892 10.3047 20.4436Z" fill="var(--fill-0, white)" stroke="var(--stroke-0, #2E353A)" stroke-linecap="round" stroke-linejoin="round"/>
<path id="Vector_2" d="M12.5003 0.565717C14.6137 0.800457 16.6101 1.65657 18.237 3.02582C19.8639 4.39508 21.0483 6.21597 21.6403 8.25828C22.2324 10.3006 22.2056 12.4726 21.5634 14.4997C20.9211 16.5268 19.6922 18.3179 18.0321 19.6467C16.3719 20.9754 14.3551 21.782 12.2365 21.9646C10.1179 22.1472 7.99282 21.6974 6.12983 20.6723C4.26683 19.6472 2.74963 18.0927 1.77005 16.2054C0.790464 14.318 0.392497 12.1826 0.626457 10.0691C0.78185 8.66538 1.21228 7.306 1.89315 6.06863C2.57402 4.83127 3.492 3.74016 4.59465 2.85764C5.6973 1.97512 6.96301 1.31847 8.31949 0.92522C9.67597 0.531967 11.0966 0.409807 12.5003 0.565717ZM10.3659 19.8339C12.0626 20.023 13.7773 19.7047 15.2932 18.9192C16.809 18.1338 18.0579 16.9165 18.882 15.4213C19.706 13.9261 20.0682 12.2201 19.9226 10.5191C19.7771 8.81802 19.1305 7.19833 18.0645 5.8648C16.9984 4.53127 15.5609 3.54379 13.9337 3.02722C12.3065 2.51065 10.5626 2.48819 8.92263 2.96269C7.28264 3.43719 5.82018 4.38733 4.72018 5.69297C3.62018 6.99861 2.93204 8.6011 2.74277 10.2978C2.491 12.5721 3.15253 14.8534 4.58196 16.6401C6.01139 18.4269 8.09176 19.573 10.3659 19.8267L10.3659 19.8339Z" fill="var(--fill-0, white)" stroke="var(--stroke-0, #2E353A)" stroke-linecap="round" stroke-linejoin="round"/>
<path id="Vector_3" d="M8.61848 23.0678L7.7929 30.5219C7.72934 31.0958 8.14304 31.6125 8.71692 31.6761L9.22564 31.7324C9.79951 31.796 10.3163 31.3823 10.3798 30.8084L11.2054 23.3543C11.269 22.7805 10.8553 22.2637 10.2814 22.2002L9.77266 22.1438C9.19878 22.0803 8.68204 22.494 8.61848 23.0678Z" fill="var(--fill-0, #C5E8D4)" stroke="var(--stroke-0, #2E353A)" stroke-linecap="round" stroke-linejoin="round"/>
<path id="Vector_4" d="M7.35978 47.0957L7.28718 47.0957C6.98709 47.0628 6.69649 46.9708 6.43213 46.825C6.16777 46.6792 5.93489 46.4826 5.74692 46.2464C5.55895 46.0101 5.41961 45.739 5.33694 45.4487C5.25427 45.1583 5.2299 44.8545 5.26525 44.5547L6.89514 29.8168C6.92043 29.583 6.99164 29.3565 7.10467 29.1504C7.2177 28.9442 7.37033 28.7623 7.55381 28.6153C7.73728 28.4682 7.94798 28.3589 8.17383 28.2934C8.39967 28.228 8.63621 28.2079 8.86988 28.2341L9.95889 28.3539C10.4306 28.4059 10.8624 28.6431 11.1592 29.0135C11.456 29.3838 11.5935 29.8569 11.5416 30.3286L9.9117 45.0847C9.87787 45.3844 9.78528 45.6745 9.63921 45.9384C9.49314 46.2023 9.29648 46.4347 9.06046 46.6225C8.82445 46.8103 8.55372 46.9498 8.26376 47.0328C7.97381 47.1159 7.67032 47.1409 7.37067 47.1066L7.35978 47.0957Z" fill="var(--fill-0, #2E353A)" stroke="var(--stroke-0, #2E353A)" stroke-linecap="round" stroke-linejoin="round"/>
<path id="Vector_5" d="M7.07146 32.1328C7.12127 31.6495 7.22103 31.1727 7.36912 30.7099" stroke="var(--stroke-0, #2E353A)" stroke-linecap="round" stroke-linejoin="round"/>
</g>
</svg>
