<svg preserveAspectRatio="none" width="100%" height="100%" overflow="visible" style="display: block;" viewBox="0 0 88.3099 80.679" fill="none" xmlns="http://www.w3.org/2000/svg">
<g id="freepik--Device--inject-86">
<path id="Vector" d="M55.0093 71.0305V63.6543H33.2871V71.0305C33.2836 73.4332 32.4703 75.7646 30.9784 77.6481L30.0273 78.846H58.2691L57.318 77.6481C55.8262 75.7646 55.0128 73.4332 55.0093 71.0305Z" fill="var(--fill-0, white)" stroke="var(--stroke-0, #2E353A)" stroke-linecap="round" stroke-linejoin="round"/>
<path id="Vector_2" d="M31.9609 76.196H56.3549C55.4791 74.6152 55.0194 72.8377 55.019 71.0305V63.6543H33.2968V71.0305C33.2964 72.8377 32.8367 74.6152 31.9609 76.196Z" fill="var(--fill-0, #C5E8D4)"/>
<path id="Vector_3" d="M84.7279 0.5H3.57828C1.87819 0.5 0.5 1.87818 0.5 3.57826V62.9038C0.5 64.6039 1.87819 65.9821 3.57828 65.9821H84.7279C86.428 65.9821 87.8062 64.6039 87.8062 62.9038V3.57826C87.8062 1.87818 86.428 0.5 84.7279 0.5Z" fill="var(--fill-0, #2E353A)" stroke="var(--stroke-0, #2E353A)" stroke-linecap="round" stroke-linejoin="round"/>
<path id="Vector_4" d="M0.5 55.8047H87.8099V62.9014C87.8099 63.7178 87.4856 64.5008 86.9083 65.0781C86.331 65.6553 85.548 65.9797 84.7316 65.9797H3.58191C2.7655 65.9797 1.98253 65.6553 1.40524 65.0781C0.827948 64.5008 0.503631 63.7178 0.503631 62.9014V55.8047H0.5Z" fill="var(--fill-0, white)" stroke="var(--stroke-0, #2E353A)" stroke-linecap="round" stroke-linejoin="round"/>
<path id="Vector_5" d="M83.4197 4.57617H4.89453V50.8373H83.4197V4.57617Z" fill="var(--fill-0, white)" stroke="var(--stroke-0, #2E353A)" stroke-linecap="round" stroke-linejoin="round"/>
<path id="Vector_6" d="M45.7704 60.893C45.7704 60.5742 45.6758 60.2626 45.4987 59.9975C45.3216 59.7325 45.0699 59.5259 44.7754 59.4039C44.4809 59.2819 44.1568 59.25 43.8442 59.3122C43.5315 59.3744 43.2443 59.5279 43.0189 59.7533C42.7935 59.9787 42.64 60.2659 42.5778 60.5785C42.5157 60.8912 42.5476 61.2153 42.6696 61.5098C42.7916 61.8043 42.9981 62.056 43.2632 62.2331C43.5282 62.4102 43.8398 62.5047 44.1586 62.5047C44.5861 62.5047 44.996 62.3349 45.2983 62.0326C45.6006 61.7304 45.7704 61.3204 45.7704 60.893Z" fill="var(--fill-0, #2E353A)" stroke="var(--stroke-0, #2E353A)" stroke-linecap="round" stroke-linejoin="round"/>
<path id="Vector_7" d="M58.2727 78.8613H30.0273V80.179H58.2727V78.8613Z" fill="var(--fill-0, white)" stroke="var(--stroke-0, #2E353A)" stroke-linecap="round" stroke-linejoin="round"/>
<path id="Vector_8" d="M82.679 7.83789H5.50781V11.8926H82.679V7.83789Z" fill="var(--fill-0, white)" stroke="var(--stroke-0, #2E353A)" stroke-linecap="round" stroke-linejoin="round"/>
<path id="Vector_9" d="M18.242 11.8895L17.3164 9.38477H5.50781V11.8895V15.211V48.8649H82.679V11.8895H18.242Z" fill="var(--fill-0, #C5E8D4)" stroke="var(--stroke-0, #2E353A)" stroke-linecap="round" stroke-linejoin="round"/>
<path id="Vector_10" d="M26.0508 30.082H62.2351" stroke="var(--stroke-0, #2E353A)" stroke-linecap="round" stroke-linejoin="round"/>
<path id="Vector_11" d="M26.0508 33.6387H62.2351" stroke="var(--stroke-0, #2E353A)" stroke-linecap="round" stroke-linejoin="round"/>
<path id="Vector_12" d="M26.0508 18.0488H62.2351" stroke="var(--stroke-0, #2E353A)" stroke-linecap="round" stroke-linejoin="round"/>
<path id="Vector_13" d="M26.0508 21.6016H62.2351" stroke="var(--stroke-0, #2E353A)" stroke-linecap="round" stroke-linejoin="round"/>
<path id="Vector_14" d="M26.0508 37.1973H62.2351" stroke="var(--stroke-0, #2E353A)" stroke-linecap="round" stroke-linejoin="round"/>
<path id="Vector_15" d="M26.0508 40.7578H62.2351" stroke="var(--stroke-0, #2E353A)" stroke-linecap="round" stroke-linejoin="round"/>
</g>
</svg>
