<svg preserveAspectRatio="none" width="100%" height="100%" overflow="visible" style="display: block;" viewBox="0 0 12.618 12.888" fill="none" xmlns="http://www.w3.org/2000/svg">
<path id="&#194;&#169;" d="M6.318 0C7.542 0 8.628 0.276 9.576 0.827999C10.536 1.368 11.28 2.13 11.808 3.114C12.348 4.086 12.618 5.196 12.618 6.444C12.618 7.692 12.348 8.808 11.808 9.792C11.28 10.764 10.536 11.526 9.576 12.078C8.628 12.618 7.542 12.888 6.318 12.888C5.082 12.888 3.984 12.618 3.024 12.078C2.076 11.526 1.332 10.764 0.792 9.792C0.264 8.808 0 7.692 0 6.444C0 5.196 0.264 4.086 0.792 3.114C1.332 2.13 2.076 1.368 3.024 0.827999C3.984 0.276 5.082 0 6.318 0ZM6.318 0.918C5.238 0.918 4.296 1.146 3.492 1.602C2.688 2.046 2.07 2.688 1.638 3.528C1.206 4.356 0.99 5.328 0.99 6.444C0.99 7.548 1.206 8.52 1.638 9.36C2.07 10.188 2.688 10.836 3.492 11.304C4.296 11.76 5.238 11.988 6.318 11.988C7.386 11.988 8.322 11.76 9.126 11.304C9.93 10.836 10.548 10.188 10.98 9.36C11.412 8.52 11.628 7.548 11.628 6.444C11.628 5.328 11.412 4.356 10.98 3.528C10.548 2.688 9.93 2.046 9.126 1.602C8.334 1.146 7.398 0.918 6.318 0.918ZM6.3 2.34C5.544 2.34 4.866 2.508 4.266 2.844C3.666 3.18 3.192 3.66 2.844 4.284C2.508 4.896 2.34 5.61 2.34 6.426C2.34 7.242 2.508 7.962 2.844 8.586C3.192 9.21 3.666 9.69 4.266 10.026C4.866 10.362 5.544 10.53 6.3 10.53C7.224 10.53 8.022 10.278 8.694 9.774C9.366 9.258 9.804 8.58 10.008 7.74H7.794C7.662 8.076 7.47 8.334 7.218 8.514C6.978 8.694 6.654 8.784 6.246 8.784C5.694 8.784 5.256 8.586 4.932 8.19C4.62 7.782 4.464 7.194 4.464 6.426C4.464 5.658 4.62 5.076 4.932 4.68C5.256 4.284 5.694 4.086 6.246 4.086C6.63 4.086 6.954 4.176 7.218 4.356C7.494 4.536 7.686 4.794 7.794 5.13H10.008C9.804 4.266 9.366 3.588 8.694 3.096C8.034 2.592 7.236 2.34 6.3 2.34Z" fill="var(--fill-0, black)"/>
</svg>
