<svg viewBox="0 0 358 179" fill="none" xmlns="http://www.w3.org/2000/svg">
<g id="Subtract">
<path d="M109.576 89.3647C113.855 95.4594 112.521 103.762 107.304 109.08C92.6959 123.973 82.7162 143.398 79.6848 165.043C78.6124 172.7 72.43 179 64.676 179H13.5311C5.77711 179 -0.565804 172.722 0.0400947 165.014C1.51127 146.298 5.92885 127.898 13.156 110.5C22.1771 88.7828 35.3992 69.0494 52.068 52.4277C54.796 49.7074 57.6079 47.0794 60.4984 44.5468C66.4454 39.3361 75.4879 40.8205 80.0287 47.287L109.576 89.3647Z" fill="#D9D9D9"/>
<path d="M277.991 47.3034C282.532 40.8362 291.576 39.3524 297.522 44.5646C300.405 47.0918 303.21 49.7139 305.932 52.4277C322.601 69.0494 335.823 88.7828 344.844 110.5C352.071 127.899 356.489 146.298 357.96 165.014C358.566 172.722 352.223 179 344.469 179H293.324C285.57 179 279.388 172.7 278.315 165.043C275.285 143.406 265.312 123.986 250.712 109.096C245.497 103.777 244.164 95.4766 248.443 89.3831L277.991 47.3034Z" fill="#DF0D3D"/>
<path d="M179 0C202.573 0 225.916 4.63051 247.695 13.626C253.885 16.183 259.915 19.0792 265.758 22.2966C272.672 26.1035 274.345 35.0612 269.815 41.5124L240.313 83.5274C236.009 89.6567 227.666 91.2239 220.849 88.0977C208.112 82.2574 193.937 79 179 79C164.07 79.0001 149.903 82.2538 137.172 88.0884C130.355 91.2125 122.014 89.6447 117.711 83.5165L88.2074 41.5003C83.677 35.0486 85.3513 26.0899 92.2662 22.2835C98.1015 19.0714 104.123 16.1795 110.305 13.626C132.084 4.63047 155.427 4.93709e-05 179 0Z" fill="#D9D9D9"/>
</g>
</svg>
