<svg viewBox="0 0 326 163" fill="none" xmlns="http://www.w3.org/2000/svg">
<g id="Vector">
<path d="M99.7812 81.3768C103.678 86.9267 102.463 94.4868 97.7124 99.3303C84.4102 112.891 75.3226 130.58 72.5622 150.29C71.5856 157.263 65.9558 163 58.8949 163H12.3216C5.26072 163 -0.51523 157.284 0.0365108 150.264C1.37618 133.221 5.39889 116.466 11.98 100.623C20.1948 80.8469 32.235 62.8774 47.4139 47.7415C49.8981 45.2643 52.4586 42.8712 55.0907 40.565C60.5062 35.8201 68.7404 37.1717 72.8753 43.0602L99.7812 81.3768Z" fill="#DF0D3D"/>
<path d="M253.142 43.0752C257.278 37.186 265.513 35.8348 270.928 40.5812C273.554 42.8825 276.108 45.2702 278.586 47.7415C293.765 62.8774 305.805 80.8469 314.02 100.623C320.601 116.466 324.624 133.221 325.964 150.264C326.515 157.284 320.739 163 313.678 163H267.105C260.044 163 254.414 157.263 253.438 150.29C250.679 130.587 241.597 112.904 228.302 99.3446C223.553 94.501 222.339 86.9424 226.236 81.3935L253.142 43.0752Z" fill="#DF0D3D"/>
<path d="M163 0C184.466 0 205.722 4.21661 225.554 12.408C231.192 14.7365 236.682 17.3738 242.003 20.3036C248.299 23.7702 249.823 31.9272 245.698 37.8018L218.832 76.0613C214.913 81.6427 207.316 83.0698 201.108 80.2231C189.51 74.9047 176.602 71.9386 163 71.9386C149.405 71.9386 136.504 74.9015 124.91 80.2146C118.703 83.0594 111.108 81.6318 107.189 76.0513L80.323 37.7908C76.1975 31.9157 77.7221 23.7578 84.0189 20.2917C89.3327 17.3667 94.8159 14.7333 100.446 12.408C120.278 4.21657 141.534 4.49579e-05 163 0Z" fill="#DF0D3D"/>
</g>
</svg>
