<svg viewBox="0 0 358 179" fill="none" xmlns="http://www.w3.org/2000/svg">
<g id="Subtract">
<path d="M109.265 89.3647C113.533 95.4594 112.202 103.762 107 109.08C92.4332 123.973 82.4818 143.398 79.459 165.043C78.3896 172.7 72.2247 179 64.4927 179H13.4927C5.76073 179 -0.564201 172.722 0.039981 165.014C1.50698 146.298 5.91204 127.898 13.1187 110.5C22.1143 88.7828 35.2989 69.0494 51.9205 52.4277C54.6407 49.7074 57.4446 47.0794 60.3269 44.5468C66.2571 39.3361 75.274 40.8205 79.8019 47.287L109.265 89.3647Z" fill="var(--fill-0, #D9D9D9)"/>
<path d="M277.203 47.3034C281.731 40.8362 290.749 39.3524 296.679 44.5646C299.554 47.0918 302.351 49.7139 305.065 52.4277C321.687 69.0494 334.871 88.7828 343.867 110.5C351.073 127.899 355.478 146.298 356.945 165.014C357.55 172.722 351.225 179 343.493 179H292.493C284.761 179 278.596 172.7 277.526 165.043C274.505 143.406 264.56 123.986 250.002 109.096C244.801 103.777 243.472 95.4766 247.739 89.3831L277.203 47.3034Z" fill="var(--fill-0, #D9D9D9)"/>
<path d="M178.493 0C201.999 0 225.276 4.63051 246.993 13.626C253.166 16.183 259.179 19.0792 265.005 22.2966C271.899 26.1035 273.568 35.0612 269.051 41.5124L239.632 83.5274C235.34 89.6567 227.021 91.2239 220.223 88.0977C207.522 82.2574 193.388 79 178.493 79C163.605 79.0001 149.478 82.2538 136.783 88.0884C129.985 91.2125 121.668 89.6447 117.377 83.5165L87.9575 41.5003C83.4399 35.0486 85.1094 26.0899 92.0047 22.2835C97.8235 19.0714 103.828 16.1795 109.993 13.626C131.71 4.63047 154.986 4.93709e-05 178.493 0Z" fill="#FFCC00"/>
</g>
</svg>
