<svg preserveAspectRatio="none" width="100%" height="100%" overflow="visible" style="display: block;" viewBox="0 0 36 36" fill="none" xmlns="http://www.w3.org/2000/svg">
<path id="image 56 (Traced)" fill-rule="evenodd" clip-rule="evenodd" d="M24.0676 0.465991C22.5322 1.57722 21.6976 2.28437 20.1651 3.77261C18.9048 4.99657 18.1955 5.77534 17.3272 6.88889C14.8438 10.0733 13.3932 13.4879 13.2927 16.386C13.1978 19.1211 14.1972 21.8186 16.6709 25.5049C16.8243 25.7334 16.8691 25.8092 16.851 25.8092C16.8414 25.8092 16.5693 25.6637 16.2464 25.4859C15.0431 24.823 13.5712 24.1816 12.5251 23.8641C11.9912 23.7021 10.9087 23.4592 10.3499 23.376C9.76321 23.2888 7.68232 23.2893 7.16926 23.3768C5.22575 23.7084 3.54572 24.4886 1.93125 25.8092C1.42035 26.227 0.333503 27.3078 0.0905449 27.6394L0 27.763L0.513567 27.7723C1.39152 27.7881 2.19457 27.9828 2.98019 28.3702C3.60533 28.6785 3.94278 28.9287 4.8351 29.7453C5.61379 30.458 6.49892 31.1975 7.00254 31.5562C7.34317 31.7989 8.33116 32.4374 8.36594 32.4374C8.38 32.4374 8.55149 32.5264 8.74705 32.6352C9.44658 33.024 10.4302 33.3754 11.3246 33.5561C12.2587 33.7447 14.1719 33.6265 15.4206 33.303C16.1341 33.1182 17.0411 32.7466 17.3502 32.5123C17.449 32.4375 17.449 32.4335 17.3542 32.2761C16.9196 31.5547 15.7116 30.2748 14.7451 29.5117C13.1265 28.2334 11.63 27.4175 10.0025 26.9258C8.81133 26.5659 7.88818 26.4381 6.64584 26.4611C6.1746 26.4698 5.80524 26.4617 5.82504 26.443C5.84489 26.4242 6.03424 26.3424 6.24586 26.261C7.44438 25.8004 9.31931 25.7597 10.9911 26.1582C12.7237 26.5712 14.4017 27.3503 15.6915 28.3406C16.7888 29.1832 17.758 30.3145 18.2769 31.3585L18.446 31.6986L18.5461 31.561C19.2023 30.6593 20.2091 28.7773 20.7811 27.3832C21.9544 24.5236 22.3185 21.8806 21.8666 19.5024C21.8252 19.2848 21.711 18.6838 21.6128 18.1669C21.3676 16.8762 21.1033 15.3623 20.9479 14.3581C20.4922 11.413 20.4062 9.24876 20.7019 8.17339C20.8701 7.56161 20.9143 7.56191 20.9167 8.17498C20.9227 9.73421 21.2106 11.3582 21.7454 12.8494C22.2477 14.2503 22.4655 14.9103 22.6346 15.5452C23.7395 19.6913 23.8248 23.8152 22.8619 26.5264C22.4716 27.6252 21.201 29.8128 20.233 31.0524C18.4283 33.3636 15.851 34.6715 10.8629 35.8072L10.0164 36L10.6833 35.9751C12.389 35.9115 14.6866 35.5092 16.4546 34.9647C20.4365 33.7384 23.3544 31.7951 25.4853 28.9502C26.0655 28.1756 26.306 27.7803 26.8399 26.7243C28.5404 23.3604 28.9288 20.262 28.074 16.8808C27.6901 15.3622 27.0858 13.92 25.5866 10.945C24.5478 8.88366 24.1913 8.02713 23.8985 6.88889C23.3474 4.74613 23.5821 2.37261 24.5342 0.458472C24.656 0.213622 24.7497 0.007403 24.7425 0.000181142C24.7353 -0.00704072 24.4316 0.202591 24.0676 0.465991ZM35.1535 6.35388C34.75 6.38767 33.6887 6.57351 33.0925 6.71473C31.9709 6.9805 31.1829 7.26992 30.574 7.63977C30.4253 7.73009 30.2922 7.80399 30.2782 7.80399C30.1947 7.80399 28.9112 8.75812 28.5186 9.11214C28.3963 9.22244 28.2212 9.37944 28.1296 9.46106C27.9187 9.64898 27.175 10.4184 26.8568 10.778L26.6142 11.0522L26.8971 11.5427C27.2337 12.1266 27.856 13.3376 27.9625 13.6161C28.0042 13.7249 28.144 14.0811 28.2733 14.4075C29.3037 17.0092 29.7033 19.9982 29.3511 22.4703L29.3229 22.6682L29.6993 22.2972C30.478 21.5297 31.2044 20.4384 31.642 19.3787C32.3375 17.6949 32.6057 15.7746 32.5436 12.9236C32.5088 11.3218 32.5473 10.8522 32.7708 10.1536C32.9573 9.57038 33.4267 8.7181 33.8193 8.24992C34.2719 7.71011 35.1954 6.89755 35.7307 6.56806C35.8788 6.4769 36 6.38381 36 6.3612C36 6.32163 35.5818 6.31802 35.1535 6.35388ZM34.384 20.0282C33.5902 20.2455 32.8828 20.6844 32.2543 21.3497C31.8728 21.7535 31.382 22.3593 31.4117 22.3897C31.4215 22.3998 31.5172 22.3413 31.6243 22.2598C31.942 22.0179 32.8216 21.4813 33.2073 21.2941C33.7763 21.0178 34.3325 20.8567 34.7421 20.8494C35.0482 20.8441 35.1377 20.8632 35.3384 20.977C35.4683 21.0507 35.6171 21.1563 35.6692 21.2118C35.7634 21.3121 35.7644 21.3114 35.8534 21.1001C35.9027 20.9831 35.9442 20.7611 35.9458 20.6068C35.9481 20.379 35.9252 20.2992 35.8235 20.1827C35.5867 19.9113 35.0295 19.8515 34.384 20.0282ZM33.0502 22.9903C32.7216 23.0385 32.0598 23.2049 31.6651 23.3384C31.1647 23.5076 30.1247 24.0216 29.594 24.3618C29.1384 24.654 28.4627 25.2303 28.3547 25.4189C28.3287 25.4642 28.6015 25.3538 28.9867 25.1632C30.9016 24.2154 33.1884 23.8451 34.4804 24.2737C34.8673 24.402 35.3194 24.6605 35.583 24.9041C35.7092 25.0207 35.8206 25.1083 35.8306 25.0987C35.8405 25.0891 35.8843 24.9168 35.9279 24.7157C36.0867 23.9839 35.8458 23.4576 35.2371 23.2058C34.7164 22.9905 33.7182 22.8921 33.0502 22.9903Z" fill="var(--fill-0, white)"/>
</svg>
