<svg preserveAspectRatio="none" width="100%" height="100%" overflow="visible" style="display: block;" viewBox="0 0 56 56" fill="none" xmlns="http://www.w3.org/2000/svg">
<g id="Vector">
<path d="M36.5314 54.6719C34.6765 55.2661 32.8004 55.6582 30.8849 55.8545C29.2824 56.0188 27.6771 56.0425 26.0686 55.933C23.0123 55.7248 20.0722 55.0284 17.2447 53.8544C9.36283 50.5816 3.41378 43.8802 1.06244 35.6275C0.544367 33.8091 0.225119 31.9561 0.081623 30.0703C-0.0469477 28.3806 -0.0261444 26.6934 0.161949 25.0117C0.7886 19.4089 2.87633 14.4133 6.48717 10.0819C10.2847 5.52653 15.0713 2.48852 20.7922 0.929908C22.3984 0.492319 24.0337 0.207868 25.6946 0.0863848C33.1071 -0.455778 39.7565 1.55093 45.5566 6.19542C50.5221 10.1716 53.7139 15.3161 55.2339 21.4939C55.5822 22.9098 55.7951 24.3493 55.9101 25.804C56.0168 27.1519 56.0318 28.5002 55.9374 29.8479C55.5917 34.7825 54.0773 39.3289 51.3418 43.452C48.3303 47.9912 44.3194 51.3631 39.3539 53.5977C38.4412 54.0084 37.5049 54.3596 36.5314 54.6719ZM18.6578 39.2114C18.5604 39.216 18.4581 39.203 18.3665 39.2285C18.0233 39.3238 17.6774 39.4147 17.3445 39.5394C16.9607 39.683 16.5882 39.852 16.2729 40.1317C16.0063 40.3683 15.7131 40.5746 15.4363 40.7999C15.0585 41.1073 14.7504 41.4795 14.4968 41.8916C14.2428 42.3042 14.3734 42.8124 14.7664 43.0368C15.1618 43.2626 15.612 43.1187 15.861 42.6944C16.0298 42.407 16.248 42.1615 16.515 41.9591C16.6785 41.8351 16.8414 41.7089 16.9936 41.5715C17.2546 41.336 17.5361 41.1358 17.8708 41.0214C18.1637 40.9213 18.4408 40.7555 18.7699 40.7991C19.0174 40.8318 19.2666 40.8538 19.5125 40.8957C19.6145 40.9131 19.723 40.9517 19.8059 41.012C20.1731 41.2792 20.535 41.554 20.8934 41.8331C21.3309 42.1739 21.7705 42.5087 22.2908 42.7194C22.7993 42.9254 23.3138 43.1053 23.8741 43.0394C24.1838 43.003 24.4985 42.9687 24.7968 42.8837C25.3275 42.7323 25.8588 42.5711 26.3685 42.3617C26.8457 42.1657 27.2846 41.8775 27.7593 41.6742C28.3564 41.4183 28.9623 41.1748 29.6429 41.2683C30.2409 41.3505 30.8007 41.4678 31.2845 41.8943C31.8704 42.4107 32.5525 42.7931 33.3269 42.971C33.7085 43.0587 34.0899 43.1391 34.4894 43.1294C35.2879 43.1099 36.0047 42.832 36.7101 42.4937C37.2249 42.2469 37.7451 42.0104 38.2711 41.7887C38.6076 41.6469 38.9555 41.5231 39.3354 41.596C39.5282 41.633 39.7275 41.6463 39.9143 41.7022C40.2134 41.7916 40.501 41.9072 40.7296 42.1407C40.9415 42.3571 41.1718 42.5555 41.3948 42.761C41.4799 42.8395 41.5786 42.906 41.6519 42.994C42.1026 43.5348 42.6798 43.8376 43.3732 43.9292C43.7773 43.9826 44.153 43.7348 44.2507 43.3494C44.3517 42.9515 44.1277 42.5452 43.7303 42.413C43.646 42.385 43.5514 42.3846 43.4706 42.3501C43.3002 42.2773 43.1101 42.2202 42.974 42.1032C42.6363 41.8129 42.324 41.493 42.0023 41.1841C41.7186 40.9117 41.4357 40.6411 41.0709 40.4719C40.6805 40.2908 40.2776 40.1711 39.854 40.0813C39.0844 39.9179 38.3623 40.0302 37.6593 40.3368C36.9562 40.6435 36.2572 40.9603 35.5633 41.2874C35.1314 41.4911 34.6783 41.5879 34.2119 41.5395C33.7036 41.4868 33.2128 41.3441 32.787 41.0384C32.5189 40.846 32.2516 40.6526 31.9865 40.4563C31.5577 40.1387 31.1022 39.8861 30.5581 39.8295C30.3988 39.8129 30.2423 39.771 30.0836 39.7467C29.668 39.6829 29.2534 39.6364 28.8314 39.7059C27.8934 39.8603 27.0311 40.2248 26.208 40.6775C25.445 41.0971 24.634 41.343 23.7812 41.4722C23.6863 41.4866 23.5821 41.4858 23.4898 41.4623C23.0989 41.3626 22.7174 41.2319 22.3914 40.9858C21.9927 40.685 21.6008 40.375 21.2107 40.0631C20.6844 39.6424 20.1144 39.3281 19.4246 39.2828C19.1843 39.267 18.9446 39.2414 18.6578 39.2114ZM19.3126 30.0677C20.2026 29.7473 21.0926 29.4268 21.9826 29.1064C22.7635 28.8254 23.5481 28.5542 24.3242 28.2605C24.9631 28.0187 25.0727 27.2469 24.5425 26.8137C24.4803 26.7628 24.4149 26.716 24.3506 26.6678C22.3652 25.1782 20.3798 23.6886 18.3943 22.199C17.9587 21.8722 17.5254 21.542 17.0862 21.22C16.7642 20.9841 16.3739 20.9919 16.0958 21.2264C15.6939 21.5653 15.7142 22.1397 16.1477 22.4751C16.5149 22.7591 16.8902 23.0327 17.2616 23.3112C18.9328 24.5649 20.6041 25.8185 22.2749 27.0729C22.3399 27.1217 22.3992 27.1781 22.4849 27.2513C22.3548 27.3014 22.2726 27.3351 22.189 27.3651C20.0558 28.1311 17.9224 28.8965 15.7894 29.6634C15.6975 29.6964 15.6041 29.7323 15.5218 29.7835C15.2241 29.9689 15.1073 30.2464 15.1621 30.586C15.214 30.9074 15.4168 31.1057 15.725 31.2026C15.9254 31.2657 16.112 31.2158 16.2995 31.1483C17.2902 30.7915 18.2815 30.436 19.3126 30.0677ZM36.6894 30.5983C36.9328 30.6864 37.1757 30.776 37.4199 30.8621C37.748 30.9779 38.0725 31.1078 38.4071 31.2007C38.8039 31.311 39.1888 31.0933 39.3313 30.7109C39.4695 30.34 39.2984 29.9224 38.9262 29.7427C38.7981 29.6809 38.6607 29.6381 38.5264 29.5898C36.4433 28.8407 34.3599 28.0923 32.2769 27.3432C32.2055 27.3176 32.1362 27.2861 32.0386 27.2462C32.1243 27.1741 32.1816 27.1207 32.2439 27.074C34.2583 25.5624 36.2733 24.0516 38.2874 22.5397C38.3657 22.4809 38.4444 22.4195 38.5097 22.3474C38.7306 22.1033 38.7617 21.817 38.6436 21.523C38.5226 21.2219 38.2832 21.0719 37.957 21.052C37.6724 21.0347 37.4693 21.1918 37.2607 21.3486C35.0041 23.0433 32.7466 24.7368 30.4895 26.4307C30.3109 26.5647 30.1262 26.6916 29.9562 26.8356C29.6009 27.1365 29.5425 27.6351 29.81 27.9915C29.9341 28.157 30.1117 28.2352 30.2991 28.3025C32.4166 29.0616 34.5335 29.8223 36.6894 30.5983ZM19.817 13.3225C19.446 13.2789 19.1796 13.4375 18.9924 13.7492C18.6461 14.3255 18.2332 14.8522 17.7922 15.3576C16.707 16.6011 15.4822 17.6938 14.1688 18.6879C12.8268 19.7036 11.4182 20.6131 9.87615 21.3001C9.54226 21.4489 9.19458 21.5663 8.85708 21.7074C8.29832 21.9408 8.17384 22.6282 8.61704 23.0222C8.86204 23.2401 9.1503 23.2764 9.44342 23.1585C10.0226 22.9254 10.6118 22.7078 11.1663 22.4241C14.1155 20.9155 16.6927 18.9168 18.9124 16.4586C19.4457 15.868 19.9207 15.2315 20.3431 14.5546C20.6328 14.0902 20.4323 13.4458 19.817 13.3225ZM39.9055 19.0172C39.9756 19.0725 40.0453 19.1284 40.1159 19.1832C41.6506 20.3765 43.2629 21.4464 45.0401 22.2483C45.4461 22.4315 45.8617 22.6024 46.2872 22.7318C46.8224 22.8946 47.3292 22.4427 47.2616 21.8893C47.2207 21.5551 47.0171 21.3524 46.7097 21.2271C46.1727 21.0082 45.6285 20.8012 45.1104 20.5429C43.4074 19.6936 41.8568 18.6108 40.3987 17.3931C39.3131 16.4864 38.291 15.514 37.4138 14.4004C37.1215 14.0294 36.8612 13.6325 36.5963 13.2406C36.2499 12.728 35.5425 12.727 35.2429 13.2521C35.0769 13.543 35.1155 13.8345 35.2887 14.1148C35.6794 14.7473 36.1269 15.3375 36.6153 15.897C37.6052 17.0311 38.7039 18.0508 39.9055 19.0172Z" fill="#F2333A"/>
<path d="M18.6812 39.2158C18.9446 39.2414 19.1843 39.267 19.4246 39.2828C20.1144 39.3281 20.6844 39.6424 21.2107 40.0631C21.6008 40.375 21.9927 40.685 22.3914 40.9858C22.7174 41.2319 23.0989 41.3626 23.4898 41.4623C23.5821 41.4858 23.6863 41.4866 23.7812 41.4722C24.634 41.343 25.445 41.0971 26.208 40.6775C27.0311 40.2248 27.8934 39.8603 28.8314 39.7059C29.2534 39.6364 29.668 39.6829 30.0836 39.7467C30.2423 39.771 30.3988 39.8129 30.5581 39.8295C31.1022 39.8861 31.5577 40.1387 31.9865 40.4563C32.2516 40.6526 32.5189 40.846 32.787 41.0384C33.2128 41.3441 33.7036 41.4868 34.2119 41.5395C34.6783 41.5879 35.1314 41.4911 35.5633 41.2874C36.2572 40.9603 36.9562 40.6435 37.6593 40.3368C38.3623 40.0302 39.0844 39.9179 39.854 40.0813C40.2776 40.1711 40.6805 40.2908 41.0709 40.4719C41.4357 40.6411 41.7186 40.9117 42.0023 41.1841C42.324 41.493 42.6363 41.8129 42.974 42.1032C43.1101 42.2202 43.3002 42.2773 43.4706 42.3501C43.5514 42.3846 43.646 42.385 43.7303 42.413C44.1277 42.5452 44.3517 42.9515 44.2507 43.3494C44.153 43.7348 43.7773 43.9826 43.3732 43.9292C42.6798 43.8376 42.1026 43.5348 41.6519 42.994C41.5786 42.906 41.4799 42.8395 41.3948 42.761C41.1718 42.5555 40.9415 42.3571 40.7296 42.1407C40.501 41.9072 40.2134 41.7916 39.9143 41.7022C39.7275 41.6463 39.5282 41.633 39.3354 41.596C38.9555 41.5231 38.6076 41.6469 38.2711 41.7887C37.7451 42.0104 37.2249 42.2469 36.7101 42.4937C36.0047 42.832 35.2879 43.1099 34.4894 43.1294C34.0899 43.1391 33.7085 43.0587 33.3269 42.971C32.5525 42.7931 31.8704 42.4107 31.2845 41.8943C30.8007 41.4678 30.2409 41.3505 29.6429 41.2683C28.9623 41.1748 28.3564 41.4183 27.7593 41.6742C27.2846 41.8775 26.8457 42.1657 26.3685 42.3617C25.8588 42.5711 25.3275 42.7323 24.7968 42.8837C24.4985 42.9687 24.1838 43.003 23.8741 43.0394C23.3138 43.1053 22.7993 42.9254 22.2908 42.7194C21.7705 42.5087 21.3309 42.1739 20.8934 41.8331C20.535 41.554 20.1731 41.2792 19.8059 41.012C19.723 40.9517 19.6145 40.9131 19.5125 40.8957C19.2666 40.8538 19.0174 40.8318 18.7699 40.7991C18.4408 40.7555 18.1637 40.9213 17.8708 41.0214C17.5361 41.1358 17.2546 41.336 16.9936 41.5715C16.8414 41.7089 16.6785 41.8351 16.515 41.9591C16.248 42.1615 16.0298 42.407 15.861 42.6944C15.612 43.1187 15.1618 43.2626 14.7664 43.0368C14.3734 42.8124 14.2428 42.3042 14.4968 41.8916C14.7504 41.4795 15.0585 41.1073 15.4363 40.7999C15.7131 40.5746 16.0063 40.3683 16.2729 40.1317C16.5882 39.852 16.9607 39.683 17.3445 39.5394C17.6774 39.4147 18.0233 39.3238 18.3665 39.2285C18.4581 39.203 18.5604 39.216 18.6812 39.2158Z" fill="var(--fill-0, #040101)"/>
<path d="M19.2925 30.0738C18.2815 30.436 17.2902 30.7915 16.2995 31.1483C16.112 31.2158 15.9254 31.2657 15.725 31.2026C15.4168 31.1057 15.214 30.9074 15.1621 30.586C15.1073 30.2464 15.2241 29.9689 15.5218 29.7835C15.6041 29.7323 15.6975 29.6964 15.7894 29.6634C17.9224 28.8965 20.0558 28.1311 22.189 27.3651C22.2726 27.3351 22.3548 27.3014 22.4849 27.2513C22.3992 27.1781 22.3399 27.1217 22.2749 27.0729C20.6041 25.8185 18.9328 24.5649 17.2616 23.3112C16.8902 23.0327 16.5149 22.7591 16.1477 22.4751C15.7142 22.1397 15.6939 21.5653 16.0958 21.2264C16.3739 20.9919 16.7642 20.9841 17.0862 21.22C17.5254 21.542 17.9587 21.8722 18.3943 22.199C20.3798 23.6886 22.3652 25.1782 24.3506 26.6678C24.4149 26.716 24.4803 26.7628 24.5425 26.8137C25.0727 27.2469 24.9631 28.0187 24.3242 28.2605C23.5481 28.5542 22.7635 28.8254 21.9826 29.1064C21.0926 29.4268 20.2026 29.7473 19.2925 30.0738Z" fill="var(--fill-0, #040101)"/>
<path d="M36.67 30.5904C34.5335 29.8223 32.4166 29.0616 30.2991 28.3025C30.1117 28.2352 29.9341 28.157 29.81 27.9915C29.5425 27.6351 29.6009 27.1365 29.9562 26.8356C30.1262 26.6916 30.3109 26.5647 30.4895 26.4307C32.7466 24.7368 35.0041 23.0433 37.2607 21.3486C37.4693 21.1918 37.6724 21.0347 37.957 21.052C38.2832 21.0719 38.5226 21.2219 38.6436 21.523C38.7617 21.817 38.7306 22.1033 38.5097 22.3474C38.4444 22.4195 38.3657 22.4809 38.2874 22.5397C36.2733 24.0516 34.2583 25.5624 32.2439 27.074C32.1816 27.1207 32.1243 27.1741 32.0386 27.2462C32.1362 27.2861 32.2055 27.3176 32.2769 27.3432C34.3599 28.0923 36.4433 28.8407 38.5264 29.5898C38.6607 29.6381 38.7981 29.6809 38.9262 29.7427C39.2984 29.9224 39.4695 30.34 39.3313 30.7109C39.1888 31.0933 38.8039 31.311 38.4071 31.2007C38.0725 31.1078 37.748 30.9779 37.4199 30.8621C37.1757 30.776 36.9328 30.6864 36.67 30.5904Z" fill="var(--fill-0, #040101)"/>
<path d="M19.8373 13.3272C20.4323 13.4458 20.6328 14.0902 20.3431 14.5546C19.9207 15.2315 19.4457 15.868 18.9124 16.4586C16.6927 18.9168 14.1155 20.9155 11.1663 22.4241C10.6118 22.7078 10.0226 22.9254 9.44342 23.1585C9.1503 23.2764 8.86204 23.2401 8.61704 23.0222C8.17384 22.6282 8.29832 21.9408 8.85708 21.7074C9.19458 21.5663 9.54226 21.4489 9.87615 21.3001C11.4182 20.6131 12.8268 19.7036 14.1688 18.6879C15.4822 17.6938 16.707 16.6011 17.7922 15.3576C18.2332 14.8522 18.6461 14.3255 18.9924 13.7492C19.1796 13.4375 19.446 13.2789 19.8373 13.3272Z" fill="var(--fill-0, #040101)"/>
<path d="M39.8909 19.0049C38.7039 18.0508 37.6052 17.0311 36.6153 15.897C36.1269 15.3375 35.6794 14.7473 35.2887 14.1148C35.1155 13.8345 35.0769 13.543 35.2429 13.2521C35.5425 12.727 36.2499 12.728 36.5963 13.2406C36.8612 13.6325 37.1215 14.0294 37.4138 14.4004C38.291 15.514 39.3131 16.4864 40.3987 17.3931C41.8568 18.6108 43.4074 19.6936 45.1104 20.5429C45.6285 20.8012 46.1727 21.0082 46.7097 21.2271C47.0171 21.3524 47.2207 21.5551 47.2616 21.8893C47.3292 22.4427 46.8224 22.8946 46.2872 22.7318C45.8617 22.6024 45.4461 22.4315 45.0401 22.2483C43.2629 21.4464 41.6506 20.3765 40.1159 19.1832C40.0453 19.1284 39.9756 19.0725 39.8909 19.0049Z" fill="var(--fill-0, #040101)"/>
</g>
</svg>
