<svg preserveAspectRatio="none" width="100%" height="100%" overflow="visible" style="display: block;" viewBox="0 0 56 56" fill="none" xmlns="http://www.w3.org/2000/svg">
<g id="Vector">
<path d="M29.4638 55.9634C28.4203 56.012 27.4018 56.0152 26.3854 55.955C24.3206 55.8329 22.2906 55.4943 20.301 54.9217C16.8894 53.9399 13.7703 52.3751 10.9553 50.2126C7.98575 47.9314 5.56869 45.1633 3.70531 41.9137C2.37279 39.59 1.39637 37.1242 0.771873 34.5197C0.473922 33.2771 0.263361 32.0196 0.141372 30.7469C0.0390155 29.679 -0.0168479 28.6093 0.00451826 27.5369C0.0685808 24.3218 0.648695 21.2034 1.77779 18.1901C2.72739 15.6557 4.013 13.3049 5.64552 11.1462C7.87632 8.19625 10.581 5.77448 13.7652 3.89163C16.3693 2.35172 19.1515 1.26403 22.1094 0.627802C23.2886 0.374159 24.4795 0.202654 25.6819 0.0995749C26.8141 0.00251928 27.9474 -0.0226716 29.0809 0.0200033C30.5904 0.0768306 32.0874 0.256131 33.5686 0.558398C36.1746 1.09022 38.6564 1.97202 41.0114 3.20835C43.0374 4.272 44.9061 5.56394 46.6135 7.08838C49.3933 9.57041 51.5994 12.4864 53.2195 15.8428C54.3519 18.1887 55.1433 20.6453 55.5829 23.2143C55.7864 24.4036 55.9097 25.5999 55.9691 26.8057C56.0197 27.834 56.0083 28.8608 55.9342 29.8845C55.5429 35.2919 53.7642 40.1978 50.559 44.575C48.1094 47.9202 45.0534 50.5793 41.4188 52.5731C38.8221 53.9976 36.0637 54.9732 33.1557 55.5233C32.0943 55.7242 31.0238 55.868 29.9435 55.9271C29.792 55.9354 29.6409 55.9506 29.4638 55.9634ZM19.6842 38.5923C20.3635 38.1733 21.0839 37.839 21.8378 37.5823C25.0208 36.4984 28.2632 36.3073 31.5555 36.9717C32.7076 37.2042 33.8146 37.5749 34.8372 38.1669C35.5806 38.5974 36.2401 39.1209 36.6705 39.8869C36.6922 39.9255 36.7204 39.9611 36.7494 39.9948C36.9737 40.2552 37.3408 40.3405 37.6507 40.2055C37.9672 40.0676 38.161 39.7502 38.1119 39.407C38.0923 39.2699 38.0376 39.1304 37.9687 39.0092C37.6742 38.4916 37.2838 38.052 36.8338 37.6647C35.8989 36.86 34.8151 36.3248 33.6593 35.9241C31.9303 35.3246 30.1408 35.0704 28.3196 35.0289C26.3719 34.9845 24.4509 35.1978 22.568 35.7093C21.1122 36.1048 19.7254 36.6614 18.4687 37.5114C18.0163 37.8175 17.5965 38.163 17.2131 38.5531C17.0404 38.7288 16.9445 38.9329 16.9613 39.1783C16.9834 39.5012 17.1466 39.7366 17.4474 39.8575C17.7589 39.9828 18.05 39.9251 18.287 39.6882C18.6999 39.2754 19.1551 38.9188 19.6842 38.5923ZM38.0335 22.4299C38.9995 22.0115 39.5149 21.1265 39.3404 20.1356C39.1862 19.2604 38.6594 18.684 37.8062 18.4623C36.9388 18.2369 36.1979 18.5062 35.6353 19.2038C35.114 19.8503 35.0575 20.7722 35.4609 21.4952C35.9552 22.3812 37.0248 22.795 38.0335 22.4299ZM16.0624 17.3515C15.6226 17.0759 15.1481 16.9647 14.6309 17.0399C13.7152 17.1731 12.977 17.9051 12.8619 18.7992C12.7383 19.7593 13.2275 20.6404 14.095 21.0199C14.9481 21.3931 15.9518 21.1513 16.5421 20.4301C17.3191 19.4809 17.1237 18.072 16.0624 17.3515ZM38.3669 13.2864C38.2529 13.6439 38.3692 13.9278 38.6349 14.175C39.8169 15.2753 40.9956 16.3792 42.1762 17.4811C42.2347 17.5356 42.2953 17.5903 42.3627 17.6324C42.6185 17.7916 42.8863 17.8043 43.1506 17.6614C43.4248 17.5132 43.5625 17.275 43.5629 16.9618C43.5632 16.7123 43.444 16.521 43.267 16.3559C42.0732 15.2421 40.8826 14.1247 39.6863 13.0136C39.2297 12.5895 38.6818 12.6926 38.3669 13.2864ZM15.0194 14.4207C15.0784 14.4005 15.1392 14.3843 15.1962 14.3595C15.5546 14.2031 15.746 13.83 15.6574 13.4643C15.5624 13.0721 15.2341 12.8318 14.8258 12.8649C14.7205 12.8735 14.6154 12.9019 14.5133 12.9317C13.2815 13.2918 12.0503 13.6534 10.8193 14.016C10.7255 14.0436 10.6304 14.0727 10.5432 14.1158C10.2546 14.2585 10.0928 14.5592 10.1196 14.8872C10.1455 15.2039 10.3703 15.4687 10.6825 15.5637C10.8724 15.6215 11.0524 15.586 11.234 15.5326C12.4821 15.1651 13.7303 14.798 15.0194 14.4207Z" fill="#EF8F39"/>
<path d="M19.6673 38.602C19.1551 38.9188 18.6999 39.2754 18.287 39.6882C18.05 39.9251 17.7589 39.9828 17.4474 39.8575C17.1466 39.7366 16.9834 39.5012 16.9613 39.1783C16.9445 38.9329 17.0404 38.7288 17.2131 38.5531C17.5965 38.163 18.0163 37.8175 18.4687 37.5114C19.7254 36.6614 21.1122 36.1048 22.568 35.7093C24.4509 35.1978 26.3719 34.9845 28.3196 35.0289C30.1408 35.0704 31.9303 35.3246 33.6593 35.9241C34.8151 36.3248 35.8989 36.86 36.8338 37.6647C37.2838 38.052 37.6742 38.4916 37.9687 39.0092C38.0376 39.1304 38.0923 39.2699 38.1119 39.407C38.161 39.7502 37.9672 40.0676 37.6507 40.2055C37.3408 40.3405 36.9737 40.2552 36.7494 39.9948C36.7204 39.9611 36.6922 39.9255 36.6705 39.8869C36.2401 39.1209 35.5806 38.5974 34.8372 38.1669C33.8146 37.5749 32.7076 37.2042 31.5555 36.9717C28.2632 36.3073 25.0208 36.4984 21.8378 37.5823C21.0839 37.839 20.3635 38.1733 19.6673 38.602Z" fill="var(--fill-0, #040201)"/>
<path d="M38.0143 22.4382C37.0248 22.795 35.9552 22.3812 35.4609 21.4952C35.0575 20.7722 35.114 19.8503 35.6353 19.2038C36.1979 18.5062 36.9388 18.2369 37.8062 18.4623C38.6594 18.684 39.1862 19.2604 39.3404 20.1356C39.5149 21.1265 38.9995 22.0115 38.0143 22.4382Z" fill="#030101"/>
<path d="M16.0786 17.3622C17.1237 18.072 17.3191 19.4809 16.5421 20.4301C15.9518 21.1513 14.9481 21.3931 14.095 21.0199C13.2275 20.6404 12.7383 19.7593 12.8619 18.7992C12.977 17.9051 13.7152 17.1731 14.6309 17.0399C15.1481 16.9647 15.6226 17.0759 16.0786 17.3622Z" fill="#020101"/>
<path d="M38.3734 13.2665C38.6818 12.6926 39.2297 12.5895 39.6863 13.0136C40.8826 14.1247 42.0732 15.2421 43.267 16.3559C43.444 16.521 43.5632 16.7123 43.5629 16.9618C43.5625 17.275 43.4248 17.5132 43.1506 17.6614C42.8863 17.8043 42.6185 17.7916 42.3627 17.6324C42.2953 17.5903 42.2347 17.5356 42.1762 17.4811C40.9956 16.3792 39.8169 15.2753 38.6349 14.175C38.3692 13.9278 38.2529 13.6439 38.3734 13.2665Z" fill="var(--fill-0, #040201)"/>
<path d="M14.9989 14.4257C13.7303 14.798 12.4821 15.1651 11.234 15.5326C11.0524 15.586 10.8724 15.6215 10.6825 15.5637C10.3703 15.4687 10.1455 15.2039 10.1196 14.8872C10.0928 14.5592 10.2546 14.2585 10.5432 14.1158C10.6304 14.0727 10.7255 14.0436 10.8193 14.016C12.0503 13.6534 13.2815 13.2918 14.5133 12.9317C14.6154 12.9019 14.7205 12.8735 14.8258 12.8649C15.2341 12.8318 15.5624 13.0721 15.6574 13.4643C15.746 13.83 15.5546 14.2031 15.1962 14.3595C15.1392 14.3843 15.0784 14.4005 14.9989 14.4257Z" fill="var(--fill-0, #040201)"/>
</g>
</svg>
