<svg preserveAspectRatio="none" width="100%" height="100%" overflow="visible" style="display: block;" viewBox="0 0 56 56" fill="none" xmlns="http://www.w3.org/2000/svg">
<g id="Vector">
<path d="M42.4682 51.9877C40.7796 53.0093 39.0193 53.831 37.1737 54.4727C35.5422 55.04 33.8727 55.4546 32.1653 55.7089C31.0084 55.8813 29.845 56.0008 28.673 55.9981C27.9146 55.9963 27.1547 56.013 26.3982 55.9724C25.1863 55.9073 23.9833 55.7529 22.7889 55.5283C20.9487 55.1821 19.1639 54.6513 17.4315 53.9456C15.0435 52.9728 12.8314 51.6942 10.7985 50.1052C9.7904 49.3173 8.83529 48.4711 7.9444 47.553C6.29397 45.8523 4.87655 43.9758 3.69987 41.9171C2.73444 40.2281 1.95009 38.4594 1.35405 36.6078C0.87443 35.1178 0.517307 33.5992 0.298853 32.0479C0.161797 31.0747 0.0545196 30.0996 0.0333527 29.1161C0.0260533 28.7769 -0.000415472 28.4378 4.95237e-06 28.0988C0.00155744 26.8474 0.0848499 25.6018 0.243535 24.3596C0.495779 22.385 0.966162 20.4648 1.6308 18.5908C2.29922 16.7061 3.16789 14.9179 4.22072 13.218C5.55102 11.07 7.15129 9.1448 9.00134 7.42849C10.5725 5.97091 12.2948 4.71685 14.1575 3.65545C15.8633 2.68348 17.6515 1.90131 19.5213 1.3058C20.9181 0.860905 22.3412 0.527422 23.7918 0.311025C24.7015 0.175323 25.6134 0.0627764 26.5335 0.0412681C27.3902 0.0212419 28.2487 -0.0209597 29.1039 0.0124543C31.4225 0.103057 33.6994 0.473396 35.9263 1.13469C37.6259 1.63937 39.2654 2.29425 40.8402 3.10906C42.7678 4.10643 44.5558 5.31103 46.2063 6.7221C47.0907 7.47826 47.9224 8.28889 48.706 9.14634C50.103 10.6749 51.3089 12.3453 52.3344 14.1457C53.2795 15.805 54.0457 17.5431 54.6353 19.3586C55.1188 20.8475 55.4752 22.3664 55.6971 23.9171C55.8339 24.8723 55.9441 25.8292 55.9653 26.7949C55.9759 27.2769 56.0042 27.7591 55.9995 28.241C55.9859 29.6355 55.8683 31.0211 55.6515 32.4001C55.3788 34.1348 54.9451 35.8264 54.3517 37.4771C53.4391 40.016 52.1859 42.3745 50.5921 44.5522C49.6188 45.8823 48.5393 47.1193 47.3479 48.2567C45.8632 49.674 44.2452 50.9195 42.4682 51.9877ZM32.663 34.2647C32.1334 35.2028 31.3723 35.91 30.4268 36.4008C28.1387 37.5886 25.7909 37.6652 23.4246 36.659C22.2441 36.157 21.2954 35.3605 20.678 34.2093C20.6611 34.1779 20.6417 34.1477 20.6207 34.1189C20.4354 33.865 20.1136 33.7399 19.8171 33.8161C19.494 33.8992 19.2921 34.1049 19.2217 34.4351C19.1717 34.6696 19.2501 34.8742 19.3625 35.073C20.0368 36.2662 21.0058 37.155 22.1999 37.8055C24.8357 39.2415 28.2644 39.2827 30.9379 37.9109C32.2299 37.2479 33.2884 36.3286 34.0156 35.0546C34.0641 34.9697 34.1107 34.8818 34.1429 34.7899C34.2988 34.3447 34.043 33.8836 33.5838 33.774C33.2157 33.6861 32.9137 33.8391 32.663 34.2647ZM37.0201 19.856C36.7331 20.2413 36.5902 20.6718 36.5966 21.1548C36.6095 22.118 37.275 22.9451 38.2193 23.1624C39.1451 23.3754 40.104 22.9273 40.5403 22.0779C40.9803 21.2213 40.7743 20.167 40.0487 19.542C39.1742 18.7888 37.8197 18.861 37.0201 19.856ZM15.7444 19.7544C15.2304 20.4631 15.1462 21.225 15.5482 21.998C15.939 22.7492 16.587 23.1374 17.4447 23.1155C18.3134 23.0933 18.9429 22.667 19.2949 21.8827C19.6534 21.0841 19.5292 20.3204 18.9594 19.6593C18.1124 18.6767 16.5906 18.7103 15.7444 19.7544Z" fill="#737A82"/>
<path d="M32.6727 34.2477C32.9137 33.8391 33.2157 33.6861 33.5838 33.774C34.043 33.8836 34.2988 34.3447 34.1429 34.7899C34.1107 34.8818 34.0641 34.9697 34.0156 35.0546C33.2884 36.3286 32.2299 37.2479 30.9379 37.9109C28.2644 39.2827 24.8357 39.2415 22.1999 37.8055C21.0058 37.155 20.0368 36.2662 19.3625 35.073C19.2501 34.8742 19.1717 34.6696 19.2217 34.4351C19.2921 34.1049 19.494 33.8992 19.8171 33.8161C20.1136 33.7399 20.4354 33.865 20.6207 34.1189C20.6417 34.1477 20.6611 34.1779 20.678 34.2093C21.2954 35.3605 22.2441 36.157 23.4246 36.659C25.7909 37.6652 28.1387 37.5886 30.4268 36.4008C31.3723 35.91 32.1334 35.2028 32.6727 34.2477Z" fill="#020301"/>
<path d="M37.0317 19.8407C37.8197 18.861 39.1742 18.7888 40.0487 19.542C40.7743 20.167 40.9803 21.2213 40.5403 22.0779C40.104 22.9273 39.1451 23.3754 38.2193 23.1624C37.275 22.9451 36.6095 22.118 36.5966 21.1548C36.5902 20.6718 36.7331 20.2413 37.0317 19.8407Z" fill="#020201"/>
<path d="M15.756 19.7392C16.5906 18.7103 18.1124 18.6767 18.9594 19.6593C19.5292 20.3204 19.6534 21.0841 19.2949 21.8827C18.9429 22.667 18.3134 23.0933 17.4447 23.1155C16.587 23.1374 15.939 22.7492 15.5482 21.998C15.1462 21.225 15.2304 20.4631 15.756 19.7392Z" fill="var(--fill-0, #010201)"/>
</g>
</svg>
