<svg preserveAspectRatio="none" width="100%" height="100%" overflow="visible" style="display: block;" viewBox="0 0 56 56" fill="none" xmlns="http://www.w3.org/2000/svg">
<g id="Vector">
<path d="M13.2591 51.8229C12.0226 51.0628 10.8731 50.2156 9.78613 49.285C8.55569 48.2316 7.42713 47.0774 6.39567 45.8265C5.34125 44.5478 4.40855 43.1868 3.59498 41.7444C2.86963 40.4585 2.25283 39.1213 1.73966 37.736C1.15816 36.1662 0.720719 34.5572 0.426493 32.9102C0.261682 31.9877 0.131264 31.0589 0.0859891 30.1217C0.0446362 29.2658 -0.00734187 28.4085 0.000862797 27.5523C0.011038 26.4907 0.098242 25.432 0.234171 24.3767C0.48383 22.4385 0.937779 20.5513 1.58329 18.7086C2.25631 16.7873 3.13277 14.9637 4.20362 13.2327C5.5373 11.0769 7.14217 9.1443 8.9987 7.4221C10.4504 6.07543 12.0338 4.90219 13.7379 3.89263C15.5667 2.80921 17.4942 1.94633 19.5189 1.3016C20.9158 0.856814 22.3388 0.5231 23.7895 0.307874C24.6992 0.172927 25.6108 0.0586444 26.531 0.0382393C27.3877 0.0192418 28.2456 -0.0173913 29.1013 0.00956343C30.3052 0.0474929 31.5035 0.176206 32.6919 0.381479C34.3313 0.66464 35.9354 1.08296 37.4999 1.64955C39.4043 2.33925 41.2126 3.22508 42.9283 4.30351C45.0747 5.65271 46.99 7.27739 48.7027 9.1417C49.5613 10.0763 50.344 11.0737 51.0632 12.1208C51.8995 13.3383 52.6405 14.6108 53.274 15.9446C54.2398 17.9779 54.9611 20.0948 55.4138 22.3015C55.6094 23.2549 55.7567 24.2154 55.8531 25.1845C55.9468 26.1272 56.004 27.0711 55.9998 28.0183C55.9936 29.3859 55.8925 30.7457 55.6954 32.1C55.4308 33.9177 54.988 35.6898 54.3705 37.4177C53.4535 39.9836 52.19 42.3664 50.5787 44.5651C49.5832 45.9235 48.4796 47.1865 47.256 48.3417C45.6258 49.8807 43.8394 51.2115 41.8917 52.3253C40.0697 53.3673 38.1544 54.1909 36.1485 54.8039C34.7811 55.2218 33.3894 55.5317 31.9723 55.7302C30.8396 55.8888 29.7039 56.0006 28.5592 55.9982C27.8545 55.9966 27.1484 56.0122 26.4455 55.9736C25.0458 55.8967 23.6583 55.7148 22.2842 55.4285C20.5219 55.0612 18.8128 54.5255 17.1527 53.8333C15.8066 53.272 14.5161 52.6005 13.2591 51.8229ZM20.5427 39.9829C24.6225 39.9361 28.7023 39.8894 32.7821 39.8424C32.8713 39.8414 32.9613 39.845 33.0496 39.8349C33.4498 39.7889 33.7526 39.4455 33.7477 39.0482C33.7426 38.6386 33.4192 38.3042 33.0031 38.2806C32.923 38.276 32.8424 38.2788 32.7621 38.2796C28.6287 38.3239 24.4953 38.3682 20.3619 38.4132C19.9066 38.4182 19.4513 38.4259 18.9961 38.4356C18.6587 38.4427 18.4164 38.6062 18.2832 38.9124C18.0581 39.43 18.4337 39.9871 19.0161 39.9946C19.507 40.001 19.9981 39.9881 20.5427 39.9829ZM37.6527 22.9419C37.7246 22.9774 37.7949 23.0169 37.8687 23.048C38.7923 23.4374 39.8652 23.1119 40.4196 22.2752C40.9795 21.4303 40.852 20.3061 40.1169 19.606C39.39 18.9138 38.2717 18.8356 37.4592 19.4251C36.2328 20.3147 36.3204 22.1503 37.6527 22.9419ZM15.625 20.4193C15.6145 20.3947 15.6042 20.37 15.5934 20.3455C15.1866 19.4212 14.31 18.9334 13.3205 19.0807C12.4094 19.2164 11.691 19.9706 11.5868 20.9328C11.4434 22.2563 12.6044 23.4783 14.0757 23.1859C15.3354 22.9355 16.0328 21.6837 15.625 20.4193Z" fill="#FFDE45"/>
<path d="M20.5159 39.9833C19.9981 39.9881 19.507 40.001 19.0161 39.9946C18.4337 39.9871 18.0581 39.43 18.2832 38.9124C18.4164 38.6062 18.6587 38.4427 18.9961 38.4356C19.4513 38.4259 19.9066 38.4182 20.3619 38.4132C24.4953 38.3682 28.6287 38.3239 32.7621 38.2796C32.8424 38.2788 32.923 38.276 33.0031 38.2806C33.4192 38.3042 33.7426 38.6386 33.7477 39.0482C33.7526 39.4455 33.4498 39.7889 33.0496 39.8349C32.9613 39.845 32.8713 39.8414 32.7821 39.8424C28.7023 39.8894 24.6225 39.9361 20.5159 39.9833Z" fill="#040301"/>
<path d="M37.6358 22.9319C36.3204 22.1503 36.2328 20.3147 37.4592 19.4251C38.2717 18.8356 39.39 18.9138 40.1169 19.606C40.852 20.3061 40.9795 21.4303 40.4196 22.2752C39.8652 23.1119 38.7923 23.4374 37.8687 23.048C37.7949 23.0169 37.7246 22.9774 37.6358 22.9319Z" fill="#030201"/>
<path d="M15.6308 20.4398C16.0328 21.6837 15.3354 22.9355 14.0757 23.1859C12.6044 23.4783 11.4434 22.2563 11.5868 20.9328C11.691 19.9706 12.4094 19.2164 13.3205 19.0807C14.31 18.9334 15.1866 19.4212 15.5934 20.3455C15.6042 20.37 15.6145 20.3947 15.6308 20.4398Z" fill="var(--fill-0, #020201)"/>
</g>
</svg>
