<svg preserveAspectRatio="none" width="100%" height="100%" overflow="visible" style="display: block;" viewBox="0 0 56 56" fill="none" xmlns="http://www.w3.org/2000/svg">
<g id="Vector">
<path d="M27.47 55.9969C23.8748 55.9395 20.447 55.2032 17.1568 53.826C14.5341 52.7282 12.1364 51.258 9.96163 49.4246C7.37979 47.248 5.2587 44.6891 3.60086 41.7479C2.16462 39.1999 1.15177 36.492 0.566765 33.6249C0.260851 32.1256 0.0822195 30.6122 0.0221641 29.0825C-0.128101 25.2552 0.486142 21.5553 1.85126 17.9795C2.97352 15.0397 4.55076 12.3653 6.57961 9.96139C8.86956 7.24805 11.5752 5.04226 14.7009 3.35359C17.3072 1.94547 20.0687 0.978948 22.9805 0.444758C24.1404 0.231976 25.3097 0.0834681 26.4897 0.0422504C27.1321 0.0198125 27.7753 -0.00633854 28.4177 0.00138132C30.8591 0.0307201 33.2549 0.382726 35.6049 1.04704C38.4468 1.85037 41.0992 3.06712 43.5505 4.71306C47.4059 7.30187 50.4426 10.6402 52.6524 14.727C54.0701 17.3491 55.0355 20.1311 55.5615 23.0641C55.7807 24.2867 55.9105 25.5198 55.9697 26.7622C56.0191 27.7997 56.0078 28.8352 55.9377 29.869C55.7331 32.8863 55.066 35.7995 53.9174 38.5993C52.7303 41.4928 51.1127 44.1207 49.0448 46.4687C45.7801 50.1756 41.8129 52.8398 37.1522 54.4705C35.2831 55.1245 33.3634 55.5709 31.3976 55.8007C30.565 55.898 29.7252 55.9389 28.8876 55.9853C28.4247 56.0109 27.9595 55.9948 27.47 55.9969ZM30.1859 42.4597C30.3962 42.3246 30.6127 42.1983 30.8158 42.0532C32.3492 40.9576 33.4266 39.5064 34.1316 37.7695C34.7879 36.1526 35.0267 34.4663 34.9196 32.7316C34.8878 32.2164 34.8023 31.7032 34.7162 31.1933C34.6552 30.8325 34.4245 30.6077 34.0546 30.5503C33.9143 30.5285 33.7707 30.5152 33.6288 30.5167C32.8877 30.5246 32.1467 30.5405 31.4056 30.55C29.9233 30.569 28.441 30.5863 26.9587 30.6032C25.1281 30.624 23.2974 30.6426 21.4668 30.664C20.2613 30.6781 19.0559 30.6976 17.8504 30.7097C17.6249 30.712 17.4299 30.7691 17.2671 30.9303C17.1004 31.0953 17.0204 31.3008 16.987 31.5252C16.9608 31.7016 16.9446 31.8801 16.9347 32.0583C16.8578 33.4416 16.968 34.8059 17.3552 36.1418C17.9753 38.2815 19.0804 40.1142 20.8051 41.5449C22.1742 42.6806 23.7406 43.3735 25.5221 43.5212C27.1694 43.6578 28.7167 43.3069 30.1859 42.4597ZM14.2442 19.4788C14.2093 19.4714 14.1743 19.4641 14.1395 19.4564C12.662 19.1303 11.3544 20.3567 11.6129 21.844C11.763 22.7077 12.2862 23.274 13.1284 23.5026C13.9758 23.7326 14.708 23.4843 15.2683 22.8173C16.2162 21.6889 15.7231 19.9582 14.2442 19.4788ZM39.0079 19.809C38.9743 19.8506 38.9384 19.8907 38.9074 19.9342C38.3898 20.6629 38.3878 21.6433 38.914 22.3671C39.4485 23.1025 40.3108 23.3985 41.1919 23.1526C42.2651 22.8531 42.8987 21.7463 42.6442 20.6577C42.4091 19.6524 41.4237 18.9619 40.4003 19.0712C39.848 19.1302 39.3992 19.3712 39.0079 19.809Z" fill="#4CBF71"/>
<path d="M30.1687 42.4689C28.7167 43.3069 27.1694 43.6578 25.5221 43.5212C23.7406 43.3735 22.1742 42.6806 20.8051 41.5449C19.0804 40.1142 17.9753 38.2815 17.3552 36.1418C16.968 34.8059 16.8578 33.4416 16.9347 32.0583C16.9446 31.8801 16.9608 31.7016 16.987 31.5252C17.0204 31.3008 17.1004 31.0953 17.2671 30.9303C17.4299 30.7691 17.6249 30.712 17.8504 30.7097C19.0559 30.6976 20.2613 30.6781 21.4668 30.664C23.2974 30.6426 25.1281 30.624 26.9587 30.6032C28.441 30.5863 29.9233 30.569 31.4056 30.55C32.1467 30.5405 32.8877 30.5246 33.6288 30.5167C33.7707 30.5152 33.9143 30.5285 34.0546 30.5503C34.4245 30.6077 34.6552 30.8325 34.7162 31.1933C34.8023 31.7032 34.8878 32.2164 34.9196 32.7316C35.0267 34.4663 34.7879 36.1526 34.1316 37.7695C33.4266 39.5064 32.3492 40.9576 30.8158 42.0532C30.6127 42.1983 30.3962 42.3246 30.1687 42.4689ZM33.3801 33.643C33.3835 33.127 33.3705 32.6125 33.2676 32.1008C33.2127 32.0938 33.1782 32.0851 33.1439 32.0855C31.4916 32.1075 29.8394 32.133 28.1871 32.1523C25.7754 32.1805 23.3637 32.2033 20.952 32.2304C20.2018 32.2388 19.4516 32.2529 18.7015 32.2664C18.6343 32.2676 18.5674 32.2839 18.4867 32.295C18.4711 32.8226 18.4701 33.3289 18.518 33.8369C18.6594 35.3358 19.0894 36.7419 19.8564 38.0386C20.7488 39.5475 21.9542 40.7219 23.5759 41.4285C24.7319 41.9322 25.9379 42.1122 27.1891 41.8985C28.9647 41.5952 30.3754 40.6823 31.4729 39.2766C32.7511 37.6396 33.3143 35.7508 33.3801 33.643Z" fill="#010201"/>
<path d="M14.2646 19.4862C15.7231 19.9582 16.2162 21.6889 15.2683 22.8173C14.708 23.4843 13.9758 23.7326 13.1284 23.5026C12.2862 23.274 11.763 22.7077 11.6129 21.844C11.3544 20.3567 12.662 19.1303 14.1395 19.4564C14.1743 19.4641 14.2093 19.4714 14.2646 19.4862Z" fill="#010201"/>
<path d="M39.0204 19.7946C39.3992 19.3712 39.848 19.1302 40.4003 19.0712C41.4237 18.9619 42.4091 19.6524 42.6442 20.6577C42.8987 21.7463 42.2651 22.8531 41.1919 23.1526C40.3108 23.3985 39.4485 23.1025 38.914 22.3671C38.3878 21.6433 38.3898 20.6629 38.9074 19.9342C38.9384 19.8907 38.9743 19.8506 39.0204 19.7946Z" fill="#010201"/>
<path d="M33.3799 33.6692C33.3143 35.7508 32.7511 37.6396 31.4729 39.2766C30.3754 40.6823 28.9647 41.5952 27.1891 41.8985C25.9379 42.1122 24.7319 41.9322 23.5759 41.4285C21.9542 40.7219 20.7488 39.5475 19.8564 38.0386C19.0894 36.7419 18.6594 35.3358 18.518 33.8369C18.4701 33.3289 18.4711 32.8226 18.4867 32.295C18.5674 32.2839 18.6343 32.2676 18.7015 32.2664C19.4516 32.2529 20.2018 32.2388 20.952 32.2304C23.3637 32.2033 25.7754 32.1805 28.1871 32.1523C29.8394 32.133 31.4916 32.1075 33.1439 32.0855C33.1782 32.0851 33.2127 32.0938 33.2676 32.1008C33.3705 32.6125 33.3835 33.127 33.3799 33.6692Z" fill="var(--fill-0, #4CBE71)"/>
</g>
</svg>
