<svg preserveAspectRatio="none" width="100%" height="100%" overflow="visible" style="display: block;" viewBox="0 0 309 85" fill="none" xmlns="http://www.w3.org/2000/svg">
<g id="Group 47">
<path id="Vector" d="M221 50.1856C218.973 50.6086 217.06 51.2741 215.099 51.7979C206.677 54.0469 198.208 56.1501 189.572 57.7216C183.533 58.8205 177.425 59.578 171.31 60.2883C163.13 61.2384 154.899 61.3382 146.659 61.4744C140.08 61.5832 133.485 61.443 126.923 61.9991C123.785 62.265 120.681 62.722 117.571 63.5415C117.852 64.0055 118.296 64.1772 118.663 64.409C121.336 66.0955 123.126 68.1657 123.607 71.1124C124.348 75.6527 119.89 79.1497 114.69 77.8726C112.466 77.3264 110.322 76.5155 109.064 74.7723C107.321 72.3576 107.756 69.8432 109.188 67.4394C110.053 65.9881 111.452 64.9054 113.064 64.0328C113.274 63.9191 113.54 63.8522 113.622 63.6024C113.476 63.2912 113.1 63.2881 112.808 63.1998C108.065 61.7665 103.138 61.1262 98.1582 60.6492C92.1743 60.0761 86.1782 60.2152 80.1871 60.3179C74.3072 60.4186 68.4352 60.7347 62.5764 61.2128C55.7336 61.7712 48.9023 62.4058 42.1875 63.694C30.247 65.9847 18.8679 69.5886 8.05992 74.4837C5.7556 75.5273 3.29706 76.3228 1.1388 77.6016C0.805588 77.799 0.439898 77.8719 0.157156 77.5599C-0.16714 77.202 0.0563432 76.8923 0.411775 76.678C0.980634 76.3351 1.55917 75.9948 2.17312 75.7166C10.0732 72.1375 18.1293 68.8462 26.5889 66.3271C34.9031 63.8513 43.4038 62.0397 52.1581 61.087C59.4893 60.2892 66.8323 59.6882 74.2174 59.3943C79.2904 59.1925 84.3621 58.9741 89.4378 59.0758C98.1436 59.2502 106.76 59.9612 114.977 62.6774C115.456 62.8358 115.884 62.8136 116.364 62.6827C120.695 61.5018 125.143 60.9447 129.681 60.716C136.151 60.39 142.625 60.4698 149.097 60.3474C155.785 60.2208 162.48 60.0986 169.133 59.4127C183.434 57.9383 197.468 55.4127 211.179 51.6213C214.396 50.7317 217.624 49.8692 220.923 48.9727C221 49.3352 221 49.7192 221 50.1856ZM120.077 76.1476C121.754 75.0684 122.316 73.5816 122.284 71.8561C122.217 68.1811 119.535 66.0866 116.138 64.411C115.7 64.1947 115.294 64.2641 114.883 64.448C112.921 65.326 111.25 66.4789 110.219 68.1887C109.239 69.8133 108.902 71.563 109.619 73.2854C110.748 76.0004 116.684 78.1563 120.077 76.1476Z" fill="var(--fill-0, #5B4D31)"/>
<g id="Vector_2">
<path d="M280.912 64.7432C280.912 73.2984 271.423 78.2485 256.389 81.8233C236.212 81.8233 230.661 73.0841 233.832 65.5374C238.97 45.2752 244.509 45.6773 257.175 49.6499C269.629 49.6499 280.912 56.1879 280.912 64.7432Z" fill="#FFC2FD"/>
<path d="M284.464 65.5375C277.609 70.6196 274.113 60.871 262.319 50.8528C234.22 42.1029 254.404 23.0374 252.828 0.796575C267.458 -1.58863 280.525 25.0265 284.464 36.5421C291.862 46.6007 299.121 44.092 284.464 65.5375Z" fill="#FFC2FD"/>
<path d="M244.112 34.9514C245.298 23.831 251.865 15.8877 251.86 14.654C252.509 14.5598 254.201 22.5793 255.641 32.5661C257.08 42.5529 257.721 50.7253 257.072 50.8195C256.423 50.9137 249.063 44.3411 244.112 34.9514Z" fill="#FFC2FD"/>
<path d="M292.422 16.2794C305.082 8.73474 305.91 11.5489 307.061 11.1166C307.374 11.6951 297.657 53.9723 288.823 58.785C279.989 63.5978 281.554 34.0645 281.241 33.4861C280.928 32.9076 283.322 23.0318 292.422 16.2794Z" fill="#FFC2FD"/>
<path d="M286.845 58.7856C273.566 65.1688 284.077 53.9151 282.892 54.2427C282.632 53.6387 295.816 15.5217 305.041 11.5175C314.267 7.51334 304.386 32.7416 304.646 33.3457C304.906 33.9498 296.507 52.8732 286.845 58.7856Z" fill="#FFC2FD"/>
<path d="M259.75 14.7257C257.301 20.0205 249.817 21.1768 249.657 21.8455C249.115 21.5113 250.569 14.9785 250.727 8.73715C250.884 2.49579 252.281 0.856587 252.823 1.19086C253.364 1.52514 256.965 6.72208 259.75 14.7257Z" fill="#FFC2FD"/>
<path d="M241.168 79.9585C238.12 78.4683 235.573 76.4626 233.714 73.6439C233.404 73.1735 233.297 72.6611 233.212 72.1358C232.799 69.5724 233.185 67.0601 233.793 64.58C235.071 59.3683 237.238 54.561 240.517 50.2781C240.808 49.8978 241.151 49.5557 241.431 49.1677C242.463 47.7358 243.949 47.2889 245.618 47.1144C248.315 46.8322 250.943 47.207 253.72 47.8339C252.494 46.915 251.413 46.055 250.424 45.0913C247.548 42.2881 245.117 39.1933 243.886 35.2935C243.608 34.4123 243.644 33.5715 243.861 32.7043C244.912 28.4896 246.386 24.4375 248.423 20.5859C249.163 19.1849 249.385 17.6075 249.597 16.0522C249.942 13.5291 249.98 10.9806 250.198 8.44716C250.348 6.71523 250.236 4.96592 250.599 3.2478C251.075 0.992906 252.072 0.137538 254.407 0.0143273C256.156 -0.0779427 257.797 0.277174 259.377 1.03015C263.617 3.05077 267.097 6.03591 270.201 9.48345C275.157 14.9893 278.828 21.2923 281.692 28.0847C281.771 28.2718 281.809 28.4908 282.038 28.6369C282.43 27.8845 282.784 27.122 283.21 26.4021C286.47 20.898 290.991 16.6624 296.484 13.426C298.982 11.9535 301.631 10.8413 304.53 10.4183C305.639 10.2565 306.75 10.265 307.857 10.4688C308.314 10.5529 308.555 10.7954 308.644 11.253C309.09 13.5311 309.084 15.8201 308.808 18.1116C307.669 27.5611 304.067 36.163 299.615 44.4662C297.793 47.8654 295.705 51.1034 293.466 54.2448C293.389 54.3526 293.32 54.4655 293.31 54.6573C293.556 54.4763 293.802 54.2948 294.048 54.1143C296.096 52.6148 298.279 51.3924 300.798 50.871C301.514 50.7228 302.238 50.611 302.972 50.7547C303.265 50.8122 303.584 50.8885 303.509 51.2792C303.445 51.6109 303.174 51.6234 302.872 51.5917C301.181 51.4142 299.64 51.953 298.155 52.6595C294.941 54.1896 292.207 56.3076 290.198 59.2797C290.048 59.5015 289.914 59.7352 289.786 59.9711C289.369 60.7455 289.371 60.7469 290.065 61.4609C291.174 60.5869 292.344 59.7901 293.599 59.1249C297.494 57.0596 301.571 55.5107 305.958 54.8648C306.698 54.7558 307.451 54.7058 308.198 54.8406C308.46 54.8879 308.705 54.9908 308.673 55.3094C308.643 55.6192 308.402 55.7028 308.125 55.6875C304.685 55.4974 301.536 56.6363 298.414 57.841C295.772 58.8603 293.236 60.0979 290.991 61.8563C290.548 62.2031 290.184 62.5857 289.999 63.1538C289.813 63.727 289.343 64.0921 288.759 64.2659C288.52 64.3373 288.363 64.4513 288.244 64.6735C286.024 68.8262 282.611 71.7435 278.508 73.9289C278.047 74.1743 277.704 74.4712 277.429 74.9109C275.625 77.7977 273.539 80.4687 271.162 82.9115C270.559 83.5311 269.907 84.0991 269.193 84.5903C269.005 84.7196 268.796 84.8284 268.582 84.9096C267.813 85.2019 267.263 84.7604 267.402 83.943C267.468 83.55 267.594 83.1616 267.736 82.7876C268.396 81.0514 269.423 79.5257 270.521 78.0424C270.675 77.8336 270.819 77.6165 270.941 77.3765C269.151 78.4032 267.329 79.3384 265.405 80.068C261.766 81.4478 258.012 82.2282 254.113 82.3827C249.618 82.5609 245.313 81.8212 241.168 79.9585ZM252.679 1.27535C252.207 1.51538 251.938 1.92699 251.735 2.39223C251.279 3.43359 251.231 4.5504 251.181 5.65447C251.029 9.07441 250.85 12.4932 250.457 15.8941C250.236 17.8127 249.877 19.7075 248.945 21.4515C247.148 24.8116 245.865 28.3735 244.893 32.0464C244.652 32.9565 244.293 33.8711 244.623 34.8541C244.909 35.7081 245.194 36.5602 245.601 37.3669C247.511 41.1595 250.32 44.1875 253.671 46.75C254.616 47.4723 255.547 48.2914 256.658 48.6808C261.466 50.3666 265.918 52.7055 270.042 55.6706C274.188 58.6512 277.877 62.0908 280.715 66.369C280.805 66.5049 280.861 66.691 281.073 66.7066C282.36 65.6126 283.646 64.5193 284.932 63.4277C285.137 63.254 285.194 63.0099 285.261 62.7709C285.83 60.7169 286.171 58.618 286.276 56.4977C286.486 52.2817 286.268 48.0857 285.516 43.92C283.701 33.8731 279.997 24.5776 274.284 16.1046C270.294 10.1859 265.552 5.01339 259.014 1.77008C257.011 0.776367 254.92 0.528554 252.679 1.27535ZM238.468 54.9365C236.002 59.5353 234.183 64.3348 233.904 69.6063C233.814 71.3009 234.024 72.8788 235.193 74.2823C236.949 76.3906 239.058 78.0012 241.522 79.1632C245.553 81.0644 249.825 81.6955 254.254 81.5264C259.314 81.3331 264.072 80.0344 268.55 77.7085C270.289 76.805 272.044 75.8635 273.393 74.4275C275.548 72.1342 277.695 69.8382 280.023 67.7171C280.302 67.4633 280.277 67.2685 280.094 66.982C279.609 66.222 279.096 65.4819 278.535 64.7763C275.115 60.4781 270.949 57.026 266.272 54.1791C261.329 51.1712 256.102 48.8596 250.305 48.0498C248.257 47.7637 246.21 47.7415 244.177 48.2184C243.616 48.3501 243.158 48.6024 242.749 49.0146C241.029 50.7461 239.705 52.7571 238.468 54.9365ZM284.82 37.1245C286.942 44.9342 287.987 52.8284 286.565 61.0576C286.828 60.8187 286.949 60.724 287.052 60.6125C287.65 59.964 288.259 59.3247 288.837 58.6584C292.789 54.1026 296.103 49.1123 298.992 43.8352C301.565 39.1357 303.729 34.2544 305.423 29.175C306.746 25.2095 307.761 21.1664 308.07 16.983C308.198 15.2467 308.212 13.5014 307.885 11.7737C307.829 11.4773 307.715 11.2597 307.39 11.2354C306.797 11.1911 306.212 11.0888 305.609 11.1381C302.896 11.3604 300.403 12.274 298.021 13.5252C294.013 15.6304 290.54 18.4178 287.556 21.8028C285.504 24.1317 283.752 26.6629 282.603 29.57C282.497 29.8357 282.484 30.0542 282.588 30.3308C283.421 32.5334 284.198 34.755 284.82 37.1245Z" fill="var(--fill-0, #5B4D31)"/>
</g>
</g>
</svg>
