<svg preserveAspectRatio="none" width="100%" height="100%" overflow="visible" style="display: block;" viewBox="0 0 14 23" fill="none" xmlns="http://www.w3.org/2000/svg">
<g id="Vector">
<path d="M6.2379 6.77521C6.24375 6.85726 6.24895 6.93936 6.25558 7.02135C6.27183 7.22211 6.28657 7.42302 6.3059 7.6235C6.33256 7.89997 6.36498 8.1759 6.39095 8.45243C6.40978 8.65297 6.41919 8.85436 6.43807 9.0549C6.47069 9.40133 6.50825 9.74731 6.54204 10.0936C6.55864 10.2637 6.57282 10.4341 6.58562 10.6045C6.60346 10.8419 6.61926 11.0795 6.63531 11.317C6.64004 11.387 6.64328 11.4572 6.64619 11.5273C6.69626 12.736 6.68252 13.9453 6.68298 15.1544C6.68303 15.2979 6.68022 15.4414 6.67885 15.585C6.67858 15.6142 6.67881 15.6434 6.67881 15.691C6.71694 15.6717 6.73983 15.6647 6.75683 15.6508C7.12005 15.3539 7.54266 15.1849 8.00226 15.0985C8.12728 15.075 8.25476 15.0621 8.38174 15.0515C8.4357 15.0471 8.46566 15.0282 8.48843 14.9811C8.72729 14.487 9.13964 14.2085 9.6674 14.0777C10.107 13.9687 10.5505 13.9803 10.9931 14.0549C11.8295 14.1959 12.5842 14.534 13.2859 14.9919C13.4902 15.1253 13.6824 15.2766 13.8787 15.4216C13.9339 15.4625 13.9772 15.5138 13.9934 15.5838C14.0204 15.7003 13.9629 15.8517 13.8468 15.9268C13.6547 16.051 13.4633 16.1777 13.2621 16.2865C12.7726 16.5513 12.2481 16.7214 11.6961 16.8079C11.357 16.8611 11.0158 16.8841 10.6728 16.8528C10.2637 16.8154 9.8672 16.7282 9.49955 16.5413C9.0966 16.3364 8.7744 16.0492 8.57271 15.6438C8.54982 15.5978 8.52479 15.5737 8.46647 15.5775C8.17541 15.5964 7.89217 15.6492 7.62207 15.7588C7.24991 15.9099 6.93845 16.1344 6.73791 16.486C6.66008 16.6224 6.60925 16.7648 6.60179 16.927C6.58678 17.2531 6.5537 17.5783 6.52751 17.9039C6.50523 18.1808 6.4854 18.4579 6.45862 18.7344C6.42067 19.1262 6.37843 19.5177 6.33587 19.9091C6.31212 20.1276 6.28952 20.3464 6.25666 20.5637C6.20006 20.938 6.14257 21.3124 6.07284 21.6845C6.01044 22.0174 5.93199 22.3475 5.85856 22.6784C5.83626 22.7788 5.79262 22.8682 5.70182 22.9299C5.57001 23.0195 5.40514 23.0241 5.27183 22.9387C5.1446 22.8572 5.07956 22.7061 5.11331 22.5554C5.15135 22.3855 5.20199 22.2181 5.2341 22.0472C5.31361 21.6242 5.39182 21.2007 5.45879 20.7756C5.51292 20.432 5.54757 20.0854 5.59505 19.7408C5.66885 19.205 5.70484 18.666 5.74822 18.1276C5.78181 17.7107 5.81765 17.2941 5.84946 16.8772C5.86084 16.7281 5.8618 16.5783 5.87024 16.4289C5.88696 16.1333 5.90566 15.8378 5.92328 15.5422C5.92509 15.5117 5.92582 15.4811 5.92588 15.4506C5.92656 15.1055 5.92635 14.7604 5.92816 14.4153C5.92846 14.3577 5.91721 14.3078 5.87522 14.2647C5.71257 14.0976 5.5286 13.9585 5.31826 13.8541C5.22771 13.8091 5.22255 13.812 5.16946 13.8927C4.97825 14.1835 4.71383 14.3913 4.39733 14.5362C4.0681 14.6869 3.71844 14.7532 3.35645 14.7624C2.81331 14.7761 2.29306 14.6706 1.78719 14.4813C1.26113 14.2844 0.786003 14.0049 0.356696 13.6494C0.268805 13.5766 0.184271 13.4994 0.10286 13.4197C-0.0279954 13.2915 -0.0332108 13.1426 0.0827139 13.0014C0.14062 12.9309 0.211159 12.8799 0.299745 12.8494C0.906431 12.6402 1.52675 12.4849 2.16394 12.3985C2.494 12.3537 2.82632 12.3261 3.15964 12.3283C3.5557 12.3309 3.94913 12.3636 4.33355 12.4665C4.6122 12.541 4.87518 12.647 5.10452 12.824C5.24862 12.9352 5.36606 13.0679 5.44639 13.2298C5.46964 13.2766 5.50176 13.3063 5.54824 13.3302C5.64455 13.3798 5.73762 13.4354 5.83194 13.4887C5.85578 13.5021 5.87932 13.5161 5.9118 13.5349C5.91835 13.5078 5.92689 13.4889 5.92691 13.4699C5.92748 13.015 5.93537 12.56 5.90003 12.1058C5.89459 12.0358 5.89403 11.9654 5.8947 11.8952C5.89779 11.5711 5.87698 11.2484 5.84331 10.9262C5.83095 10.8079 5.83173 10.6884 5.82159 10.5698C5.80027 10.3204 5.77525 10.0714 5.75257 9.82214C5.7238 9.50608 5.69641 9.18989 5.66738 8.87385C5.64783 8.66115 5.62643 8.44861 5.60592 8.236C5.58423 8.01121 5.56205 7.78647 5.54112 7.56162C5.52246 7.36113 5.50381 7.16062 5.48776 6.95992C5.47512 6.8017 5.46644 6.64317 5.45895 6.4719C5.47344 6.44898 5.48368 6.43675 5.49674 6.42927C5.62778 6.35429 5.75944 6.28036 5.89055 6.20548C5.92198 6.18753 5.95201 6.16719 5.98773 6.14479C5.99788 6.16605 6.00622 6.18137 6.01271 6.19742C6.06069 6.31596 6.10906 6.43437 6.15575 6.55341C6.18455 6.62681 6.21061 6.70124 6.2379 6.77521Z" fill="#50BA60"/>
<path d="M6.24465 6.77695C6.21061 6.70124 6.18455 6.62681 6.15575 6.55341C6.10906 6.43437 6.06069 6.31596 6.01271 6.19742C6.00622 6.18137 5.99788 6.16605 5.98773 6.14479C5.95201 6.16719 5.92198 6.18753 5.89055 6.20548C5.75944 6.28036 5.62778 6.35429 5.49674 6.42927C5.48368 6.43675 5.47344 6.44898 5.45724 6.46346C5.40282 6.48411 5.35157 6.4969 5.30352 6.51705C5.05109 6.62293 4.78663 6.68832 4.51892 6.74198C4.38263 6.76929 4.24523 6.79181 4.1077 6.81247C4.03132 6.82394 3.95378 6.83023 3.87653 6.83343C3.6842 6.84141 3.49167 6.85204 3.29933 6.85041C3.1667 6.84928 3.03424 6.82949 2.9017 6.818C2.82461 6.81132 2.74753 6.80438 2.67042 6.7979C2.51699 6.78502 2.45727 6.66859 2.53602 6.53927C2.71599 6.24371 2.907 5.95569 3.1196 5.68129C3.32912 5.41088 3.56393 5.16286 3.81974 4.93591C4.01747 4.7605 4.23487 4.60716 4.47366 4.48656C4.51369 4.46634 4.55443 4.44749 4.60599 4.42263C4.58062 4.40088 4.56704 4.38558 4.55022 4.3754C4.40194 4.28559 4.26577 4.18164 4.1354 4.06735C3.89529 3.85685 3.69393 3.6145 3.51244 3.35671C3.327 3.09332 3.16461 2.8154 3.04074 2.51811C2.96326 2.33215 2.8885 2.1449 2.81979 1.95569C2.77826 1.84133 2.74759 1.72286 2.71755 1.60489C2.67891 1.45318 2.76273 1.38032 2.92367 1.40218C3.19404 1.43892 3.46062 1.49244 3.72519 1.55605C4.07241 1.63954 4.41116 1.74748 4.73884 1.89016C5.01306 2.00957 5.26945 2.15705 5.50588 2.33621C5.64316 2.44023 5.76447 2.56315 5.8708 2.69898C5.88924 2.72253 5.91161 2.74312 5.94447 2.77822C5.95856 2.7304 5.97404 2.69775 5.97707 2.66403C5.98899 2.53143 6.04138 2.4103 6.0851 2.28705C6.21118 1.93166 6.4198 1.62044 6.6462 1.32212C6.84109 1.06531 7.06525 0.831096 7.30698 0.615666C7.55283 0.396558 7.81793 0.20125 8.10036 0.0279896C8.20408 -0.0356361 8.31298 0.0165536 8.33562 0.110789C8.35827 0.205076 8.3742 0.301113 8.38887 0.397003C8.40904 0.52892 8.42765 0.661162 8.44236 0.793753C8.45341 0.893399 8.45774 0.993784 8.46419 1.09389C8.47063 1.19399 8.47645 1.29412 8.48156 1.39429C8.48327 1.4278 8.48328 1.46152 8.48175 1.49504C8.47651 1.61048 8.4726 1.72604 8.46385 1.84124C8.44707 2.0624 8.41709 2.28182 8.36638 2.49829C8.32529 2.67371 8.27451 2.8457 8.19346 3.00816C8.17921 3.03672 8.1739 3.06956 8.16303 3.10509C8.18907 3.10975 8.20383 3.11465 8.21862 3.11471C8.57417 3.11637 8.92152 3.17607 9.26438 3.26198C9.54138 3.33138 9.80813 3.42989 10.0701 3.54285C10.3642 3.66964 10.6413 3.82515 10.9112 3.99448C10.9581 4.02396 11.0032 4.05641 11.0482 4.08879C11.1748 4.17999 11.1601 4.26741 11.0444 4.35498C10.9224 4.44734 10.7821 4.51734 10.6463 4.59098C10.4939 4.67359 10.3407 4.75599 10.1824 4.82642C9.97895 4.91686 9.77079 4.99726 9.56319 5.07831C9.36394 5.15611 9.15728 5.21093 8.94681 5.25013C8.70882 5.29445 8.46903 5.32478 8.22585 5.31248C8.16724 5.30952 8.10898 5.30027 8.05042 5.29554C8.03627 5.2944 8.02159 5.29975 8.00001 5.30328C8.00657 5.32265 8.00884 5.33761 8.01612 5.34965C8.15625 5.58114 8.27447 5.82338 8.35677 6.07978C8.42084 6.2794 8.47458 6.48305 8.51806 6.68795C8.55514 6.86269 8.57681 7.0412 8.59478 7.21907C8.6137 7.40638 8.62819 7.59486 8.62948 7.78293C8.63052 7.93421 8.60874 8.08563 8.59767 8.23703C8.59544 8.26744 8.59574 8.29804 8.59499 8.32856C8.59081 8.49923 8.46806 8.5375 8.33985 8.47466C8.2483 8.42979 8.15882 8.37977 8.07283 8.32533C7.84093 8.17852 7.60864 8.032 7.38203 7.87757C7.2602 7.79454 7.14677 7.6988 7.03498 7.60271C6.92057 7.50437 6.81241 7.39899 6.70222 7.29596C6.55772 7.16087 6.43879 7.00493 6.32214 6.84701C6.30299 6.82109 6.2752 6.80131 6.24465 6.77695ZM7.44546 4.43186C7.49395 4.22776 7.47918 4.02889 7.40928 3.83011C7.26118 3.40898 6.80771 3.07381 6.27848 3.13158C6.01004 3.16089 5.78668 3.26713 5.60103 3.45867C5.31581 3.75295 5.24539 4.10112 5.34493 4.48259C5.40909 4.72848 5.55546 4.92567 5.7756 5.07036C6.04148 5.24512 6.32738 5.29687 6.63626 5.22737C6.85056 5.17915 7.03184 5.07364 7.18209 4.9136C7.30915 4.77825 7.39938 4.62609 7.44546 4.43186Z" fill="#FFB1B2"/>
<path d="M7.44276 4.43905C7.39938 4.62609 7.30915 4.77825 7.18209 4.9136C7.03184 5.07364 6.85056 5.17915 6.63626 5.22737C6.32738 5.29687 6.04148 5.24512 5.7756 5.07036C5.55546 4.92567 5.40909 4.72848 5.34493 4.48259C5.24539 4.10112 5.31581 3.75295 5.60103 3.45867C5.78668 3.26713 6.01004 3.16089 6.27848 3.13158C6.80771 3.07381 7.26118 3.40898 7.40928 3.83011C7.47918 4.02889 7.49396 4.22777 7.44276 4.43905Z" fill="var(--fill-0, #FFF278)"/>
</g>
</svg>
