<svg preserveAspectRatio="none" width="100%" height="100%" overflow="visible" style="display: block;" viewBox="0 0 44 75" fill="none" xmlns="http://www.w3.org/2000/svg">
<g id="Vector">
<path d="M19.6048 22.0931C19.6232 22.3606 19.6396 22.6283 19.6604 22.8957C19.7115 23.5504 19.7578 24.2055 19.8185 24.8592C19.9023 25.7608 20.0042 26.6606 20.0858 27.5623C20.145 28.2162 20.1746 28.8729 20.2339 29.5268C20.3365 30.6565 20.4545 31.7847 20.5607 32.914C20.6129 33.4687 20.6574 34.0241 20.6977 34.5798C20.7537 35.354 20.8034 36.1287 20.8538 36.9033C20.8687 37.1316 20.8789 37.3604 20.888 37.5891C21.0454 41.5303 21.0022 45.4736 21.0036 49.4165C21.0038 49.8845 20.995 50.3525 20.9907 50.8205C20.9898 50.9158 20.9906 51.0111 20.9906 51.1664C21.1104 51.1035 21.1823 51.0807 21.2358 51.0353C22.3773 50.067 23.7055 49.516 25.1499 49.2342C25.5429 49.1576 25.9435 49.1155 26.3426 49.0811C26.5122 49.0666 26.6064 49.0048 26.6779 48.8513C27.4286 47.2402 28.7246 46.3322 30.3833 45.9055C31.7648 45.5501 33.1586 45.5881 34.5496 45.8313C37.1785 46.2911 39.5505 47.3935 41.7557 48.8868C42.3978 49.3216 43.0018 49.8151 43.6186 50.288C43.7923 50.4211 43.9282 50.5883 43.9793 50.8167C44.0642 51.1967 43.8835 51.6902 43.5185 51.9352C42.9148 52.3402 42.3132 52.7534 41.6809 53.1082C40.1424 53.9716 38.4941 54.5262 36.7592 54.8084C35.6933 54.9818 34.621 55.0568 33.5432 54.9547C32.2573 54.8328 31.0112 54.5486 29.8557 53.9389C28.5893 53.2707 27.5767 52.3343 26.9428 51.0125C26.8709 50.8625 26.7922 50.7838 26.6089 50.7961C25.6942 50.8579 24.804 51.03 23.9551 51.3875C22.7854 51.8802 21.8066 52.612 21.1763 53.7586C20.9317 54.2036 20.7719 54.6677 20.7485 55.1967C20.7013 56.26 20.5974 57.3207 20.515 58.3823C20.445 59.2852 20.3827 60.1888 20.2985 61.0904C20.1793 62.3682 20.0465 63.6447 19.9127 64.9211C19.8381 65.6335 19.7671 66.347 19.6638 67.0555C19.4859 68.276 19.3052 69.4969 19.0861 70.7102C18.89 71.7959 18.6434 72.8722 18.4126 73.9512C18.3425 74.2788 18.2054 74.5703 17.92 74.7715C17.5057 75.0635 16.9876 75.0785 16.5686 74.8C16.1687 74.5342 15.9643 74.0417 16.0704 73.5503C16.19 72.9963 16.3491 72.4503 16.45 71.8931C16.6999 70.5135 16.9457 69.1326 17.1562 67.7464C17.3263 66.626 17.4352 65.496 17.5844 64.3721C17.8164 62.6251 17.9295 60.8674 18.0658 59.1116C18.1714 57.7524 18.284 56.3939 18.384 55.0343C18.4198 54.5481 18.4228 54.0595 18.4493 53.5725C18.5019 52.6085 18.5607 51.6449 18.616 50.681C18.6217 50.5817 18.624 50.482 18.6242 50.3825C18.6263 49.2572 18.6257 48.1318 18.6314 47.0065C18.6323 46.8184 18.5969 46.656 18.465 46.5153C17.9538 45.9704 17.3756 45.5168 16.7145 45.1763C16.4299 45.0297 16.4137 45.0391 16.2469 45.3024C15.6459 46.2506 14.8149 46.9281 13.8202 47.4006C12.7854 47.8921 11.6865 48.1083 10.5488 48.1381C8.84182 48.1829 7.20677 47.839 5.61687 47.2216C3.96354 46.5795 2.4703 45.6682 1.12104 44.5087C0.844817 44.2714 0.579138 44.0198 0.323274 43.7598C-0.0879855 43.3418 -0.104377 42.8562 0.259958 42.3959C0.441948 42.1659 0.663642 41.9997 0.942056 41.9001C2.84878 41.218 4.79834 40.7118 6.80095 40.4298C7.83828 40.2837 8.88271 40.1938 9.93029 40.2009C11.1751 40.2094 12.4116 40.3162 13.6197 40.6515C14.4955 40.8946 15.322 41.2402 16.0428 41.8174C16.4957 42.1801 16.8647 42.6128 17.1172 43.1406C17.1903 43.2934 17.2912 43.3902 17.4373 43.4682C17.74 43.6298 18.0325 43.8111 18.329 43.9848C18.4039 44.0287 18.4779 44.0743 18.5799 44.1357C18.6005 44.0471 18.6274 43.9854 18.6274 43.9236C18.6292 42.4403 18.654 40.9566 18.543 39.4753C18.5259 39.2473 18.5241 39.0175 18.5262 38.7886C18.5359 37.7319 18.4705 36.6797 18.3647 35.6289C18.3258 35.2432 18.3283 34.8534 18.2964 34.4667C18.2294 33.6536 18.1508 32.8415 18.0795 32.0287C17.9891 30.9981 17.903 29.967 17.8118 28.9365C17.7503 28.2429 17.6831 27.5498 17.6186 26.8565C17.5504 26.1235 17.4807 25.3907 17.4149 24.6574C17.3563 24.0037 17.2977 23.3498 17.2473 22.6954C17.2075 22.1794 17.1803 21.6625 17.1567 21.104C17.2022 21.0293 17.2344 20.9894 17.2755 20.965C17.6873 20.7205 18.1011 20.4794 18.5131 20.2353C18.6119 20.1767 18.7063 20.1104 18.8186 20.0374C18.8505 20.1067 18.8767 20.1567 18.8971 20.209C19.0479 20.5955 19.1999 20.9816 19.3467 21.3698C19.4371 21.6092 19.5191 21.8519 19.6048 22.0931Z" fill="#50BA60"/>
<path d="M19.6261 22.0988C19.5191 21.8519 19.4371 21.6092 19.3467 21.3698C19.1999 20.9816 19.0479 20.5955 18.8971 20.209C18.8767 20.1567 18.8505 20.1067 18.8186 20.0374C18.7063 20.1104 18.6119 20.1767 18.5131 20.2353C18.1011 20.4794 17.6873 20.7205 17.2755 20.965C17.2344 20.9894 17.2022 21.0293 17.1513 21.0765C16.9803 21.1438 16.8192 21.1856 16.6682 21.2513C15.8749 21.5965 15.0437 21.8097 14.2023 21.9847C13.774 22.0738 13.3421 22.1472 12.9099 22.2146C12.6699 22.252 12.4262 22.2725 12.1834 22.2829C11.5789 22.3089 10.9738 22.3436 10.3693 22.3383C9.95248 22.3346 9.53617 22.2701 9.11963 22.2326C8.87733 22.2108 8.63509 22.1882 8.39274 22.1671C7.91054 22.1251 7.72286 21.7454 7.97035 21.3237C8.53596 20.3599 9.1363 19.4207 9.80447 18.526C10.4629 17.6442 11.2009 16.8354 12.0049 16.0954C12.6263 15.5234 13.3096 15.0233 14.0601 14.6301C14.1859 14.5642 14.3139 14.5027 14.476 14.4216C14.3962 14.3507 14.3535 14.3008 14.3007 14.2676C13.8347 13.9747 13.4067 13.6358 12.997 13.2631C12.2423 12.5767 11.6095 11.7864 11.0391 10.9458C10.4563 10.0869 9.94593 9.18066 9.55663 8.21124C9.31311 7.60484 9.07815 6.99425 8.86221 6.37726C8.73169 6.00435 8.63529 5.61804 8.54086 5.23335C8.41943 4.73862 8.68286 4.50103 9.18867 4.57233C10.0384 4.69211 10.8762 4.86665 11.7077 5.07408C12.799 5.34633 13.8636 5.6983 14.8935 6.16357C15.7553 6.55294 16.5611 7.03387 17.3042 7.61806C17.7356 7.95726 18.1169 8.3581 18.4511 8.80103C18.509 8.87782 18.5793 8.94495 18.6826 9.05942C18.7269 8.90348 18.7756 8.79702 18.7851 8.68704C18.8226 8.25465 18.9872 7.85968 19.1246 7.45778C19.5209 6.29889 20.1765 5.28404 20.8881 4.31125C21.5006 3.47385 22.2051 2.7101 22.9648 2.00761C23.7375 1.29312 24.5706 0.65625 25.4583 0.0912703C25.7843 -0.116205 26.1265 0.0539791 26.1977 0.361268C26.2689 0.668726 26.3189 0.981891 26.365 1.29458C26.4284 1.72474 26.4869 2.15596 26.5331 2.58832C26.5679 2.91326 26.5815 3.2406 26.6017 3.56705C26.622 3.89343 26.6403 4.21996 26.6563 4.54659C26.6617 4.65587 26.6617 4.76582 26.6569 4.87513C26.6404 5.25155 26.6282 5.62839 26.6007 6.00404C26.5479 6.7252 26.4537 7.44071 26.2943 8.14658C26.1652 8.71863 26.0056 9.27944 25.7509 9.80923C25.7061 9.90235 25.6894 10.0094 25.6552 10.1253C25.7371 10.1405 25.7835 10.1565 25.83 10.1567C26.9474 10.1621 28.0391 10.3567 29.1166 10.6369C29.9872 10.8632 30.8256 11.1844 31.649 11.5528C32.5732 11.9662 33.4442 12.4733 34.2922 13.0255C34.4398 13.1216 34.5815 13.2274 34.7228 13.333C35.1208 13.6304 35.0747 13.9155 34.7111 14.201C34.3276 14.5022 33.8865 14.7305 33.4597 14.9706C32.9809 15.24 32.4995 15.5087 32.0017 15.7383C31.3624 16.0332 30.7082 16.2954 30.0558 16.5597C29.4295 16.8134 28.78 16.9922 28.1185 17.12C27.3706 17.2645 26.6169 17.3634 25.8527 17.3233C25.6685 17.3136 25.4854 17.2835 25.3013 17.2681C25.2569 17.2644 25.2107 17.2818 25.1429 17.2933C25.1635 17.3565 25.1706 17.4052 25.1935 17.4445C25.6339 18.1994 26.0055 18.9893 26.2641 19.8254C26.4655 20.4763 26.6344 21.1404 26.771 21.8085C26.8876 22.3783 26.9557 22.9604 27.0122 23.5404C27.0716 24.1513 27.1172 24.7658 27.1212 25.3791C27.1245 25.8724 27.056 26.3662 27.0212 26.8599C27.0142 26.9591 27.0152 27.0588 27.0128 27.1583C26.9997 27.7149 26.6139 27.8397 26.2109 27.6348C25.9232 27.4885 25.642 27.3253 25.3718 27.1478C24.6429 26.6691 23.9129 26.1913 23.2007 25.6877C22.8178 25.417 22.4613 25.1048 22.11 24.7914C21.7504 24.4708 21.4104 24.1271 21.0641 23.7912C20.61 23.3507 20.2362 22.8422 19.8696 22.3272C19.8094 22.2427 19.7221 22.1782 19.6261 22.0988ZM23.4 14.4517C23.5524 13.7862 23.506 13.1377 23.2863 12.4895C22.8209 11.1162 21.3957 10.0233 19.7324 10.2117C18.8887 10.3072 18.1867 10.6537 17.6032 11.2783C16.7068 12.2379 16.4855 13.3732 16.7983 14.6172C17 15.419 17.46 16.062 18.1519 16.5338C18.9875 17.1037 19.8861 17.2724 20.8568 17.0458C21.5303 16.8885 22.1001 16.5445 22.5723 16.0226C22.9716 15.5813 23.2552 15.0851 23.4 14.4517Z" fill="#FFB1EB"/>
<path d="M23.3915 14.4751C23.2552 15.0851 22.9716 15.5813 22.5723 16.0226C22.1001 16.5445 21.5303 16.8885 20.8568 17.0458C19.8861 17.2724 18.9875 17.1037 18.1519 16.5338C17.46 16.062 17 15.419 16.7983 14.6172C16.4855 13.3732 16.7068 12.2379 17.6032 11.2783C18.1867 10.6537 18.8887 10.3072 19.7324 10.2117C21.3957 10.0233 22.8209 11.1162 23.2863 12.4895C23.506 13.1377 23.5524 13.7862 23.3915 14.4751Z" fill="var(--fill-0, #FFF278)"/>
</g>
</svg>
