<svg preserveAspectRatio="none" width="100%" height="100%" overflow="visible" style="display: block;" viewBox="0 0 10 25" fill="none" xmlns="http://www.w3.org/2000/svg">
<g id="Vector">
<path d="M4.67621 7.57508C4.64964 7.60034 4.61636 7.62141 4.59756 7.65152C4.45965 7.87246 4.30267 8.0759 4.09508 8.23725C3.98709 8.32117 3.85916 8.34949 3.73133 8.37662C3.45064 8.43619 3.198 8.36061 2.97007 8.19784C2.87368 8.12901 2.77521 8.07353 2.66255 8.03332C2.50937 7.97863 2.36868 7.89349 2.25378 7.7751C2.12266 7.63999 1.97559 7.52966 1.80842 7.44182C1.58139 7.32252 1.43552 7.13134 1.34673 6.89175C1.30086 6.768 1.25634 6.64758 1.26291 6.51106C1.27436 6.27326 1.34883 6.05533 1.47346 5.85807C1.59916 5.65912 1.76054 5.48755 1.94222 5.33648C1.95185 5.32847 1.95767 5.31587 1.97265 5.29524C1.90448 5.28283 1.84585 5.26985 1.78656 5.26177C1.50851 5.22391 1.25086 5.12426 1.01121 4.98446C0.78601 4.85309 0.64693 4.64548 0.588348 4.39388C0.540707 4.18926 0.552049 3.98433 0.639925 3.78583C0.669662 3.71865 0.680316 3.63904 0.682805 3.56455C0.688795 3.38534 0.728579 3.21609 0.809437 3.05705C0.899091 2.88071 0.975897 2.69941 1.00994 2.50393C1.05736 2.23158 1.21164 2.03351 1.42855 1.87598C1.47876 1.83951 1.52903 1.80295 1.58098 1.76907C1.70136 1.69058 1.83935 1.67398 1.97732 1.66897C2.23295 1.65969 2.47506 1.71134 2.70719 1.82588C2.94354 1.94249 3.16928 2.07236 3.36915 2.24508C3.38208 2.25626 3.39697 2.26563 3.41214 2.27359C3.42365 2.27963 3.43705 2.2821 3.46894 2.29241C3.45308 2.24443 3.44294 2.20988 3.43034 2.17624C3.35036 1.96272 3.27569 1.74819 3.25631 1.51822C3.24969 1.4396 3.22282 1.36228 3.21992 1.28382C3.21016 1.0195 3.2785 0.770492 3.39331 0.535314C3.42414 0.472161 3.47694 0.415114 3.53128 0.368973C3.68735 0.23645 3.85813 0.128436 4.05862 0.0709762C4.18197 0.0356247 4.30462 0.0470344 4.42855 0.0522928C4.49675 0.0551874 4.56529 0.0578268 4.63338 0.0545522C4.85333 0.0439749 5.0695 -0.0170425 5.29195 0.00461476C5.3193 0.00727758 5.34836 0.00620699 5.37351 0.0153966C5.51961 0.0687723 5.67081 0.0758915 5.82322 0.0652954C6.0341 0.050633 6.22028 0.124101 6.38663 0.239247C6.58543 0.376853 6.72562 0.56372 6.76487 0.810339C6.78973 0.966585 6.81981 1.12386 6.82293 1.28116C6.82572 1.42093 6.80309 1.56304 6.776 1.70104C6.74954 1.83586 6.70313 1.96675 6.66578 2.09946C6.65698 2.13073 6.64941 2.16234 6.64127 2.1938C6.64728 2.19753 6.6533 2.20126 6.65931 2.20499C6.73806 2.152 6.81459 2.09527 6.89606 2.04687C7.02938 1.96766 7.16261 1.88695 7.30218 1.82007C7.40716 1.76977 7.51951 1.72873 7.63301 1.70372C7.86425 1.65279 8.09649 1.64844 8.32611 1.72603C8.45165 1.76845 8.54401 1.85853 8.64218 1.93761C8.74342 2.01918 8.83888 2.11352 8.8946 2.23432C8.93334 2.3183 8.96503 2.40803 8.98315 2.49854C9.02081 2.68666 9.08587 2.86379 9.17355 3.03292C9.25613 3.19224 9.29987 3.35854 9.30354 3.53938C9.30532 3.62697 9.32779 3.7181 9.35968 3.80033C9.43899 4.00486 9.45229 4.21553 9.39756 4.4213C9.33799 4.64531 9.22044 4.8425 9.01251 4.96713C8.73716 5.13218 8.44032 5.2391 8.12125 5.2775C8.03245 5.28819 7.9415 5.28058 7.85156 5.28237C7.83236 5.28275 7.81325 5.28746 7.77213 5.29329C7.80865 5.33375 7.83276 5.36036 7.85676 5.38708C7.96739 5.51022 8.08286 5.62943 8.18737 5.75758C8.31655 5.91597 8.37868 6.10779 8.4264 6.30298C8.5065 6.63064 8.36955 6.90231 8.19784 7.16473C8.12102 7.28214 8.00704 7.35308 7.89005 7.41907C7.71753 7.51639 7.55875 7.63044 7.42188 7.77412C7.31946 7.88163 7.19233 7.95193 7.0552 8.00002C6.92945 8.04411 6.81808 8.10673 6.71318 8.18841C6.59131 8.28331 6.44707 8.33313 6.29494 8.35505C5.98647 8.3995 5.71249 8.31993 5.48891 8.10175C5.33085 7.9475 5.18884 7.77775 5.08933 7.57693C5.07266 7.54328 5.04743 7.51387 5.01823 7.47153C4.98985 7.38062 4.97369 7.29924 4.94772 7.22113C4.92252 7.14536 4.90849 7.06382 4.85149 6.97415C4.82928 7.03679 4.81395 7.07741 4.80046 7.11863C4.7737 7.20045 4.7454 7.2819 4.72256 7.36483C4.70353 7.43393 4.6914 7.50493 4.67621 7.57508ZM4.48744 5.16397C4.62092 5.23915 4.75933 5.29037 4.91554 5.30647C5.09042 5.32448 5.25728 5.29915 5.40859 5.22581C5.78936 5.04125 5.99649 4.73591 5.99506 4.30339C5.99411 4.01756 5.88264 3.77751 5.67501 3.5868C5.368 3.3048 4.90366 3.25444 4.5463 3.44403C4.20471 3.62525 3.96941 4.01221 4.02812 4.44402C4.06963 4.74932 4.21252 4.9896 4.48744 5.16397Z" fill="#CBA3FE"/>
<path d="M4.67764 7.58602C4.6914 7.50493 4.70353 7.43393 4.72256 7.36483C4.7454 7.2819 4.7737 7.20045 4.80046 7.11863C4.81395 7.07741 4.82928 7.03679 4.85149 6.97415C4.90849 7.06382 4.92252 7.14536 4.94772 7.22113C4.97369 7.29924 4.98985 7.38062 5.01158 7.46699C5.02833 7.87787 5.04355 8.28234 5.05942 8.68677C5.06403 8.80423 5.07305 8.92155 5.07565 9.03904C5.08508 9.46468 5.09551 9.89033 5.10022 10.316C5.10708 10.9357 5.11266 11.5554 5.11227 12.175C5.11203 12.5488 5.10043 12.9226 5.09206 13.2963C5.0871 13.5177 5.08015 13.739 5.07106 13.9603C5.06084 14.209 5.04698 14.4576 5.03528 14.7063C5.03358 14.7424 5.03505 14.7788 5.03505 14.8325C5.07669 14.8089 5.10225 14.7993 5.12176 14.7826C5.35765 14.5809 5.63816 14.4793 5.93611 14.4163C5.96988 14.4092 6.00445 14.3956 6.03769 14.398C6.14424 14.4059 6.19658 14.3445 6.24735 14.262C6.39964 14.0147 6.59495 13.8061 6.83795 13.6451C7.06615 13.4939 7.31628 13.3975 7.58707 13.3566C8.07271 13.2833 8.53665 13.366 8.9864 13.5521C9.31156 13.6866 9.60731 13.8702 9.88476 14.085C9.90657 14.1019 9.92839 14.1195 9.94707 14.1396C10.0145 14.2124 10.0191 14.3014 9.95159 14.3723C9.89469 14.4321 9.83389 14.4903 9.76681 14.5378C9.4057 14.794 9.00069 14.9472 8.57101 15.0425C8.25912 15.1117 7.94362 15.1479 7.62481 15.1399C7.27045 15.1309 6.9225 15.0776 6.59412 14.9356C6.50256 14.896 6.40923 14.852 6.33157 14.7911C6.25172 14.7284 6.16977 14.7155 6.07916 14.7315C5.79248 14.7819 5.52354 14.8749 5.30153 15.0735C5.15554 15.2041 5.05223 15.3622 5.0183 15.5563C4.99397 15.6953 4.98347 15.8371 4.97137 15.978C4.95098 16.2157 4.9341 16.4536 4.91596 16.6914C4.90781 16.7982 4.90045 16.9051 4.89228 17.012C4.86988 17.3049 4.84977 17.5981 4.82391 17.8908C4.80202 18.1385 4.77309 18.3857 4.74779 18.6332C4.72529 18.8532 4.70572 19.0735 4.68085 19.2933C4.65056 19.561 4.61629 19.8282 4.58335 20.0957C4.55337 20.3391 4.52501 20.5828 4.49198 20.8259C4.45848 21.0724 4.42041 21.3182 4.38384 21.5643C4.35134 21.7829 4.32011 22.0018 4.28478 22.22C4.24447 22.469 4.20321 22.7179 4.15713 22.9659C4.06308 23.4721 3.96614 23.9778 3.86898 24.4834C3.84421 24.6123 3.81669 24.7408 3.78565 24.8684C3.76379 24.9582 3.71557 24.9959 3.63467 24.9997C3.51496 25.0054 3.43763 24.9218 3.45841 24.8021C3.47847 24.6864 3.50713 24.5722 3.52929 24.4568C3.62314 23.9681 3.71778 23.4795 3.80849 22.9903C3.86454 22.6879 3.91643 22.3847 3.96581 22.0812C4.01187 21.7982 4.05361 21.5144 4.09457 21.2305C4.13699 20.9365 4.17827 20.6422 4.21619 20.3476C4.255 20.046 4.29014 19.7439 4.325 19.4418C4.35985 19.1397 4.39359 18.8375 4.42542 18.5352C4.44315 18.3667 4.45607 18.1978 4.47104 18.0291C4.49731 17.733 4.52375 17.437 4.54957 17.1409C4.55828 17.041 4.56594 16.9411 4.57306 16.841C4.59321 16.5583 4.60994 16.2752 4.63352 15.9928C4.65441 15.7424 4.61434 15.5036 4.52086 15.2715C4.34244 14.8288 4.09964 14.4235 3.81005 14.0455C3.77225 13.9962 3.73109 13.9492 3.68932 13.9031C3.6358 13.8441 3.62567 13.8436 3.56152 13.8929C3.39754 14.0188 3.20922 14.0789 3.00682 14.1059C2.49106 14.1745 2.00339 14.0576 1.52561 13.8811C1.17977 13.7534 0.858299 13.5781 0.563023 13.3568C0.374094 13.2152 0.20248 13.054 0.0578274 12.867C-0.0397658 12.7408 -0.0125175 12.6379 0.129627 12.5649C0.430653 12.4104 0.751837 12.3178 1.08269 12.2541C1.36005 12.2006 1.64076 12.1903 1.91965 12.2164C2.45257 12.2663 2.9253 12.4594 3.30144 12.8541C3.43102 12.99 3.53552 13.1441 3.61951 13.3129C3.64665 13.3674 3.6828 13.4215 3.72691 13.4629C4.09469 13.808 4.3724 14.2189 4.61069 14.6594C4.6284 14.6921 4.64659 14.7246 4.67262 14.7718C4.68653 14.7426 4.69772 14.7295 4.69857 14.7157C4.70599 14.5949 4.71368 14.474 4.71729 14.3531C4.72761 14.0072 4.73712 13.6612 4.74493 13.3152C4.75314 12.9519 4.7602 12.5885 4.76559 12.2252C4.77133 11.8376 4.77924 11.4499 4.77766 11.0623C4.77564 10.5673 4.76606 10.0723 4.75772 9.57731C4.75393 9.35245 4.74694 9.12761 4.73847 8.90288C4.72583 8.56759 4.71094 8.23238 4.69624 7.89718C4.69184 7.79704 4.68486 7.69702 4.67764 7.58602Z" fill="#6CDD7D"/>
<path d="M4.48138 5.15944C4.21252 4.9896 4.06963 4.74932 4.02812 4.44402C3.96941 4.01221 4.20471 3.62525 4.5463 3.44403C4.90366 3.25444 5.368 3.3048 5.67501 3.5868C5.88264 3.77751 5.99411 4.01756 5.99506 4.30339C5.99649 4.73591 5.78936 5.04125 5.40859 5.22581C5.25728 5.29915 5.09042 5.32448 4.91554 5.30647C4.75933 5.29037 4.62092 5.23915 4.48138 5.15944Z" fill="var(--fill-0, #F6ED79)"/>
</g>
</svg>
