<svg preserveAspectRatio="none" width="100%" height="100%" overflow="visible" style="display: block;" viewBox="0 0 39 70" fill="none" xmlns="http://www.w3.org/2000/svg">
<g id="Vector">
<path d="M15.6285 4.77411C15.6259 4.81265 15.6233 4.85119 15.5959 4.93247C15.5019 5.22522 15.4169 5.47214 15.368 5.72616C15.321 5.96967 15.1232 6.17711 15.1759 6.44464C15.2109 6.45021 15.2254 6.45732 15.2319 6.45278C15.2776 6.42094 15.3217 6.3868 15.3662 6.35322C15.9689 5.89835 16.5861 5.47655 17.3135 5.23597C17.9081 5.0393 18.5135 4.94286 19.1212 5.06309C19.9242 5.22194 20.5894 5.66382 21.1347 6.27376C21.4494 6.62585 21.7061 7.02261 21.9359 7.44125C22.2456 8.00516 22.4561 8.59891 22.4821 9.23728C22.5037 9.76615 22.4898 10.3048 22.4143 10.8276C22.272 11.8132 21.8035 12.6347 20.9606 13.1714C19.9861 13.7918 18.8988 13.9515 17.7652 13.8133C17.6396 13.798 17.5241 13.7598 17.4456 13.9273C17.4993 13.9724 17.5433 14.0216 17.5975 14.0528C18.298 14.4562 18.8986 14.9774 19.3751 15.634C19.7954 16.2131 20.0687 16.8444 19.9375 17.5907C19.9259 17.6569 19.9325 17.7267 19.9334 17.7947C19.9383 18.1969 19.8358 18.5803 19.6964 18.9483C19.4375 19.632 19.0053 20.2084 18.5272 20.7492C18.0747 21.2611 17.4805 21.5659 16.8711 21.825C16.0891 22.1574 15.278 22.3475 14.4179 22.1647C13.7894 22.0311 13.2312 21.7786 12.7726 21.3085C12.0708 20.5889 11.6299 19.7255 11.351 18.7662C11.2861 18.543 11.2055 18.3245 11.1322 18.1039C10.9994 18.3105 10.9271 18.5184 10.8532 18.7258C10.5349 19.6189 10.1209 20.4523 9.41743 21.1091C8.64669 21.8287 7.71825 22.0492 6.71028 21.9345C6.08516 21.8633 5.49394 21.6335 4.93807 21.3302C4.63507 21.1649 4.34221 20.9807 4.04477 20.805C4.02631 20.7949 4.00785 20.7848 3.96269 20.736C3.76905 20.5002 3.59608 20.3081 3.43629 20.1053C2.93756 19.4723 2.53842 18.79 2.35678 17.9871C2.16496 17.1392 2.30076 16.359 2.73187 15.6128C3.04298 15.0744 3.49075 14.6673 3.93816 14.2577C4.02718 14.1762 4.14866 14.1296 4.1349 13.9554C4.06736 13.9434 4.00561 13.9255 3.94317 13.9226C3.3594 13.8953 2.79357 13.7839 2.24911 13.5657C1.58149 13.298 1.05299 12.8519 0.672354 12.2446C0.293106 11.6395 0.134652 10.955 0.115669 10.2456C0.104847 9.84117 0.16679 9.43522 0.171574 9.02965C0.175417 8.70402 0.269044 8.40238 0.388327 8.11368C0.719066 7.31321 1.17583 6.59824 1.82105 6.00979C2.62482 5.27673 3.55133 4.95745 4.62224 5.13334C5.31446 5.24703 5.95083 5.52184 6.53477 5.91846C6.71872 6.0434 6.9113 6.15537 7.09992 6.27328C7.11923 6.28366 7.13855 6.29403 7.18624 6.34404C7.29134 6.47387 7.35741 6.5937 7.5033 6.50598C7.50571 6.46782 7.51305 6.44391 7.50746 6.42364C7.48646 6.34747 7.46749 6.26977 7.43665 6.19749C7.0946 5.39575 6.96621 4.5601 6.97279 3.68698C6.98072 2.63505 7.4022 1.79299 8.19412 1.15919C9.0702 0.458026 10.1148 0.131802 11.2169 0.0923811C12.2775 0.0544398 13.2764 0.37282 14.1584 0.969604C14.7991 1.40317 15.3106 1.97273 15.5261 2.75649C15.5731 2.9273 15.6256 3.09654 15.6756 3.2665C15.6832 3.32609 15.6908 3.38568 15.6937 3.50456C15.6906 3.80659 15.6922 4.04935 15.6937 4.2921C15.6932 4.33082 15.6927 4.36955 15.6686 4.45043C15.6394 4.58643 15.634 4.68027 15.6285 4.77411ZM9.48539 13.1902C9.54797 13.2551 9.60931 13.3213 9.67332 13.3848C10.3285 14.0344 11.3491 14.2272 12.197 13.8661C13.1332 13.4674 13.6604 12.6277 13.6429 11.6543C13.6137 10.0265 12.1476 9.02396 10.7448 9.37008C10.2618 9.48927 9.84239 9.73483 9.52952 10.1148C9.04006 10.7092 8.85039 11.3989 9.00811 12.174C9.08222 12.5382 9.24995 12.8524 9.48539 13.1902Z" fill="#F0BC4B"/>
<path d="M22.3935 62.5403C22.3417 62.4802 22.29 62.42 22.2257 62.3227C22.1826 62.2574 22.1519 62.2291 22.1213 62.2008C22.0481 62.118 21.975 62.0352 21.8874 61.9108C21.7408 61.6358 21.5501 61.4884 21.2805 61.4567C21.267 61.4509 21.2535 61.4452 21.2189 61.4079C21.1582 61.3577 21.1187 61.3391 21.0792 61.3205C21.0655 61.3148 21.0518 61.3091 21.0167 61.2717C20.9557 61.2213 20.9161 61.2025 20.8764 61.1838C20.8629 61.1782 20.8493 61.1727 20.8144 61.1356C20.7525 61.086 20.712 61.0679 20.6715 61.0498C20.6149 61.0183 20.5583 60.9869 20.4788 60.9232C20.4181 60.8742 20.3805 60.8574 20.3428 60.8407C20.3284 60.8348 20.314 60.829 20.2765 60.7916C20.2132 60.743 20.1731 60.726 20.1331 60.7089C20.0761 60.6789 20.0192 60.6489 19.9376 60.5846C19.8312 60.5114 19.7494 60.4724 19.6677 60.4334C19.6094 60.4042 19.5512 60.3751 19.4667 60.3115C19.3136 60.2158 19.1868 60.1544 19.0599 60.0931C18.7569 59.944 18.4539 59.7949 18.1194 59.6137C17.9565 59.5293 17.825 59.4771 17.6935 59.4248C17.6437 59.4078 17.5939 59.3908 17.5121 59.3413C17.1484 59.1877 16.8168 59.0665 16.4851 58.9453C16.4081 58.9213 16.331 58.8973 16.2173 58.846C16.0088 58.7731 15.8371 58.7277 15.6653 58.6823C15.6362 58.6774 15.607 58.6724 15.546 58.6432C15.4765 58.6156 15.4389 58.6123 15.4013 58.609C15.3709 58.6047 15.3404 58.6004 15.2767 58.573C15.2063 58.5468 15.1691 58.5439 15.1319 58.541C15.1016 58.5378 15.0714 58.5346 15.0074 58.5075C14.9346 58.482 14.8956 58.4805 14.8565 58.4789C14.807 58.4726 14.7576 58.4664 14.672 58.4368C14.5972 58.413 14.5586 58.4125 14.5199 58.4119C14.4707 58.4065 14.4215 58.401 14.3337 58.3713C14.2349 58.3459 14.1747 58.3448 14.1145 58.3436C14.0444 58.3384 13.9743 58.3333 13.8616 58.3036C13.716 58.277 13.613 58.2749 13.51 58.2728C13.0881 58.2716 12.6662 58.2704 12.1869 58.2611C12.0134 58.2737 11.8973 58.2944 11.7813 58.3152C11.7313 58.3228 11.6814 58.3304 11.5843 58.3315C11.4837 58.3442 11.4304 58.3633 11.3771 58.3825C11.3472 58.3892 11.3174 58.396 11.2403 58.3979C11.0749 58.4339 10.9568 58.4747 10.8388 58.5155C10.8111 58.5246 10.7835 58.5338 10.7167 58.5391C10.6376 58.5573 10.5977 58.5793 10.5578 58.6013C10.5105 58.6227 10.4631 58.6441 10.3694 58.6662C10.2438 58.7105 10.1647 58.7542 10.0856 58.798C10.0557 58.8168 10.0259 58.8355 9.9501 58.8606C9.8297 58.9162 9.75521 58.9655 9.68073 59.0148C9.62719 59.0518 9.57366 59.0887 9.47988 59.1328C9.40806 59.169 9.37648 59.1981 9.34491 59.2272C9.33373 59.2375 9.32256 59.2478 9.27329 59.2672C9.20426 59.3071 9.17332 59.3378 9.14237 59.3685C9.10667 59.3985 9.07096 59.4285 8.99713 59.4688C8.93013 59.51 8.90126 59.5409 8.87239 59.5718C8.74068 59.7173 8.58666 59.7957 8.35681 59.7006C8.18843 59.5368 8.19826 59.3635 8.18556 59.1972C8.25091 59.1162 8.31626 59.0352 8.4178 58.9428C8.48318 58.9011 8.51237 58.8708 8.54155 58.8405C8.57688 58.8098 8.6122 58.7792 8.68545 58.7391C8.75292 58.7009 8.78246 58.6722 8.812 58.6435C8.8233 58.6328 8.8346 58.6221 8.88359 58.6019C8.952 58.5641 8.9827 58.5357 9.0134 58.5074C9.02518 58.4968 9.03697 58.4862 9.08633 58.4665C9.15447 58.4314 9.18504 58.4054 9.2156 58.3794C9.31357 58.318 9.41153 58.2565 9.55345 58.1882C9.67201 58.1319 9.74661 58.0825 9.82122 58.0331C10.1171 57.8779 10.4129 57.7228 10.755 57.5652C10.9236 57.4985 11.0461 57.4341 11.1685 57.3698C11.2176 57.3459 11.2666 57.3221 11.3675 57.2952C11.781 57.1617 12.1427 57.0312 12.5044 56.9007C12.5332 56.8919 12.562 56.8832 12.6328 56.8786C12.7081 56.8646 12.7413 56.8464 12.7746 56.8283C12.8035 56.8206 12.8324 56.8129 12.903 56.8104C12.9779 56.7983 13.0111 56.7809 13.0444 56.7635C13.0747 56.7558 13.105 56.7482 13.1803 56.7463C13.277 56.7325 13.3287 56.713 13.3804 56.6936C13.43 56.6845 13.4795 56.6754 13.5763 56.6736C13.6773 56.6626 13.7312 56.6443 13.7851 56.6261C13.856 56.616 13.9269 56.6059 14.0514 56.6045C14.2231 56.5928 14.3412 56.5725 14.4593 56.5522C14.8702 56.5473 15.2811 56.5425 15.7406 56.563C15.9141 56.5917 16.0392 56.5949 16.1642 56.5982C16.2357 56.6026 16.3072 56.6069 16.4184 56.6363C16.516 56.664 16.574 56.6669 16.6319 56.6698C16.662 56.6713 16.6921 56.6729 16.7572 56.6992C16.8503 56.7287 16.9084 56.7335 16.9665 56.7383C16.9976 56.7416 17.0288 56.745 17.0969 56.7746C17.3897 56.873 17.6455 56.9452 17.9012 57.0175C17.9531 57.0333 18.005 57.0491 18.09 57.0958C18.2082 57.1573 18.2933 57.1879 18.3784 57.2186C18.4983 57.2739 18.6182 57.3292 18.7646 57.4183C18.8741 57.4905 18.9571 57.5289 19.0401 57.5673C19.0972 57.5987 19.1543 57.6301 19.2353 57.6959C19.3224 57.7659 19.3855 57.8015 19.4487 57.8372C19.4617 57.8428 19.4748 57.8485 19.5075 57.8856C19.5666 57.9369 19.606 57.9567 19.6454 57.9765C19.683 58.0014 19.7206 58.0264 19.7765 58.0858C19.8333 58.1413 19.8717 58.1625 19.9101 58.1836C19.9941 58.2528 20.0782 58.322 20.1809 58.4298C20.3647 58.6242 20.5299 58.78 20.695 58.9358C20.7683 59.0166 20.8416 59.0974 20.9257 59.2171C20.9694 59.2851 21.0023 59.3142 21.0351 59.3433C21.0852 59.403 21.1353 59.4627 21.1944 59.5606C21.2318 59.6279 21.2601 59.657 21.2884 59.6861C21.2993 59.6974 21.3102 59.7087 21.3307 59.7585C21.3693 59.8279 21.3983 59.8587 21.4272 59.8896C21.4375 59.9011 21.4478 59.9126 21.4663 59.9621C21.5015 60.0315 21.5285 60.0629 21.5556 60.0944C21.5919 60.1488 21.6282 60.2033 21.6722 60.3036C21.7517 60.4687 21.8236 60.5878 21.8955 60.707C22.0166 60.8796 22.1376 61.0523 22.2728 61.265C22.3636 61.3779 22.4403 61.4506 22.5169 61.5233C22.5886 61.6059 22.6602 61.6885 22.744 61.8083C22.7878 61.8744 22.8195 61.9032 22.8512 61.9319C22.9024 61.9905 22.9537 62.0491 23.0148 62.1462C23.055 62.2143 23.0853 62.2437 23.1157 62.2732C23.1462 62.3085 23.1766 62.3439 23.2163 62.4181C23.2555 62.4865 23.2855 62.5162 23.3155 62.5458C23.3259 62.5564 23.3362 62.567 23.3551 62.6172C23.4116 62.7112 23.4595 62.7654 23.5075 62.8197C23.5187 62.8318 23.5299 62.844 23.5515 62.8949C23.5891 62.9636 23.6163 62.9935 23.6436 63.0235C23.6546 63.0355 23.6657 63.0474 23.6867 63.0978C23.7231 63.167 23.7496 63.1976 23.7761 63.2282C23.7871 63.2408 23.7981 63.2533 23.8206 63.3087C23.883 63.4235 23.9338 63.4953 23.9846 63.5671C24.0196 63.6221 24.0546 63.6772 24.0976 63.7791C24.1649 63.9649 24.2123 64.1153 24.3926 64.1659C24.4126 64.1067 24.4306 64.0765 24.4322 64.0455C24.48 63.0971 24.5266 62.1486 24.5724 61.2001C24.5986 60.6579 24.6231 60.1157 24.6485 59.5735C24.6496 59.5508 24.6531 59.5283 24.6539 59.5057C24.6692 59.0885 24.6843 58.6712 24.6995 58.2539C24.6987 58.2213 24.6978 58.1887 24.7223 58.1138C24.7534 57.6317 24.7592 57.192 24.765 56.7523C24.7638 56.7207 24.7626 56.6891 24.7869 56.616C24.8181 56.1334 24.8237 55.6922 24.8293 55.251C24.8307 55.1772 24.832 55.1033 24.8583 54.9835C24.8865 54.5867 24.8896 54.2357 24.8927 53.8848C24.8948 53.7902 24.8968 53.6957 24.9241 53.5545C24.9531 53.02 24.9567 52.5323 24.9603 52.0445C24.9606 50.504 24.9617 48.9634 24.961 47.4229C24.9607 46.7432 24.9568 46.0635 24.9652 45.3211C24.9751 44.7381 24.9766 44.2179 24.9706 43.6978C24.9697 43.6252 24.9315 43.5531 24.9106 43.4809C24.9033 43.2742 24.8959 43.0676 24.8988 42.7989C24.9081 42.33 24.9104 41.9231 24.9035 41.5163C24.9022 41.4441 24.8627 41.3726 24.8408 41.3008C24.8357 41.2491 24.8306 41.1975 24.834 41.0889C24.8213 40.6708 24.8004 40.3098 24.7792 39.9487C24.754 39.5196 24.7319 39.0902 24.7021 38.6614C24.6826 38.3797 24.6553 38.0983 24.6255 37.8175C24.5661 37.2562 24.4994 36.6958 24.4416 36.1344C24.3884 35.6175 24.3546 35.0984 24.2914 34.5829C24.1938 33.7876 24.0938 32.9921 23.9666 32.2013C23.8088 31.2209 23.6392 30.2417 23.4437 29.2683C23.2297 28.2021 22.913 27.1624 22.575 26.1297C22.0224 24.4413 21.4772 22.7503 20.922 21.0628C20.8596 20.8731 20.7525 20.6986 20.6662 20.517C20.6422 20.4693 20.6183 20.4217 20.5924 20.3232C20.3994 19.8511 20.2058 19.4309 20.0192 19.0076C19.9796 18.9179 19.9281 18.8088 19.9462 18.7223C20.0048 18.4425 20.0933 18.169 20.1861 17.8362C20.2698 17.965 20.3373 18.0499 20.3843 18.1451C20.5143 18.4083 20.6307 18.6783 20.7616 18.941C21.1802 19.7812 21.5335 20.6476 21.8226 21.5422C22.2221 22.7784 22.6415 24.0081 23.0352 25.2462C23.3158 26.1282 23.592 27.0129 23.8277 27.9079C24.1982 29.3149 24.4634 30.745 24.6499 32.1896C24.6753 32.3859 24.7334 32.578 24.7764 32.772C24.7819 32.8016 24.7874 32.8312 24.7854 32.9107C24.7997 33.0793 24.8216 33.1981 24.8435 33.3169C24.8488 33.3469 24.8541 33.3769 24.852 33.4553C24.8647 33.5998 24.8848 33.6958 24.905 33.7918C24.9118 33.8437 24.9187 33.8956 24.9185 33.999C24.9317 34.146 24.9519 34.2416 24.9721 34.3371C24.9779 34.3902 24.9837 34.4432 24.983 34.5495C24.9981 34.7188 25.0198 34.8349 25.0415 34.951C25.0473 35.0032 25.053 35.0554 25.0514 35.1604C25.0652 35.3299 25.0863 35.4466 25.1073 35.5632C25.1149 35.6362 25.1224 35.7092 25.1219 35.8366C25.1359 36.0092 25.1578 36.1274 25.1797 36.2455C25.1855 36.2967 25.1912 36.3478 25.1889 36.4516C25.2023 36.6222 25.2237 36.7403 25.2451 36.8583C25.2508 36.9105 25.2564 36.9628 25.2541 37.0698C25.2694 37.2859 25.2927 37.4472 25.3159 37.6085C25.3199 37.6402 25.3238 37.6719 25.3197 37.7565C25.3342 37.9918 25.3568 38.1741 25.3795 38.3565C25.3854 38.409 25.3913 38.4614 25.3885 38.5707C25.3818 38.7862 25.3745 38.9457 25.3873 39.1035C25.447 39.8347 25.5316 40.5644 25.5704 41.2966C25.6154 42.1442 25.6438 42.9939 25.6412 43.8425C25.6306 47.2432 25.7319 50.6445 25.5862 54.0445C25.5504 54.8814 25.5335 55.719 25.5078 56.5563C25.5068 56.5903 25.503 56.6242 25.502 56.6581C25.4868 57.1662 25.4719 57.6743 25.4569 58.1824C25.4581 58.215 25.4594 58.2476 25.435 58.3223C25.4024 58.7344 25.3953 59.1044 25.3883 59.4744C25.3895 59.5076 25.3906 59.5408 25.3663 59.6165C25.3345 59.9386 25.3283 60.2181 25.3221 60.4976C25.3225 60.5517 25.3228 60.6058 25.2975 60.7046C25.2661 61.0061 25.2605 61.263 25.2549 61.5198C25.2549 61.5956 25.2548 61.6713 25.2297 61.7935C25.2002 62.1207 25.1956 62.4015 25.1911 62.6823C25.1899 62.8007 25.1888 62.919 25.1632 63.0857C25.1388 63.6632 25.1388 64.1925 25.1388 64.7915C25.253 64.5638 25.3718 64.4079 25.3851 64.201C25.3967 64.1649 25.4083 64.1287 25.4507 64.0564C25.5347 63.8458 25.5878 63.6713 25.641 63.4968C25.6784 63.3986 25.7158 63.3004 25.7851 63.1697C26.0259 62.5506 26.2348 61.9638 26.4437 61.377C26.4612 61.3272 26.4787 61.2774 26.5272 61.1956C26.5881 61.0764 26.618 60.9892 26.6479 60.902C26.6638 60.8516 26.6798 60.8013 26.7271 60.719C26.7877 60.5987 26.8171 60.5104 26.8465 60.422C26.9019 60.3025 26.9572 60.183 27.0464 60.0378C27.1203 59.9298 27.1602 59.8473 27.2001 59.7649C27.2061 59.7504 27.2121 59.7358 27.251 59.6965C27.3232 59.5887 27.3625 59.5057 27.4018 59.4227C27.4523 59.3187 27.5027 59.2148 27.5871 59.0845C27.659 58.974 27.697 58.8897 27.735 58.8055C27.7403 58.7918 27.7455 58.7781 27.7842 58.7411C27.9256 58.4983 28.0334 58.2787 28.1412 58.0591C28.1695 58.0004 28.1978 57.9417 28.2582 57.8591C28.307 57.7946 28.3237 57.7542 28.3403 57.7137C28.3457 57.7003 28.3512 57.6869 28.3878 57.6528C28.4379 57.5917 28.4567 57.5512 28.4756 57.5107C28.4818 57.4972 28.4881 57.4836 28.5257 57.4492C28.5759 57.3894 28.5947 57.3504 28.6135 57.3114C28.62 57.2972 28.6266 57.283 28.6646 57.2459C28.7132 57.1836 28.7304 57.1441 28.7475 57.1046C28.7537 57.0908 28.7599 57.077 28.797 57.0416C28.8465 56.9816 28.865 56.9431 28.8835 56.9047C28.9078 56.8653 28.9321 56.8259 28.9904 56.7675C29.0442 56.7104 29.0641 56.6723 29.0841 56.6342C29.132 56.5718 29.18 56.5093 29.2644 56.4277C29.3412 56.3465 29.3815 56.2844 29.4219 56.2224C29.4701 56.1611 29.5184 56.0997 29.6005 56.019C29.6547 55.9621 29.6749 55.9247 29.6952 55.8872C29.7199 55.8471 29.7445 55.807 29.8028 55.7469C29.8564 55.6888 29.8765 55.6509 29.8966 55.6129C29.9412 55.5498 29.9858 55.4866 30.0651 55.4054C30.1206 55.3497 30.1414 55.312 30.1623 55.2744C30.299 55.12 30.4357 54.9656 30.6107 54.7923C30.7578 54.6525 30.8665 54.5316 30.9753 54.4107C31.033 54.3586 31.0907 54.3065 31.1887 54.2435C31.2797 54.1809 31.3304 54.1292 31.3811 54.0775C31.5066 53.9556 31.632 53.8337 31.7976 53.6994C31.8872 53.6323 31.9367 53.5776 31.9862 53.5229C32.0683 53.4495 32.1503 53.3761 32.2708 53.2906C32.3594 53.2296 32.4097 53.1807 32.4599 53.1319C32.4712 53.1205 32.4825 53.1091 32.5325 53.0865C32.6007 53.0441 32.6302 53.013 32.6598 52.9818C32.6703 52.972 32.6807 52.9622 32.7283 52.9449C32.7977 52.9085 32.8299 52.8796 32.8621 52.8506C32.8737 52.8404 32.8853 52.8303 32.9345 52.8116C33.0033 52.7758 33.0345 52.7485 33.0656 52.7211C33.0777 52.7104 33.0897 52.6996 33.1399 52.6788C33.2079 52.6415 33.2379 52.6142 33.2678 52.5868C33.2798 52.5758 33.2918 52.5647 33.3419 52.543C33.4096 52.5052 33.4393 52.478 33.4689 52.4508C33.5908 52.3686 33.7126 52.2864 33.8751 52.1964C33.9459 52.1567 33.9761 52.1248 34.0064 52.0929C34.0413 52.0626 34.0763 52.0324 34.153 51.9934C34.267 51.9334 34.3393 51.8823 34.4116 51.8311C34.5109 51.7736 34.6102 51.716 34.7548 51.6503C34.9178 51.5696 35.0355 51.4972 35.1532 51.4247C35.405 51.2936 35.6567 51.1625 35.9572 51.0286C36.3466 50.8939 36.6872 50.762 37.0278 50.63C37.0576 50.623 37.0873 50.6159 37.1584 50.6143C37.232 50.6034 37.2642 50.587 37.2965 50.5706C37.3258 50.5612 37.3552 50.5518 37.4266 50.5462C37.5014 50.533 37.5342 50.5158 37.567 50.4986C37.5945 50.4891 37.622 50.4796 37.6909 50.474C37.7672 50.461 37.802 50.4441 37.8369 50.4272C37.8662 50.42 37.8955 50.4129 37.9666 50.4094C38.041 50.3946 38.0735 50.3761 38.106 50.3577C38.1348 50.3501 38.1637 50.3425 38.2342 50.3393C38.3093 50.326 38.3426 50.3084 38.376 50.2908C38.4048 50.2826 38.4335 50.2745 38.5084 50.2731C38.6492 50.3043 38.7439 50.3286 38.8386 50.353C38.8386 50.353 38.8512 50.3561 38.8554 50.3861C38.9913 50.6103 38.8643 50.7674 38.7874 50.9318C38.6646 51.0299 38.5418 51.128 38.3763 51.2332C38.2597 51.2891 38.1858 51.338 38.1118 51.3869C38.1001 51.398 38.0884 51.4091 38.0383 51.4311C37.9698 51.4711 37.9397 51.5002 37.9095 51.5294C37.8555 51.5638 37.8016 51.5982 37.7075 51.6401C37.6359 51.6777 37.6045 51.7078 37.573 51.7378C37.5621 51.7479 37.5511 51.7579 37.5026 51.7757C37.4336 51.8125 37.4022 51.8416 37.3708 51.8706C37.3355 51.9022 37.3002 51.9338 37.2261 51.9763C37.159 52.0203 37.1308 52.0532 37.1026 52.0861C37.0665 52.115 37.0304 52.1439 36.957 52.1811C36.8901 52.2159 36.8605 52.2424 36.8309 52.2689C36.7772 52.3062 36.7235 52.3436 36.6293 52.3887C36.5576 52.4263 36.5264 52.4561 36.4952 52.4859C36.4121 52.5608 36.3291 52.6357 36.2102 52.7237C36.1462 52.7663 36.1182 52.7958 36.0901 52.8252C36.0553 52.857 36.0205 52.8888 35.9471 52.9301C35.8795 52.9693 35.8504 52.999 35.8212 53.0288C35.8105 53.0395 35.7997 53.0501 35.7505 53.0699C35.6815 53.1113 35.6509 53.1435 35.6203 53.1758C35.4956 53.2952 35.3709 53.4146 35.2079 53.5441C35.14 53.5858 35.1103 53.6175 35.0807 53.6491C35.0234 53.7017 34.9661 53.7543 34.8698 53.8169C34.8019 53.8603 34.7729 53.8936 34.744 53.9269C34.5705 54.0888 34.3969 54.2508 34.1832 54.4282C33.9847 54.6183 33.8265 54.7928 33.6682 54.9673C33.6611 54.9821 33.6541 54.9969 33.6123 55.0352C33.5185 55.1431 33.4594 55.2275 33.4003 55.3118C33.3741 55.3501 33.348 55.3884 33.2866 55.446C33.2112 55.5247 33.1711 55.5839 33.131 55.6432C33.1025 55.6831 33.0739 55.7231 33.0121 55.7851C32.9614 55.8452 32.944 55.8832 32.9266 55.9212C32.9203 55.9359 32.914 55.9506 32.8763 55.9887C32.8282 56.0512 32.8116 56.0904 32.795 56.1295C32.7897 56.1437 32.7845 56.1579 32.748 56.1944C32.6989 56.2578 32.6809 56.299 32.663 56.3401C32.6575 56.3532 32.6521 56.3663 32.6144 56.4009C32.5393 56.503 32.4964 56.5838 32.4536 56.6645C32.4297 56.7054 32.4058 56.7463 32.3477 56.8074C32.2937 56.8668 32.2738 56.906 32.254 56.9451C32.2485 56.9594 32.2429 56.9738 32.2065 57.011C32.1578 57.074 32.1398 57.114 32.1218 57.1541C32.1162 57.1679 32.1107 57.1817 32.0718 57.2189C32.0021 57.3307 31.9656 57.4191 31.9292 57.5076C31.8901 57.6047 31.851 57.7019 31.7799 57.8303C31.6705 58.034 31.5931 58.2065 31.5156 58.379C31.5025 58.4122 31.4893 58.4455 31.4465 58.5074C31.4043 58.5736 31.3918 58.6113 31.3793 58.649C31.2972 58.8198 31.2151 58.9907 31.1016 59.1941C30.9763 59.4729 30.8823 59.7191 30.7883 59.9652C30.77 60.0148 30.7516 60.0644 30.7017 60.1459C30.2612 60.8803 30.0162 61.6562 29.6971 62.3989C29.6848 62.4319 29.6725 62.4648 29.628 62.5288C29.5655 62.6469 29.535 62.734 29.5046 62.8212C29.4878 62.8718 29.471 62.9223 29.4251 63.0039C29.3873 63.0772 29.3787 63.1195 29.3702 63.1618C29.3535 63.2122 29.3368 63.2626 29.2897 63.346C29.1632 63.6043 29.0672 63.8296 28.9712 64.0549C28.96 64.0833 28.9488 64.1117 28.9063 64.1621C28.8561 64.2233 28.8372 64.2623 28.8183 64.3014C28.8122 64.3156 28.806 64.3297 28.7687 64.3669C28.7209 64.4304 28.7042 64.4709 28.6875 64.5114C28.6566 64.5689 28.6257 64.6264 28.5625 64.7078C28.5154 64.772 28.5006 64.8121 28.4858 64.8522C28.4555 64.9098 28.4252 64.9674 28.3624 65.0488C28.3147 65.1132 28.2994 65.1539 28.2842 65.1946C28.2783 65.2077 28.2725 65.2208 28.2353 65.2537C28.1845 65.3128 28.1649 65.352 28.1454 65.3912C28.1382 65.4054 28.1311 65.4197 28.0889 65.4564C27.9722 65.586 27.8905 65.6931 27.8089 65.8002C27.8013 65.8142 27.7937 65.8282 27.7513 65.8649C27.6569 65.971 27.5973 66.0545 27.5376 66.138C27.4926 66.2008 27.4477 66.2636 27.3648 66.3445C27.1936 66.504 27.0603 66.6456 26.927 66.7871C26.9167 66.7977 26.9065 66.8083 26.8586 66.8278C26.7896 66.8679 26.7582 66.899 26.7268 66.9301C26.6932 66.9611 26.6596 66.992 26.5856 67.0319C26.493 67.0918 26.4407 67.1427 26.3885 67.1936C26.3542 67.2261 26.3199 67.2585 26.2472 67.3013C26.1792 67.3425 26.1497 67.3734 26.1201 67.4042C26.0852 67.4348 26.0503 67.4654 25.977 67.5057C25.9091 67.5465 25.8797 67.5776 25.8502 67.6086C25.8152 67.6392 25.7802 67.6699 25.7066 67.71C25.639 67.7506 25.6099 67.7817 25.5808 67.8128C25.503 67.8695 25.4252 67.9263 25.3083 67.9868C25.2382 68.0145 25.2071 68.0385 25.176 68.0624C25.0745 68.1358 24.973 68.2092 24.8402 68.3223C24.8069 68.7688 24.8047 69.1756 24.8026 69.5824C24.7923 69.6089 24.782 69.6354 24.7364 69.6819C24.5582 69.7909 24.4487 69.9722 24.236 69.8645C24.027 69.7588 24.0321 69.5682 24.0326 69.3744C24.033 69.1848 24.026 68.9952 24.0222 68.8056C24.023 68.7317 24.0238 68.6578 24.0488 68.5385C24.1059 68.1571 24.1369 67.8209 24.1721 67.4851C24.2096 67.127 24.2607 66.7699 24.2862 66.411C24.2968 66.2616 24.2565 66.1084 24.2393 65.957C24.2322 65.9282 24.2251 65.8994 24.2219 65.8229C24.1076 65.4728 24.0028 65.1643 23.8673 64.8701C23.7565 64.6294 23.6091 64.4059 23.4779 64.1748C23.4431 64.1195 23.4084 64.0643 23.3658 63.9646C23.3041 63.8468 23.2501 63.7734 23.1961 63.6999C23.187 63.6889 23.1778 63.6779 23.1622 63.6291C23.1267 63.5591 23.0976 63.5269 23.0685 63.4947C23.0584 63.4833 23.0483 63.4719 23.03 63.4223C22.9928 63.3525 22.9638 63.3209 22.9349 63.2893C22.9247 63.2784 22.9145 63.2674 22.8954 63.218C22.8552 63.1485 22.824 63.1173 22.7928 63.0862C22.7642 63.049 22.7356 63.0119 22.6964 62.9376C22.6572 62.8711 22.6285 62.8417 22.5999 62.8123C22.5684 62.7769 22.537 62.7414 22.4949 62.6672C22.454 62.5991 22.4237 62.5697 22.3935 62.5403Z" fill="#48AA57"/>
<path d="M24.79 32.7517C24.7334 32.578 24.6753 32.3859 24.6499 32.1896C24.4634 30.745 24.1982 29.3149 23.8277 27.9079C23.592 27.0129 23.3158 26.1282 23.0352 25.2462C22.6415 24.0081 22.2221 22.7784 21.8226 21.5422C21.5335 20.6476 21.1802 19.7812 20.7616 18.941C20.6307 18.6783 20.5143 18.4083 20.3843 18.1451C20.3373 18.0499 20.2698 17.965 20.1861 17.8362C20.0933 18.169 20.0048 18.4425 19.9462 18.7223C19.9281 18.8088 19.9796 18.9179 20.0192 19.0076C20.2058 19.4309 20.3994 19.8511 20.5871 20.2968C20.5139 20.2089 20.4362 20.1006 20.3756 19.9833C20.2164 19.6746 20.0646 19.3619 19.9157 19.0626C19.7311 19.0758 19.7195 19.2104 19.6691 19.3021C19.3524 19.8782 19.0131 20.4423 18.5236 20.8845C17.4065 21.8937 16.1097 22.4404 14.5922 22.3048C13.9065 22.2435 13.3042 21.9392 12.7932 21.4635C12.1427 20.8578 11.7214 20.105 11.4158 19.2781C11.323 19.027 11.2411 18.7718 11.1514 18.5105C10.9732 18.5591 10.9592 18.6917 10.9229 18.8035C10.7256 19.4106 10.4496 19.9783 10.0819 20.4979C9.53378 21.2728 8.82787 21.8208 7.88331 21.9989C7.36091 22.0974 6.83534 22.0826 6.31557 21.9637C5.67589 21.8174 5.07993 21.5572 4.51701 21.2231C4.34651 21.1219 4.20387 20.9727 4.04663 20.8252C4.34221 20.9807 4.63507 21.1649 4.93807 21.3302C5.49394 21.6335 6.08516 21.8633 6.71028 21.9345C7.71825 22.0492 8.64669 21.8287 9.41743 21.1091C10.1209 20.4523 10.5349 19.6189 10.8532 18.7258C10.9271 18.5184 10.9994 18.3105 11.1322 18.1039C11.2055 18.3245 11.2861 18.543 11.351 18.7662C11.6299 19.7255 12.0708 20.5889 12.7726 21.3085C13.2312 21.7786 13.7894 22.0311 14.4179 22.1647C15.278 22.3475 16.0891 22.1574 16.8711 21.825C17.4805 21.5659 18.0747 21.2611 18.5272 20.7492C19.0053 20.2084 19.4375 19.632 19.6964 18.9483C19.8358 18.5803 19.9383 18.1969 19.9334 17.7947C19.9325 17.7267 19.9259 17.6569 19.9375 17.5907C20.0687 16.8444 19.7954 16.2131 19.3751 15.634C18.8986 14.9774 18.298 14.4562 17.5975 14.0528C17.5433 14.0216 17.4993 13.9724 17.4456 13.9273C17.5241 13.7598 17.6396 13.798 17.7652 13.8133C18.8988 13.9515 19.9861 13.7918 20.9606 13.1714C21.8035 12.6347 22.272 11.8132 22.4143 10.8276C22.4898 10.3048 22.5037 9.76615 22.4821 9.23728C22.4561 8.59891 22.2456 8.00516 21.9359 7.44125C21.7061 7.02261 21.4494 6.62585 21.1347 6.27376C20.5894 5.66382 19.9242 5.22194 19.1212 5.06309C18.5135 4.94286 17.9081 5.0393 17.3135 5.23597C16.5861 5.47655 15.9689 5.89835 15.3662 6.35322C15.3217 6.3868 15.2776 6.42094 15.2319 6.45278C15.2254 6.45732 15.2109 6.45021 15.1759 6.44464C15.1232 6.17711 15.321 5.96967 15.368 5.72616C15.4169 5.47214 15.5019 5.22522 15.5876 4.96027C15.5452 5.21581 15.489 5.48693 15.4261 5.75645C15.3963 5.88413 15.3536 6.00874 15.3142 6.14363C15.4981 6.20171 15.5797 6.08151 15.671 6.01785C16.1528 5.68205 16.6512 5.38173 17.2053 5.18025C18.4896 4.71322 19.6899 4.84648 20.732 5.76403C21.9001 6.79242 22.571 8.08279 22.5901 9.6837C22.5997 10.4885 22.5182 11.2704 22.1399 11.9935C21.7412 12.7558 21.1419 13.2949 20.343 13.6021C19.761 13.8259 19.158 13.9398 18.5349 13.9427C18.4243 13.9432 18.3136 13.9428 18.1518 13.9428C18.2029 14.0523 18.2201 14.1273 18.2645 14.1781C18.4874 14.4329 18.7191 14.6797 18.9446 14.9323C19.3369 15.3718 19.7012 15.8305 19.897 16.4007C19.9301 16.497 19.9839 16.5915 19.9928 16.6901C20.0594 17.436 20.4306 18.0668 20.7515 18.711C21.2273 19.6659 21.6415 20.6445 21.9709 21.6595C22.3452 22.8131 22.7196 23.9668 23.0801 25.1249C23.3965 26.1416 23.7216 27.1569 23.9925 28.1863C24.3415 29.5127 24.5725 30.8654 24.7489 32.2266C24.7707 32.3944 24.7856 32.5631 24.79 32.7517Z" fill="#5EA9A4"/>
<path d="M7.09788 6.25328C6.9113 6.15537 6.71872 6.0434 6.53477 5.91846C5.95083 5.52184 5.31446 5.24703 4.62224 5.13334C3.55133 4.95745 2.62482 5.27673 1.82105 6.00979C1.17583 6.59824 0.719066 7.31321 0.388327 8.11368C0.269044 8.40238 0.175417 8.70402 0.171574 9.02965C0.16679 9.43522 0.104847 9.84117 0.115669 10.2456C0.134652 10.955 0.293106 11.6395 0.672354 12.2446C1.05299 12.8519 1.58149 13.298 2.24911 13.5657C2.79357 13.7839 3.3594 13.8953 3.94317 13.9226C4.00561 13.9255 4.06736 13.9434 4.1349 13.9554C4.14866 14.1296 4.02718 14.1762 3.93816 14.2577C3.49075 14.6673 3.04298 15.0744 2.73187 15.6128C2.30076 16.359 2.16496 17.1392 2.35678 17.9871C2.53842 18.79 2.93756 19.4723 3.43629 20.1053C3.59608 20.3081 3.76905 20.5002 3.93997 20.7139C3.8881 20.7042 3.81864 20.6913 3.77841 20.6495C3.1783 20.0268 2.67515 19.3335 2.38996 18.5071C1.95217 17.2386 2.15684 16.0714 3.01105 15.0365C3.21775 14.786 3.46438 14.5693 3.6917 14.3362C3.76671 14.2592 3.83875 14.1793 3.96068 14.0489C3.68962 14.0067 3.48593 13.9771 3.28296 13.9431C2.43583 13.8012 1.66488 13.5069 1.04482 12.8695C0.537998 12.3486 0.232535 11.7235 0.108486 11.0208C-0.065019 10.038 -0.0515399 9.05409 0.304714 8.1041C0.665767 7.14133 1.21958 6.30659 2.03757 5.6846C2.9585 4.98434 3.99682 4.816 5.09846 5.14496C5.83545 5.36503 6.50661 5.72689 7.09788 6.25328Z" fill="#5EA9A4"/>
<path d="M20.6574 20.5389C20.7525 20.6986 20.8596 20.8731 20.922 21.0628C21.4772 22.7503 22.0224 24.4413 22.575 26.1297C22.913 27.1624 23.2297 28.2021 23.4437 29.2683C23.6392 30.2417 23.8088 31.2209 23.9666 32.2013C24.0938 32.9921 24.1938 33.7876 24.2914 34.5829C24.3546 35.0984 24.3884 35.6175 24.4416 36.1344C24.4994 36.6958 24.5661 37.2562 24.6255 37.8175C24.6553 38.0983 24.6826 38.3797 24.7021 38.6614C24.7319 39.0902 24.754 39.5196 24.7792 39.9487C24.8004 40.3098 24.8213 40.6708 24.8357 41.063C24.8054 41.046 24.7645 40.9993 24.7607 40.9497C24.7083 40.2604 24.6701 39.5698 24.61 38.8812C24.5351 38.0239 24.445 37.168 24.3579 36.3119C24.2881 35.6249 24.2275 34.9364 24.137 34.2521C23.9782 33.0514 23.8167 31.8506 23.6255 30.6548C23.3186 28.7344 22.7611 26.8801 22.1372 25.0436C21.6853 23.7134 21.2589 22.3743 20.8198 21.0396C20.7668 20.8786 20.7058 20.7203 20.6574 20.5389Z" fill="#5EA9A4"/>
<path d="M25.4772 58.17C25.4719 57.6743 25.4868 57.1662 25.502 56.6581C25.503 56.6242 25.5068 56.5903 25.5078 56.5563C25.5335 55.719 25.5504 54.8814 25.5862 54.0445C25.7319 50.6445 25.6306 47.2432 25.6412 43.8425C25.6438 42.9939 25.6154 42.1442 25.5704 41.2966C25.5316 40.5644 25.447 39.8347 25.3873 39.1035C25.3745 38.9457 25.3818 38.7862 25.3862 38.5971C25.4184 38.6248 25.4638 38.6816 25.4675 38.7411C25.544 39.9612 25.6381 41.1807 25.6841 42.402C25.8212 46.0381 25.7838 49.6759 25.7319 53.313C25.7153 54.4778 25.6208 55.6415 25.5657 56.8059C25.5491 57.1568 25.5472 57.5083 25.534 57.8594C25.5302 57.9591 25.5101 58.0582 25.4772 58.17Z" fill="#5EA9A4"/>
<path d="M15.6884 3.24995C15.6256 3.09654 15.5731 2.9273 15.5261 2.75649C15.3106 1.97273 14.7991 1.40317 14.1584 0.969604C13.2764 0.37282 12.2775 0.0544398 11.2169 0.0923811C10.1148 0.131802 9.0702 0.458026 8.19412 1.15919C7.4022 1.79299 6.98072 2.63505 6.97279 3.68698C6.96621 4.5601 7.0946 5.39575 7.43665 6.19749C7.46749 6.26977 7.48646 6.34747 7.50746 6.42364C7.51305 6.44391 7.50571 6.46782 7.5033 6.50598C7.35741 6.5937 7.29134 6.47387 7.21 6.36691C7.37943 6.29851 7.33732 6.18551 7.30109 6.05553C7.17068 5.58766 7.00622 5.12349 6.93593 4.64571C6.78191 3.59877 6.87459 2.58921 7.54227 1.70413C7.90459 1.22383 8.36516 0.867508 8.89268 0.608276C9.70784 0.207686 10.5732 -0.0535802 11.4847 0.0093336C12.7797 0.098707 13.9671 0.493087 14.8899 1.48305C15.3493 1.97581 15.6263 2.55732 15.6884 3.24995Z" fill="#5EA9A4"/>
<path d="M24.6792 58.2663C24.6843 58.6712 24.6692 59.0885 24.6539 59.5057C24.6531 59.5283 24.6496 59.5508 24.6485 59.5735C24.6231 60.1157 24.5986 60.6579 24.5724 61.2001C24.5266 62.1486 24.48 63.0971 24.4322 64.0455C24.4306 64.0765 24.4126 64.1067 24.3926 64.1659C24.2123 64.1153 24.1649 63.9649 24.1052 63.8026C24.1561 63.7999 24.2074 63.8208 24.281 63.8507C24.3022 63.7894 24.3371 63.7323 24.3401 63.6735C24.3907 62.7054 24.4344 61.7369 24.4856 60.7689C24.5279 59.9698 24.5776 59.1712 24.6258 58.3725C24.6277 58.3407 24.6474 58.3099 24.6792 58.2663Z" fill="#5EA9A4"/>
<path d="M24.2254 65.9783C24.2565 66.1084 24.2968 66.2616 24.2862 66.411C24.2607 66.7699 24.2096 67.127 24.1721 67.4851C24.1369 67.8209 24.1059 68.1571 24.0535 68.5111C24.0267 68.3985 24.0036 68.2665 24.0147 68.1374C24.0757 67.4244 24.1451 66.7122 24.2254 65.9783Z" fill="#5EA9A4"/>
<path d="M29.7175 62.3925C30.0162 61.6562 30.2612 60.8803 30.6861 60.1672C30.6864 60.2297 30.682 60.3076 30.6533 60.3749C30.4339 60.889 30.2128 61.4025 29.9856 61.9131C29.9133 62.0755 29.821 62.2287 29.7175 62.3925Z" fill="#5EA9A4"/>
<path d="M24.0025 68.8193C24.026 68.9952 24.033 69.1848 24.0326 69.3744C24.0321 69.5682 24.027 69.7588 24.236 69.8645C24.4487 69.9722 24.5582 69.7909 24.7227 69.6982C24.6151 69.9429 24.4632 70.0346 24.2571 69.9885C24.0642 69.9453 23.9413 69.806 23.9385 69.5693C23.9355 69.324 23.9666 69.0784 24.0025 68.8193Z" fill="#5EA9A4"/>
<path d="M25.3519 64.2012C25.3718 64.4079 25.253 64.5638 25.1388 64.7915C25.1388 64.1925 25.1388 63.6632 25.1584 63.1149C25.1854 63.3736 25.1899 63.6513 25.2014 63.9288C25.2056 64.0319 25.1555 64.1656 25.3519 64.2012Z" fill="#5EA9A4"/>
<path d="M24.8952 43.5026C24.9315 43.5531 24.9697 43.6252 24.9706 43.6978C24.9766 44.2179 24.9751 44.7381 24.968 45.2899C24.9377 45.2614 24.8968 45.2017 24.8958 45.1413C24.8865 44.6024 24.8842 44.0634 24.8952 43.5026Z" fill="#5EA9A4"/>
<path d="M23.4728 64.1973C23.6091 64.4059 23.7565 64.6294 23.8673 64.8701C24.0028 65.1643 24.1076 65.4728 24.2206 65.8006C24.1422 65.6656 24.07 65.5044 23.9953 65.3445C23.8201 64.9693 23.6436 64.5947 23.4728 64.1973Z" fill="#5EA9A4"/>
<path d="M26.4241 61.3867C26.2348 61.9638 26.0259 62.5506 25.8002 63.1482C25.9068 62.7665 26.0238 62.3716 26.1565 61.9822C26.2247 61.7819 26.321 61.5914 26.4241 61.3867Z" fill="#5EA9A4"/>
<path d="M24.826 41.3229C24.8627 41.3726 24.9022 41.4441 24.9035 41.5163C24.9104 41.9231 24.9081 42.33 24.9013 42.7683C24.8711 42.7402 24.8302 42.6811 24.8288 42.621C24.8184 42.1958 24.8161 41.7704 24.826 41.3229Z" fill="#5EA9A4"/>
<path d="M24.9421 52.0605C24.9567 52.5323 24.9531 53.02 24.9295 53.5266C24.8993 53.38 24.8776 53.2144 24.8811 53.0494C24.888 52.7249 24.9089 52.4008 24.9421 52.0605Z" fill="#5EA9A4"/>
<path d="M24.8101 55.2654C24.8237 55.6922 24.8181 56.1334 24.7918 56.5928C24.7777 56.1672 24.7843 55.7235 24.8101 55.2654Z" fill="#5EA9A4"/>
<path d="M24.7453 56.7658C24.7592 57.192 24.7534 57.6317 24.7273 58.0898C24.6972 57.9434 24.676 57.7785 24.68 57.6141C24.6868 57.3356 24.7095 57.0575 24.7453 56.7658Z" fill="#5EA9A4"/>
<path d="M24.8209 69.5648C24.8047 69.1756 24.8069 68.7688 24.8265 68.3463C24.8424 68.7362 24.8409 69.1417 24.8209 69.5648Z" fill="#5EA9A4"/>
<path d="M25.4086 59.4624C25.3953 59.1044 25.4024 58.7344 25.4299 58.3463C25.4432 58.7022 25.4361 59.0763 25.4086 59.4624Z" fill="#5EA9A4"/>
<path d="M24.8745 53.9004C24.8896 54.2357 24.8865 54.5866 24.8635 54.9563C24.8478 54.6219 24.852 54.269 24.8745 53.9004Z" fill="#5EA9A4"/>
<path d="M12.4886 56.889C12.1427 57.0312 11.781 57.1617 11.3945 57.2907C11.5579 57.2053 11.7427 57.1126 11.935 57.0403C12.11 56.9744 12.2932 56.9307 12.4886 56.889Z" fill="#5EA9A4"/>
<path d="M37.0115 50.6189C36.6872 50.762 36.3466 50.8939 35.9814 51.0241C36.0593 50.962 36.1559 50.8853 36.2656 50.8448C36.5052 50.756 36.7515 50.6857 37.0115 50.6189Z" fill="#5EA9A4"/>
<path d="M16.4953 58.9648C16.8168 59.0665 17.1484 59.1877 17.4908 59.3255C17.1696 59.2228 16.8376 59.1035 16.4953 58.9648Z" fill="#5EA9A4"/>
<path d="M25.3421 60.4853C25.3283 60.2181 25.3345 59.9386 25.3608 59.6409C25.3747 59.9061 25.3684 60.1896 25.3421 60.4853Z" fill="#5EA9A4"/>
<path d="M25.2106 62.6688C25.1956 62.4015 25.2002 62.1207 25.2244 61.8214C25.2394 62.087 25.2347 62.3712 25.2106 62.6688Z" fill="#5EA9A4"/>
<path d="M15.7127 4.28193C15.6922 4.04935 15.6906 3.80659 15.6925 3.53467C15.8324 3.75498 15.7672 4.01408 15.7127 4.28193Z" fill="#5EA9A4"/>
<path d="M25.2749 61.5076C25.2605 61.263 25.2661 61.0061 25.2916 60.731C25.3059 60.9736 25.3004 61.2345 25.2749 61.5076Z" fill="#5EA9A4"/>
<path d="M20.6962 58.9147C20.5299 58.78 20.3647 58.6242 20.1954 58.4485C20.36 58.5836 20.5286 58.7385 20.6962 58.9147Z" fill="#5EA9A4"/>
<path d="M33.6896 54.9643C33.8265 54.7928 33.9847 54.6183 34.1641 54.442C34.0272 54.6139 33.8691 54.7876 33.6896 54.9643Z" fill="#5EA9A4"/>
<path d="M21.2863 61.4774C21.5501 61.4884 21.7408 61.6358 21.874 61.8912C21.6808 61.7749 21.4864 61.6365 21.2863 61.4774Z" fill="#5EA9A4"/>
<path d="M17.8919 56.9977C17.6455 56.9452 17.3897 56.873 17.119 56.7827C17.3636 56.8357 17.6231 56.9068 17.8919 56.9977Z" fill="#5EA9A4"/>
<path d="M30.8076 59.955C30.8823 59.7191 30.9763 59.4729 31.0859 59.2154C31.0099 59.4511 30.9184 59.6979 30.8076 59.955Z" fill="#5EA9A4"/>
<path d="M28.1209 58.065C28.0334 58.2787 27.9256 58.4982 27.7983 58.7242C27.8861 58.5107 27.9934 58.2908 28.1209 58.065Z" fill="#5EA9A4"/>
<path d="M28.9902 64.0444C29.0672 63.8296 29.1632 63.6043 29.2752 63.3683C29.1973 63.5831 29.1032 63.8084 28.9902 64.0444Z" fill="#5EA9A4"/>
<path d="M26.9475 66.7908C27.0603 66.6456 27.1936 66.504 27.3468 66.3593C27.2339 66.5022 27.101 66.6483 26.9475 66.7908Z" fill="#5EA9A4"/>
<path d="M25.3941 38.3365C25.3568 38.1741 25.3342 37.9917 25.3174 37.7804C25.4712 37.9212 25.3919 38.1263 25.3941 38.3365Z" fill="#5EA9A4"/>
<path d="M8.16677 59.2079C8.19826 59.3635 8.18843 59.5368 8.33307 59.6859C8.09881 59.5823 8.07814 59.5295 8.16677 59.2079Z" fill="#5EA9A4"/>
<path d="M38.8082 50.9326C38.8643 50.7674 38.9913 50.6103 38.857 50.3925C39.0573 50.5871 39.0527 50.6884 38.8082 50.9326Z" fill="#5EA9A4"/>
<path d="M30.9546 54.4089C30.8665 54.5316 30.7578 54.6525 30.6298 54.7774C30.7184 54.6567 30.8262 54.5318 30.9546 54.4089Z" fill="#5EA9A4"/>
<path d="M31.5358 58.373C31.5931 58.2065 31.6705 58.034 31.7638 57.851C31.7052 58.0161 31.6306 58.1916 31.5358 58.373Z" fill="#5EA9A4"/>
<path d="M25.3303 37.5888C25.2927 37.4472 25.2694 37.2859 25.2523 37.0961C25.3983 37.2153 25.3327 37.399 25.3303 37.5888Z" fill="#5EA9A4"/>
<path d="M25.6216 63.5064C25.5878 63.6713 25.5347 63.8458 25.4655 64.032C25.5004 63.8679 25.5513 63.6919 25.6216 63.5064Z" fill="#5EA9A4"/>
<path d="M15.6777 58.7002C15.8371 58.7277 16.0088 58.7731 16.1949 58.8364C16.0362 58.8088 15.8631 58.7635 15.6777 58.7002Z" fill="#5EA9A4"/>
<path d="M27.8299 65.797C27.8905 65.6931 27.9722 65.586 28.0721 65.4733C28.0105 65.5764 27.9307 65.6851 27.8299 65.797Z" fill="#5EA9A4"/>
<path d="M19.0657 60.1133C19.1868 60.1544 19.3136 60.2158 19.4482 60.2953C19.3278 60.2535 19.1996 60.1935 19.0657 60.1133Z" fill="#5EA9A4"/>
<path d="M17.7029 59.4441C17.825 59.477 17.9565 59.5293 18.0982 59.5978C17.9764 59.5638 17.8444 59.5137 17.7029 59.4441Z" fill="#5EA9A4"/>
<path d="M14.4415 56.539C14.3412 56.5725 14.2231 56.5928 14.0783 56.6056C14.1756 56.5739 14.2997 56.5498 14.4415 56.539Z" fill="#5EA9A4"/>
<path d="M16.1511 56.5809C16.0392 56.5949 15.9141 56.5917 15.7722 56.5687C15.8829 56.5538 16.0104 56.5587 16.1511 56.5809Z" fill="#5EA9A4"/>
<path d="M25.2589 36.8407C25.2237 36.7403 25.2023 36.6222 25.1876 36.4774C25.2205 36.5747 25.2466 36.6989 25.2589 36.8407Z" fill="#5EA9A4"/>
<path d="M11.1486 57.3612C11.0461 57.4341 10.9236 57.4985 10.7787 57.5597C10.8804 57.4887 11.0046 57.4207 11.1486 57.3612Z" fill="#5EA9A4"/>
<path d="M24.8567 33.2988C24.8216 33.1981 24.7997 33.0793 24.7846 32.9333C24.8175 33.031 24.8437 33.1559 24.8567 33.2988Z" fill="#5EA9A4"/>
<path d="M11.7992 58.3278C11.8973 58.2944 12.0134 58.2737 12.1557 58.2596C12.0603 58.2909 11.9388 58.3157 11.7992 58.3278Z" fill="#5EA9A4"/>
<path d="M21.9009 60.6854C21.8236 60.5878 21.7517 60.4687 21.6798 60.3272C21.7552 60.4245 21.8307 60.5442 21.9009 60.6854Z" fill="#5EA9A4"/>
<path d="M25.1929 36.2275C25.1578 36.1274 25.1359 36.0092 25.1206 35.8641C25.1536 35.9613 25.1799 36.0853 25.1929 36.2275Z" fill="#5EA9A4"/>
<path d="M35.1318 51.4197C35.0355 51.4972 34.9178 51.5696 34.7781 51.6424C34.8742 51.5668 34.9923 51.4908 35.1318 51.4197Z" fill="#5EA9A4"/>
<path d="M25.0547 34.9331C25.0198 34.8349 24.9981 34.7188 24.9818 34.5762C25.1178 34.6482 25.0609 34.7889 25.0547 34.9331Z" fill="#5EA9A4"/>
<path d="M25.1209 35.5457C25.0863 35.4466 25.0652 35.3299 25.0501 35.1867C25.0822 35.2828 25.1084 35.4055 25.1209 35.5457Z" fill="#5EA9A4"/>
<path d="M10.8541 58.5267C10.9568 58.4747 11.0749 58.4339 11.2173 58.3986C11.1175 58.4487 10.9935 58.4933 10.8541 58.5267Z" fill="#5EA9A4"/>
<path d="M22.5183 61.5028C22.4403 61.4506 22.3636 61.3779 22.2866 61.2843C22.3641 61.3363 22.4419 61.4093 22.5183 61.5028Z" fill="#5EA9A4"/>
<path d="M33.4209 55.3087C33.4594 55.2275 33.5185 55.1431 33.5955 55.0529C33.556 55.1332 33.4988 55.2194 33.4209 55.3087Z" fill="#5EA9A4"/>
<path d="M13.5224 58.2895C13.613 58.2749 13.716 58.277 13.8358 58.298C13.7467 58.3134 13.6407 58.3098 13.5224 58.2895Z" fill="#5EA9A4"/>
<path d="M24.9179 33.7755C24.8848 33.6958 24.8647 33.5998 24.8512 33.4782C24.8821 33.5548 24.9065 33.657 24.9179 33.7755Z" fill="#5EA9A4"/>
<path d="M24.9851 34.3208C24.9519 34.2416 24.9317 34.146 24.9178 34.0252C24.9488 34.1014 24.9735 34.203 24.9851 34.3208Z" fill="#5EA9A4"/>
<path d="M27.5583 66.1352C27.5973 66.0545 27.6569 65.971 27.7343 65.8817C27.6944 65.9613 27.6366 66.0469 27.5583 66.1352Z" fill="#5EA9A4"/>
<path d="M15.6453 4.76652C15.634 4.68027 15.6394 4.58643 15.663 4.47897C15.6748 4.56322 15.6685 4.66108 15.6453 4.76652Z" fill="#5EA9A4"/>
<path d="M38.8366 50.3331C38.7439 50.3286 38.6492 50.3043 38.5308 50.2724C38.6372 50.1353 38.736 50.2236 38.8366 50.3331Z" fill="#5EA9A4"/>
<path d="M23.1925 63.7208C23.2501 63.7734 23.3041 63.8468 23.3581 63.9412C23.3017 63.8887 23.2453 63.8151 23.1925 63.7208Z" fill="#5EA9A4"/>
<path d="M19.6725 60.4532C19.7494 60.4724 19.8312 60.5114 19.9198 60.5681C19.8436 60.5482 19.7605 60.5107 19.6725 60.4532Z" fill="#5EA9A4"/>
<path d="M9.80136 58.0274C9.74662 58.0825 9.67201 58.1319 9.57698 58.1806C9.63154 58.1272 9.70652 58.0745 9.80136 58.0274Z" fill="#5EA9A4"/>
<path d="M23.9896 63.5469C23.9338 63.4953 23.883 63.4235 23.831 63.3316C23.8847 63.3832 23.9396 63.455 23.9896 63.5469Z" fill="#5EA9A4"/>
<path d="M19.0347 57.5474C18.9571 57.5289 18.8741 57.4905 18.7838 57.4342C18.8609 57.4534 18.9451 57.4905 19.0347 57.5474Z" fill="#5EA9A4"/>
<path d="M29.5231 62.8122C29.535 62.734 29.5655 62.6469 29.6121 62.5499C29.5994 62.6277 29.5705 62.7155 29.5231 62.8122Z" fill="#5EA9A4"/>
<path d="M10.1046 58.8059C10.1647 58.7542 10.2438 58.7105 10.3435 58.6702C10.2839 58.7203 10.2037 58.7671 10.1046 58.8059Z" fill="#5EA9A4"/>
<path d="M27.7152 58.8108C27.697 58.8897 27.659 58.974 27.6032 59.0656C27.6221 58.9873 27.6587 58.9017 27.7152 58.8108Z" fill="#5EA9A4"/>
<path d="M9.70058 59.0203C9.75522 58.9655 9.8297 58.9162 9.92454 58.8675C9.87007 58.9206 9.79525 58.9732 9.70058 59.0203Z" fill="#5EA9A4"/>
<path d="M38.1317 51.3921C38.1858 51.338 38.2597 51.2891 38.3539 51.2406C38.2999 51.2931 38.2258 51.3452 38.1317 51.3921Z" fill="#5EA9A4"/>
<path d="M27.3821 59.4279C27.3625 59.5057 27.3232 59.5887 27.2661 59.6785C27.2864 59.6012 27.3244 59.5172 27.3821 59.4279Z" fill="#5EA9A4"/>
<path d="M26.6293 60.9111C26.618 60.9892 26.5881 61.0764 26.5422 61.1738C26.5544 61.0961 26.5825 61.0081 26.6293 60.9111Z" fill="#5EA9A4"/>
<path d="M27.1801 59.7691C27.1602 59.8473 27.1203 59.9297 27.0626 60.0189C27.0833 59.9415 27.1217 59.8574 27.1801 59.7691Z" fill="#5EA9A4"/>
<path d="M26.8278 60.4312C26.8171 60.5104 26.7877 60.5987 26.7421 60.6972C26.7535 60.6183 26.7814 60.5293 26.8278 60.4312Z" fill="#5EA9A4"/>
<path d="M34.3914 51.8262C34.3393 51.8823 34.267 51.9334 34.1746 51.9852C34.2268 51.931 34.299 51.8761 34.3914 51.8262Z" fill="#5EA9A4"/>
<path d="M31.9481 57.4995C31.9656 57.4191 32.0021 57.3307 32.0574 57.2358C32.0398 57.3167 32.0034 57.404 31.9481 57.4995Z" fill="#5EA9A4"/>
<path d="M18.3702 57.1995C18.2933 57.1879 18.2082 57.1573 18.1129 57.1108C18.1892 57.1234 18.2756 57.1519 18.3702 57.1995Z" fill="#5EA9A4"/>
<path d="M32.4734 56.6615C32.4964 56.5838 32.5393 56.503 32.6007 56.417C32.5772 56.494 32.5352 56.5762 32.4734 56.6615Z" fill="#5EA9A4"/>
<path d="M33.1505 55.6415C33.1711 55.5839 33.2112 55.5246 33.2691 55.4614C33.248 55.5182 33.2089 55.579 33.1505 55.6415Z" fill="#5EA9A4"/>
<path d="M19.4443 57.8173C19.3855 57.8015 19.3224 57.7659 19.2533 57.7127C19.3114 57.7292 19.3756 57.7633 19.4443 57.8173Z" fill="#5EA9A4"/>
<path d="M32.4414 53.1266C32.4097 53.1807 32.3594 53.2296 32.2909 53.2783C32.3227 53.226 32.3728 53.1737 32.4414 53.1266Z" fill="#5EA9A4"/>
<path d="M23.5133 62.8008C23.4595 62.7654 23.4116 62.7112 23.3645 62.6374C23.4167 62.6726 23.4679 62.7273 23.5133 62.8008Z" fill="#5EA9A4"/>
<path d="M26.4076 67.1984C26.4407 67.1427 26.493 67.0918 26.5646 67.0409C26.5316 67.0951 26.4792 67.1491 26.4076 67.1984Z" fill="#5EA9A4"/>
<path d="M31.3619 54.0737C31.3304 54.1292 31.2797 54.1809 31.2099 54.2337C31.2414 54.1798 31.2921 54.1249 31.3619 54.0737Z" fill="#5EA9A4"/>
<path d="M29.402 56.2248C29.3815 56.2844 29.3412 56.3465 29.2824 56.4125C29.3034 56.3533 29.3427 56.2903 29.402 56.2248Z" fill="#5EA9A4"/>
<path d="M31.9665 53.5208C31.9367 53.5776 31.8871 53.6323 31.8181 53.6885C31.8481 53.6329 31.8975 53.5758 31.9665 53.5208Z" fill="#5EA9A4"/>
<path d="M11.3898 58.394C11.4304 58.3633 11.4837 58.3442 11.559 58.3318C11.5214 58.3608 11.4619 58.3831 11.3898 58.394Z" fill="#5EA9A4"/>
<path d="M13.3683 56.6817C13.3287 56.713 13.277 56.7325 13.2039 56.7461C13.2403 56.7168 13.2983 56.6932 13.3683 56.6817Z" fill="#5EA9A4"/>
<path d="M16.9588 56.7225C16.9084 56.7335 16.8503 56.7287 16.7789 56.7058C16.8275 56.694 16.8893 56.7003 16.9588 56.7225Z" fill="#5EA9A4"/>
<path d="M16.6235 56.6542C16.574 56.6669 16.516 56.664 16.4443 56.6437C16.4921 56.6304 16.5536 56.6346 16.6235 56.6542Z" fill="#5EA9A4"/>
<path d="M13.7729 56.6137C13.7312 56.6443 13.6773 56.6626 13.6016 56.6738C13.64 56.6449 13.7004 56.6231 13.7729 56.6137Z" fill="#5EA9A4"/>
<path d="M14.124 58.3587C14.1747 58.3448 14.2349 58.3459 14.3098 58.365C14.2608 58.3798 14.1972 58.3768 14.124 58.3587Z" fill="#5EA9A4"/>
<path d="M26.1379 67.4082C26.1497 67.3734 26.1792 67.3425 26.2258 67.3113C26.2139 67.3447 26.1848 67.3785 26.1379 67.4082Z" fill="#5EA9A4"/>
<path d="M22.3893 62.5582C22.4237 62.5697 22.454 62.5991 22.4851 62.6454C22.4523 62.6336 22.4188 62.6048 22.3893 62.5582Z" fill="#5EA9A4"/>
<path d="M21.0823 61.3388C21.1187 61.3391 21.1582 61.3577 21.2025 61.393C21.1667 61.3921 21.1261 61.3746 21.0823 61.3388Z" fill="#5EA9A4"/>
<path d="M20.8797 61.2021C20.9161 61.2025 20.9557 61.2213 21.0002 61.2567C20.9643 61.2558 20.9237 61.2381 20.8797 61.2021Z" fill="#5EA9A4"/>
<path d="M20.6753 61.0681C20.712 61.0679 20.7525 61.086 20.7979 61.121C20.7616 61.1207 20.7203 61.1035 20.6753 61.0681Z" fill="#5EA9A4"/>
<path d="M25.868 67.6125C25.8797 67.5776 25.9091 67.5465 25.9558 67.5152C25.9439 67.5487 25.9148 67.5826 25.868 67.6125Z" fill="#5EA9A4"/>
<path d="M20.3458 60.8586C20.3805 60.8574 20.4181 60.8742 20.4614 60.906C20.4276 60.9062 20.3881 60.8913 20.3458 60.8586Z" fill="#5EA9A4"/>
<path d="M22.8544 61.9141C22.8195 61.9032 22.7878 61.8744 22.7563 61.8282C22.7902 61.8393 22.8239 61.8678 22.8544 61.9141Z" fill="#5EA9A4"/>
<path d="M37.9268 51.5346C37.9397 51.5002 37.9698 51.4711 38.0168 51.442C38.0037 51.4747 37.9739 51.5073 37.9268 51.5346Z" fill="#5EA9A4"/>
<path d="M25.5985 67.8168C25.6099 67.7817 25.639 67.7506 25.6851 67.7189C25.6735 67.7525 25.6449 67.7866 25.5985 67.8168Z" fill="#5EA9A4"/>
<path d="M20.1368 60.7271C20.1731 60.726 20.2132 60.743 20.2586 60.7764C20.2228 60.777 20.1817 60.7612 20.1368 60.7271Z" fill="#5EA9A4"/>
<path d="M25.1916 68.0709C25.2071 68.0385 25.2382 68.0145 25.2847 67.9919C25.2691 68.0219 25.2381 68.0507 25.1916 68.0709Z" fill="#5EA9A4"/>
<path d="M33.4523 52.4444C33.4393 52.478 33.4096 52.5052 33.3639 52.5325C33.3772 52.5011 33.4064 52.4696 33.4523 52.4444Z" fill="#5EA9A4"/>
<path d="M37.5576 50.4875C37.5342 50.5158 37.5014 50.533 37.4497 50.5443C37.4699 50.5178 37.509 50.4971 37.5576 50.4875Z" fill="#5EA9A4"/>
<path d="M28.8365 64.2986C28.8372 64.2623 28.8561 64.2233 28.8912 64.1794C28.8898 64.215 28.8722 64.2554 28.8365 64.2986Z" fill="#5EA9A4"/>
<path d="M38.0959 50.3472C38.0735 50.3761 38.041 50.3946 37.9892 50.4078C38.0085 50.3806 38.0472 50.3587 38.0959 50.3472Z" fill="#5EA9A4"/>
<path d="M28.7054 64.5075C28.7042 64.4709 28.7209 64.4304 28.7537 64.3844C28.7544 64.4205 28.7389 64.462 28.7054 64.5075Z" fill="#5EA9A4"/>
<path d="M28.5035 64.8481C28.5006 64.8121 28.5154 64.772 28.5455 64.7255C28.5475 64.7607 28.5343 64.8023 28.5035 64.8481Z" fill="#5EA9A4"/>
<path d="M23.0635 63.5124C23.0976 63.5269 23.1267 63.5591 23.1544 63.6091C23.1215 63.5945 23.09 63.5623 23.0635 63.5124Z" fill="#5EA9A4"/>
<path d="M37.8271 50.416C37.8021 50.4441 37.7672 50.461 37.7125 50.4709C37.7343 50.4442 37.7758 50.4245 37.8271 50.416Z" fill="#5EA9A4"/>
<path d="M28.3021 65.1907C28.2994 65.1539 28.3147 65.1132 28.3456 65.0666C28.3476 65.1027 28.3338 65.1447 28.3021 65.1907Z" fill="#5EA9A4"/>
<path d="M22.9297 63.307C22.9638 63.3209 22.9928 63.3525 23.0208 63.4014C22.9882 63.3874 22.9564 63.356 22.9297 63.307Z" fill="#5EA9A4"/>
<path d="M28.1636 65.3889C28.1649 65.352 28.1845 65.3128 28.2206 65.2693C28.2187 65.3056 28.2002 65.3462 28.1636 65.3889Z" fill="#5EA9A4"/>
<path d="M38.3663 50.2798C38.3426 50.3084 38.3093 50.326 38.2565 50.3375C38.277 50.3105 38.3168 50.2897 38.3663 50.2798Z" fill="#5EA9A4"/>
<path d="M37.2877 50.5593C37.2642 50.587 37.232 50.6034 37.1814 50.6138C37.2016 50.5879 37.2403 50.5679 37.2877 50.5593Z" fill="#5EA9A4"/>
<path d="M23.7827 63.2115C23.7496 63.1976 23.7231 63.167 23.697 63.1201C23.728 63.1341 23.7586 63.1644 23.7827 63.2115Z" fill="#5EA9A4"/>
<path d="M22.7892 63.1044C22.824 63.1173 22.8552 63.1485 22.8858 63.1976C22.852 63.1847 22.8188 63.1536 22.7892 63.1044Z" fill="#5EA9A4"/>
<path d="M29.3871 63.1547C29.3787 63.1195 29.3873 63.0772 29.4101 63.0261C29.4175 63.0607 29.4107 63.1042 29.3871 63.1547Z" fill="#5EA9A4"/>
<path d="M23.6494 63.0066C23.6163 62.9935 23.5891 62.9636 23.5622 62.9173C23.5934 62.9306 23.6243 62.9602 23.6494 63.0066Z" fill="#5EA9A4"/>
<path d="M22.595 62.8295C22.6285 62.8417 22.6572 62.8711 22.6851 62.9169C22.6529 62.9045 22.6215 62.8755 22.595 62.8295Z" fill="#5EA9A4"/>
<path d="M26.7448 66.9338C26.7582 66.899 26.7896 66.8679 26.8389 66.8376C26.8255 66.8714 26.7942 66.9045 26.7448 66.9338Z" fill="#5EA9A4"/>
<path d="M23.3199 62.528C23.2855 62.5162 23.2555 62.4865 23.2253 62.4398C23.2581 62.4519 23.2912 62.4811 23.3199 62.528Z" fill="#5EA9A4"/>
<path d="M22.1176 62.2183C22.1519 62.2291 22.1826 62.2574 22.213 62.3025C22.1798 62.2915 22.1469 62.2636 22.1176 62.2183Z" fill="#5EA9A4"/>
<path d="M23.1194 62.2555C23.0853 62.2437 23.055 62.2143 23.0244 62.1676C23.0572 62.1795 23.0901 62.2086 23.1194 62.2555Z" fill="#5EA9A4"/>
<path d="M35.6384 53.1786C35.6509 53.1435 35.6815 53.1113 35.7301 53.0796C35.7175 53.1139 35.687 53.1476 35.6384 53.1786Z" fill="#5EA9A4"/>
<path d="M32.8447 52.8454C32.8299 52.8796 32.7977 52.9085 32.748 52.9364C32.7628 52.9035 32.795 52.8719 32.8447 52.8454Z" fill="#5EA9A4"/>
<path d="M32.642 52.978C32.6302 53.013 32.6007 53.0441 32.5539 53.0755C32.5659 53.0419 32.5951 53.008 32.642 52.978Z" fill="#5EA9A4"/>
<path d="M19.908 58.1652C19.8717 58.1625 19.8333 58.1414 19.7912 58.1033C19.8269 58.1065 19.8665 58.1266 19.908 58.1652Z" fill="#5EA9A4"/>
<path d="M35.8385 53.0333C35.8504 52.999 35.8795 52.9693 35.9253 52.9392C35.9132 52.9719 35.8845 53.0049 35.8385 53.0333Z" fill="#5EA9A4"/>
<path d="M19.6426 57.9581C19.606 57.9567 19.5666 57.9369 19.5233 57.9001C19.5595 57.902 19.5996 57.9209 19.6426 57.9581Z" fill="#5EA9A4"/>
<path d="M28.3223 57.7175C28.3237 57.7542 28.307 57.7946 28.2744 57.8407C28.2736 57.8046 28.2889 57.7629 28.3223 57.7175Z" fill="#5EA9A4"/>
<path d="M28.4575 57.5142C28.4567 57.5512 28.4379 57.5917 28.4021 57.6365C28.4032 57.5998 28.4213 57.5587 28.4575 57.5142Z" fill="#5EA9A4"/>
<path d="M28.5953 57.3138C28.5947 57.3504 28.5759 57.3894 28.5409 57.4329C28.5422 57.397 28.5597 57.3566 28.5953 57.3138Z" fill="#5EA9A4"/>
<path d="M28.7296 57.108C28.7304 57.1441 28.7132 57.1836 28.6802 57.2285C28.6802 57.1931 28.6959 57.1522 28.7296 57.108Z" fill="#5EA9A4"/>
<path d="M32.14 57.1507C32.1398 57.114 32.1578 57.074 32.1921 57.0289C32.1916 57.065 32.1749 57.1062 32.14 57.1507Z" fill="#5EA9A4"/>
<path d="M28.8655 56.9071C28.865 56.9431 28.8465 56.9816 28.8122 57.0249C28.8134 56.9897 28.8304 56.9495 28.8655 56.9071Z" fill="#5EA9A4"/>
<path d="M32.2721 56.9422C32.2738 56.906 32.2937 56.8668 32.3301 56.8235C32.3278 56.8593 32.309 56.8993 32.2721 56.9422Z" fill="#5EA9A4"/>
<path d="M9.19933 58.3726C9.18504 58.4054 9.15447 58.4314 9.108 58.457C9.12242 58.4262 9.15274 58.396 9.19933 58.3726Z" fill="#5EA9A4"/>
<path d="M12.7648 56.8174C12.7413 56.8464 12.7081 56.8645 12.6553 56.8768C12.6755 56.8494 12.7152 56.828 12.7648 56.8174Z" fill="#5EA9A4"/>
<path d="M35.0985 53.6518C35.1103 53.6175 35.14 53.5858 35.187 53.5539C35.1751 53.5873 35.1457 53.6209 35.0985 53.6518Z" fill="#5EA9A4"/>
<path d="M13.0349 56.7522C13.0111 56.7809 12.9779 56.7983 12.9255 56.8095C12.946 56.7825 12.9858 56.7616 13.0349 56.7522Z" fill="#5EA9A4"/>
<path d="M29.0662 56.6361C29.0641 56.6723 29.0442 56.7104 29.0078 56.7522C29.0103 56.7166 29.0294 56.6773 29.0662 56.6361Z" fill="#5EA9A4"/>
<path d="M34.7621 53.9288C34.7729 53.8936 34.8019 53.8603 34.8485 53.8265C34.8375 53.8608 34.8089 53.8957 34.7621 53.9288Z" fill="#5EA9A4"/>
<path d="M32.6812 56.3365C32.6809 56.299 32.6989 56.2578 32.7337 56.2119C32.7336 56.2491 32.7165 56.291 32.6812 56.3365Z" fill="#5EA9A4"/>
<path d="M32.8127 56.126C32.8116 56.0903 32.8282 56.0512 32.8603 56.0065C32.8607 56.0414 32.8455 56.082 32.8127 56.126Z" fill="#5EA9A4"/>
<path d="M29.6771 55.8888C29.6749 55.9247 29.6547 55.9621 29.6185 56.0038C29.6213 55.9689 29.6402 55.9296 29.6771 55.8888Z" fill="#5EA9A4"/>
<path d="M32.9445 55.9188C32.944 55.8832 32.9614 55.8451 32.994 55.8017C32.9936 55.8363 32.9779 55.8764 32.9445 55.9188Z" fill="#5EA9A4"/>
<path d="M29.8785 55.6149C29.8765 55.6509 29.8564 55.6888 29.8203 55.731C29.8229 55.6957 29.8416 55.6563 29.8785 55.6149Z" fill="#5EA9A4"/>
<path d="M30.1445 55.2758C30.1414 55.312 30.1206 55.3497 30.083 55.3904C30.0864 55.3548 30.1065 55.316 30.1445 55.2758Z" fill="#5EA9A4"/>
<path d="M8.52434 58.8367C8.51237 58.8708 8.48318 58.9011 8.43728 58.9309C8.44942 58.8979 8.47827 58.8655 8.52434 58.8367Z" fill="#5EA9A4"/>
<path d="M37.3882 51.8756C37.4022 51.8416 37.4336 51.8125 37.4821 51.7843C37.4681 51.8169 37.4369 51.8487 37.3882 51.8756Z" fill="#5EA9A4"/>
<path d="M21.5616 60.0773C21.5285 60.0629 21.5015 60.0315 21.4753 59.9834C21.5066 59.9979 21.5371 60.0291 21.5616 60.0773Z" fill="#5EA9A4"/>
<path d="M21.4321 59.8721C21.3983 59.8587 21.3693 59.8278 21.3407 59.7798C21.3731 59.7933 21.405 59.8239 21.4321 59.8721Z" fill="#5EA9A4"/>
<path d="M37.1206 52.0887C37.1308 52.0532 37.159 52.0203 37.2046 51.9864C37.1942 52.0208 37.1664 52.0561 37.1206 52.0887Z" fill="#5EA9A4"/>
<path d="M21.2937 59.6691C21.2601 59.657 21.2318 59.6279 21.2031 59.5824C21.2348 59.5947 21.2668 59.6234 21.2937 59.6691Z" fill="#5EA9A4"/>
<path d="M8.88995 59.5749C8.90127 59.5409 8.93014 59.51 8.97584 59.4784C8.96428 59.5111 8.9359 59.5445 8.88995 59.5749Z" fill="#5EA9A4"/>
<path d="M33.9885 52.0898C33.9761 52.1248 33.9459 52.1567 33.8979 52.1883C33.9103 52.1542 33.9405 52.1204 33.9885 52.0898Z" fill="#5EA9A4"/>
<path d="M9.16017 59.3722C9.17332 59.3378 9.20426 59.3071 9.25269 59.2769C9.23944 59.3102 9.20871 59.343 9.16017 59.3722Z" fill="#5EA9A4"/>
<path d="M36.8473 52.2754C36.8605 52.2424 36.8901 52.2159 36.9354 52.1894C36.9219 52.2202 36.8928 52.2511 36.8473 52.2754Z" fill="#5EA9A4"/>
<path d="M21.0376 59.3249C21.0023 59.3142 20.9694 59.2851 20.9358 59.2381C20.9701 59.249 21.0051 59.2777 21.0376 59.3249Z" fill="#5EA9A4"/>
<path d="M9.36218 59.232C9.37648 59.1981 9.40806 59.169 9.45687 59.141C9.44256 59.1737 9.41101 59.2053 9.36218 59.232Z" fill="#5EA9A4"/>
<path d="M36.5127 52.4903C36.5264 52.4561 36.5576 52.4263 36.6062 52.3971C36.5925 52.4301 36.5614 52.4624 36.5127 52.4903Z" fill="#5EA9A4"/>
<path d="M37.5907 51.742C37.6045 51.7078 37.6359 51.6777 37.6849 51.6484C37.6711 51.6815 37.6398 51.7138 37.5907 51.742Z" fill="#5EA9A4"/>
<path d="M33.2512 52.5808C33.2379 52.6142 33.2079 52.6415 33.1619 52.6688C33.1753 52.6374 33.2049 52.6061 33.2512 52.5808Z" fill="#5EA9A4"/>
<path d="M15.4067 58.6233C15.4389 58.6123 15.4765 58.6156 15.5252 58.6353C15.4949 58.6469 15.4534 58.6423 15.4067 58.6233Z" fill="#5EA9A4"/>
<path d="M8.79493 58.6383C8.78246 58.6722 8.75292 58.7009 8.70701 58.7299C8.71971 58.6979 8.74878 58.6655 8.79493 58.6383Z" fill="#5EA9A4"/>
<path d="M31.3967 58.6452C31.3918 58.6113 31.4043 58.5736 31.4301 58.5287C31.4337 58.5614 31.4239 58.6014 31.3967 58.6452Z" fill="#5EA9A4"/>
<path d="M15.1374 58.5552C15.1691 58.5439 15.2063 58.5469 15.2548 58.5655C15.2251 58.5773 15.184 58.5733 15.1374 58.5552Z" fill="#5EA9A4"/>
<path d="M10.5744 58.6094C10.5977 58.5793 10.6376 58.5573 10.695 58.542C10.672 58.5717 10.6315 58.5946 10.5744 58.6094Z" fill="#5EA9A4"/>
<path d="M14.8631 58.4928C14.8956 58.4805 14.9346 58.482 14.9857 58.5001C14.9551 58.5133 14.9124 58.51 14.8631 58.4928Z" fill="#5EA9A4"/>
<path d="M8.99632 58.5023C8.9827 58.5357 8.952 58.5641 8.90464 58.592C8.9184 58.5601 8.94882 58.5286 8.99632 58.5023Z" fill="#5EA9A4"/>
<path d="M33.0487 52.7152C33.0345 52.7485 33.0033 52.7758 32.9557 52.8025C32.9701 52.771 33.001 52.7402 33.0487 52.7152Z" fill="#5EA9A4"/>
<path d="M14.5266 58.4256C14.5586 58.4125 14.5972 58.413 14.6481 58.4296C14.618 58.4436 14.5756 58.4414 14.5266 58.4256Z" fill="#5EA9A4"/>
<path d="M36.1071 52.8295C36.1182 52.7958 36.1462 52.7663 36.1904 52.7372C36.1791 52.7697 36.1516 52.8018 36.1071 52.8295Z" fill="#5EA9A4"/>
<path d="M9.46973 13.1715C9.24995 12.8524 9.08222 12.5382 9.00811 12.174C8.85039 11.3989 9.04006 10.7092 9.52952 10.1148C9.84239 9.73483 10.2618 9.48927 10.7448 9.37008C12.1476 9.02396 13.6137 10.0265 13.6429 11.6543C13.6604 12.6277 13.1332 13.4674 12.197 13.8661C11.3491 14.2272 10.3285 14.0344 9.67332 13.3848C9.60931 13.3213 9.54797 13.2551 9.46973 13.1715Z" fill="var(--fill-0, #AA7504)"/>
</g>
</svg>
