<svg preserveAspectRatio="none" width="100%" height="100%" overflow="visible" style="display: block;" viewBox="0 0 32 57" fill="none" xmlns="http://www.w3.org/2000/svg">
<g id="Vector">
<path d="M12.8234 3.88749C12.8212 3.91887 12.8191 3.95026 12.7966 4.01644C12.7195 4.25483 12.6498 4.45589 12.6096 4.66273C12.5711 4.86102 12.4088 5.02993 12.452 5.24778C12.4808 5.25232 12.4926 5.25811 12.498 5.25441C12.5355 5.22848 12.5717 5.20068 12.6082 5.17333C13.1027 4.80294 13.6091 4.45947 14.2059 4.26358C14.6938 4.10343 15.1905 4.0249 15.6892 4.1228C16.348 4.25215 16.8938 4.61197 17.3413 5.10864C17.5995 5.39533 17.8101 5.71841 17.9987 6.0593C18.2528 6.51849 18.4255 7.00197 18.4469 7.52179C18.4646 7.95243 18.4532 8.39101 18.3912 8.81678C18.2745 9.61929 17.8901 10.2882 17.1984 10.7253C16.3989 11.2305 15.5067 11.3605 14.5766 11.248C14.4735 11.2355 14.3787 11.2044 14.3143 11.3408C14.3584 11.3775 14.3945 11.4176 14.4389 11.443C15.0137 11.7715 15.5065 12.1959 15.8975 12.7306C16.2424 13.2021 16.4666 13.7162 16.359 14.3239C16.3494 14.3778 16.3549 14.4346 16.3556 14.49C16.3596 14.8174 16.2755 15.1297 16.1612 15.4293C15.9487 15.9861 15.5941 16.4554 15.2018 16.8958C14.8305 17.3126 14.343 17.5608 13.8429 17.7718C13.2013 18.0425 12.5358 18.1973 11.8301 18.0484C11.3144 17.9396 10.8564 17.734 10.4801 17.3512C9.90421 16.7652 9.54252 16.0622 9.31361 15.281C9.26037 15.0993 9.19427 14.9214 9.13408 14.7418C9.02512 14.91 8.96582 15.0793 8.90518 15.2481C8.64403 15.9754 8.30436 16.654 7.72712 17.1889C7.09472 17.7748 6.33293 17.9544 5.50587 17.8609C4.99295 17.803 4.50785 17.6158 4.05175 17.3689C3.80314 17.2343 3.56284 17.0843 3.31879 16.9412C3.30364 16.933 3.28849 16.9247 3.25143 16.885C3.09255 16.693 2.95063 16.5366 2.81952 16.3714C2.4103 15.856 2.08281 15.3004 1.93377 14.6466C1.77638 13.9562 1.8878 13.3209 2.24154 12.7133C2.4968 12.2748 2.8642 11.9434 3.23131 11.6098C3.30436 11.5435 3.40403 11.5055 3.39274 11.3637C3.33732 11.3539 3.28665 11.3394 3.23542 11.337C2.75643 11.3148 2.29216 11.2241 1.84542 11.0463C1.29763 10.8284 0.863992 10.4652 0.551675 9.97062C0.240497 9.4779 0.110484 8.9205 0.0949082 8.34287C0.086028 8.01352 0.136853 7.68297 0.140779 7.35271C0.143931 7.08756 0.220754 6.84193 0.318627 6.60685C0.590003 5.95504 0.964785 5.37286 1.4942 4.89368C2.1537 4.29677 2.91391 4.03678 3.7926 4.18001C4.36058 4.27258 4.88273 4.49635 5.36186 4.81932C5.5128 4.92105 5.67081 5.01223 5.82558 5.10824C5.84142 5.11669 5.85727 5.12514 5.8964 5.16586C5.98264 5.27158 6.03685 5.36916 6.15655 5.29773C6.15853 5.26666 6.16455 5.24718 6.15997 5.23067C6.14273 5.16866 6.12717 5.10539 6.10187 5.04653C5.82121 4.39368 5.71587 3.71323 5.72127 3.00226C5.72777 2.14569 6.0736 1.46001 6.72338 0.943914C7.44222 0.372964 8.29933 0.107325 9.20357 0.0752246C10.0739 0.0443295 10.8935 0.303582 11.6172 0.789535C12.1429 1.14258 12.5625 1.60637 12.7394 2.24457C12.7779 2.38366 12.821 2.52147 12.862 2.65986C12.8683 2.70839 12.8745 2.75691 12.8769 2.85371C12.8743 3.09965 12.8756 3.29733 12.8769 3.495C12.8765 3.52653 12.8761 3.55806 12.8563 3.62392C12.8324 3.73466 12.8279 3.81108 12.8234 3.88749ZM7.78289 10.7406C7.83423 10.7935 7.88456 10.8474 7.93708 10.8991C8.47468 11.428 9.31208 11.585 10.0078 11.2909C10.776 10.9663 11.2086 10.2826 11.1942 9.48995C11.1702 8.16442 9.96723 7.34808 8.81628 7.62992C8.41996 7.72697 8.07581 7.92693 7.8191 8.23631C7.41748 8.72031 7.26186 9.28193 7.39127 9.91312C7.45208 10.2097 7.5897 10.4655 7.78289 10.7406Z" fill="#4B91F0"/>
<path d="M18.3741 50.9257C18.3317 50.8767 18.2892 50.8277 18.2365 50.7485C18.2011 50.6953 18.176 50.6723 18.1508 50.6492C18.0908 50.5818 18.0308 50.5144 17.9589 50.4131C17.8386 50.1891 17.6821 50.0691 17.4609 50.0433C17.4498 50.0386 17.4388 50.0339 17.4104 50.0036C17.3606 49.9627 17.3282 49.9476 17.2957 49.9324C17.2845 49.9278 17.2733 49.9231 17.2445 49.8927C17.1944 49.8516 17.1619 49.8364 17.1294 49.8211C17.1182 49.8166 17.1071 49.812 17.0785 49.7819C17.0277 49.7414 16.9944 49.7267 16.9612 49.7119C16.9148 49.6864 16.8684 49.6608 16.8031 49.6089C16.7533 49.569 16.7224 49.5554 16.6916 49.5417C16.6797 49.5369 16.6679 49.5322 16.6371 49.5017C16.5852 49.4622 16.5523 49.4483 16.5194 49.4344C16.4727 49.41 16.426 49.3855 16.3591 49.3332C16.2718 49.2736 16.2047 49.2418 16.1376 49.21C16.0898 49.1863 16.042 49.1626 15.9727 49.1108C15.8471 49.0328 15.743 48.9829 15.6389 48.9329C15.3903 48.8115 15.1416 48.6901 14.8672 48.5426C14.7335 48.4738 14.6257 48.4313 14.5178 48.3888C14.4769 48.3749 14.436 48.3611 14.3689 48.3208C14.0705 48.1957 13.7984 48.097 13.5262 47.9984C13.463 47.9788 13.3998 47.9593 13.3065 47.9174C13.1354 47.8581 12.9945 47.8211 12.8536 47.7842C12.8297 47.7801 12.8057 47.7761 12.7557 47.7524C12.6987 47.7299 12.6678 47.7272 12.637 47.7244C12.612 47.721 12.587 47.7175 12.5347 47.6951C12.4769 47.6739 12.4464 47.6715 12.4159 47.6691C12.3911 47.6665 12.3663 47.6639 12.3138 47.6418C12.254 47.6211 12.222 47.6198 12.19 47.6185C12.1494 47.6134 12.1088 47.6083 12.0385 47.5843C11.9772 47.5649 11.9455 47.5644 11.9138 47.564C11.8734 47.5595 11.833 47.5551 11.761 47.5309C11.6799 47.5103 11.6305 47.5093 11.5811 47.5084C11.5236 47.5042 11.4661 47.4999 11.3736 47.4758C11.2542 47.4541 11.1696 47.4524 11.0851 47.4507C10.739 47.4497 10.3928 47.4487 9.99948 47.4411C9.85713 47.4514 9.7619 47.4683 9.66667 47.4852C9.6257 47.4914 9.58473 47.4976 9.50504 47.4985C9.42256 47.5088 9.3788 47.5244 9.33505 47.54C9.31056 47.5455 9.28607 47.551 9.2228 47.5526C9.08711 47.5819 8.99022 47.6151 8.89334 47.6484C8.87067 47.6558 8.848 47.6632 8.79315 47.6676C8.72826 47.6824 8.69553 47.7003 8.66281 47.7182C8.62398 47.7356 8.58515 47.7531 8.50821 47.771C8.40518 47.8071 8.34027 47.8427 8.27535 47.8784C8.25085 47.8937 8.22636 47.9089 8.16418 47.9294C8.06539 47.9747 8.00428 48.0148 7.94316 48.0549C7.89923 48.085 7.85531 48.1151 7.77836 48.151C7.71943 48.1805 7.69352 48.2042 7.66762 48.2279C7.65845 48.2363 7.64928 48.2446 7.60885 48.2605C7.55221 48.2929 7.52682 48.3179 7.50143 48.343C7.47214 48.3674 7.44284 48.3918 7.38226 48.4246C7.32729 48.4582 7.3036 48.4833 7.27991 48.5085C7.17184 48.6269 7.04546 48.6908 6.85687 48.6134C6.71871 48.48 6.72678 48.3389 6.71635 48.2034C6.76998 48.1375 6.82359 48.0715 6.90691 47.9963C6.96056 47.9623 6.98451 47.9376 7.00845 47.9129C7.03744 47.888 7.06642 47.8631 7.12652 47.8304C7.18188 47.7993 7.20612 47.7759 7.23036 47.7526C7.23963 47.7438 7.2489 47.7351 7.2891 47.7187C7.34523 47.6879 7.37042 47.6648 7.39561 47.6417C7.40528 47.6331 7.41495 47.6245 7.45545 47.6085C7.51136 47.5799 7.53644 47.5587 7.56152 47.5375C7.6419 47.4875 7.72228 47.4374 7.83873 47.3818C7.93601 47.3359 7.99722 47.2957 8.05844 47.2555C8.30118 47.1292 8.54392 47.0028 8.82458 46.8745C8.96297 46.8202 9.06343 46.7678 9.16389 46.7154C9.20414 46.696 9.24439 46.6766 9.32716 46.6547C9.66647 46.546 9.96326 46.4397 10.26 46.3334C10.2837 46.3263 10.3073 46.3192 10.3654 46.3154C10.4271 46.304 10.4544 46.2892 10.4817 46.2745C10.5055 46.2682 10.5292 46.262 10.5871 46.2599C10.6485 46.25 10.6758 46.2359 10.7031 46.2217C10.728 46.2155 10.7528 46.2092 10.8146 46.2077C10.894 46.1965 10.9364 46.1806 10.9788 46.1648C11.0195 46.1574 11.0601 46.15 11.1395 46.1485C11.2224 46.1395 11.2666 46.1247 11.3108 46.1098C11.369 46.1016 11.4272 46.0934 11.5293 46.0922C11.6702 46.0827 11.7671 46.0662 11.864 46.0497C12.2012 46.0457 12.5383 46.0417 12.9153 46.0584C13.0578 46.0818 13.1603 46.0844 13.2629 46.0871C13.3216 46.0907 13.3803 46.0942 13.4715 46.1181C13.5516 46.1407 13.5991 46.1431 13.6467 46.1454C13.6714 46.1466 13.6961 46.1479 13.7495 46.1694C13.8259 46.1934 13.8736 46.1973 13.9213 46.2012C13.9468 46.2039 13.9723 46.2067 14.0282 46.2307C14.2685 46.3108 14.4783 46.3697 14.6882 46.4285C14.7307 46.4414 14.7733 46.4543 14.8431 46.4923C14.9401 46.5424 15.0099 46.5673 15.0797 46.5923C15.1781 46.6373 15.2765 46.6823 15.3966 46.7549C15.4864 46.8137 15.5545 46.845 15.6226 46.8762C15.6695 46.9018 15.7163 46.9273 15.7828 46.9809C15.8543 47.038 15.9061 47.067 15.9579 47.096C15.9686 47.1006 15.9793 47.1052 16.0062 47.1354C16.0547 47.1772 16.087 47.1933 16.1193 47.2094C16.1502 47.2297 16.181 47.2501 16.2269 47.2984C16.2735 47.3437 16.305 47.3609 16.3365 47.378C16.4055 47.4344 16.4744 47.4908 16.5587 47.5785C16.7095 47.7368 16.845 47.8637 16.9805 47.9906C17.0407 48.0564 17.1008 48.1222 17.1698 48.2196C17.2057 48.275 17.2326 48.2987 17.2596 48.3224C17.3007 48.371 17.3418 48.4196 17.3903 48.4993C17.421 48.5541 17.4442 48.5778 17.4674 48.6016C17.4764 48.6108 17.4853 48.6199 17.5021 48.6605C17.5338 48.717 17.5575 48.7421 17.5813 48.7672C17.5897 48.7766 17.5982 48.786 17.6133 48.8263C17.6423 48.8828 17.6644 48.9084 17.6866 48.934C17.7164 48.9783 17.7462 49.0227 17.7823 49.1044C17.8476 49.2388 17.9065 49.3358 17.9655 49.4328C18.0649 49.5734 18.1642 49.714 18.2751 49.8873C18.3496 49.9791 18.4125 50.0384 18.4754 50.0976C18.5342 50.1648 18.593 50.232 18.6617 50.3296C18.6977 50.3834 18.7237 50.4069 18.7497 50.4303C18.7917 50.478 18.8338 50.5257 18.8839 50.6048C18.9169 50.6602 18.9418 50.6842 18.9667 50.7082C18.9917 50.737 19.0167 50.7657 19.0493 50.8261C19.0815 50.8819 19.1061 50.906 19.1307 50.9301C19.1392 50.9388 19.1477 50.9474 19.1631 50.9883C19.2095 51.0648 19.2488 51.109 19.2882 51.1531C19.2974 51.163 19.3066 51.1729 19.3243 51.2144C19.3552 51.2703 19.3775 51.2947 19.3999 51.3191C19.4089 51.3289 19.418 51.3386 19.4352 51.3797C19.4651 51.436 19.4869 51.4609 19.5086 51.4858C19.5176 51.4961 19.5266 51.5063 19.5451 51.5514C19.5963 51.6448 19.638 51.7033 19.6796 51.7618C19.7084 51.8066 19.7371 51.8514 19.7724 51.9344C19.8276 52.0857 19.8665 52.2082 20.0144 52.2494C20.0309 52.2012 20.0456 52.1766 20.0469 52.1514C20.0861 51.3791 20.1243 50.6067 20.162 49.8344C20.1835 49.3929 20.2036 48.9513 20.2244 48.5098C20.2253 48.4914 20.2282 48.4731 20.2289 48.4546C20.2414 48.1149 20.2538 47.7751 20.2662 47.4354C20.2656 47.4088 20.2649 47.3823 20.285 47.3212C20.3105 46.9287 20.3152 46.5706 20.32 46.2126C20.319 46.1869 20.3181 46.1611 20.338 46.1016C20.3635 45.7086 20.3681 45.3494 20.3728 44.9901C20.3739 44.93 20.375 44.8698 20.3966 44.7723C20.4197 44.4491 20.4222 44.1634 20.4248 43.8776C20.4265 43.8006 20.4281 43.7236 20.4506 43.6086C20.4743 43.1735 20.4773 42.7763 20.4802 42.3791C20.4805 41.1247 20.4814 39.8702 20.4808 38.6158C20.4806 38.0623 20.4774 37.5088 20.4843 36.9043C20.4924 36.4296 20.4936 36.006 20.4887 35.5825C20.488 35.5234 20.4566 35.4647 20.4394 35.4058C20.4334 35.2376 20.4274 35.0693 20.4298 34.8505C20.4374 34.4687 20.4393 34.1374 20.4336 33.8061C20.4326 33.7473 20.4001 33.6891 20.3822 33.6306C20.378 33.5886 20.3739 33.5466 20.3766 33.4581C20.3662 33.1177 20.349 32.8237 20.3316 32.5297C20.311 32.1802 20.2928 31.8306 20.2684 31.4814C20.2524 31.252 20.23 31.0229 20.2056 30.7942C20.1568 30.3372 20.1021 29.8809 20.0547 29.4238C20.011 29.0029 19.9833 28.5801 19.9314 28.1603C19.8513 27.5128 19.7692 26.865 19.6649 26.2211C19.5355 25.4227 19.3962 24.6254 19.2359 23.8327C19.0603 22.9645 18.8004 22.118 18.5231 21.2771C18.0697 19.9022 17.6223 18.5253 17.1668 17.1511C17.1156 16.9967 17.0277 16.8545 16.9569 16.7067C16.9372 16.6679 16.9176 16.6291 16.8963 16.5489C16.7379 16.1645 16.5791 15.8223 16.426 15.4776C16.3935 15.4045 16.3513 15.3157 16.3661 15.2453C16.4142 15.0174 16.4868 14.7947 16.5629 14.5237C16.6316 14.6287 16.687 14.6978 16.7256 14.7753C16.8322 14.9896 16.9277 15.2095 17.0351 15.4234C17.3786 16.1075 17.6685 16.813 17.9057 17.5415C18.2335 18.5481 18.5776 19.5495 18.9007 20.5576C19.1309 21.2758 19.3576 21.9962 19.5509 22.725C19.8549 23.8707 20.0725 25.0352 20.2256 26.2115C20.2464 26.3714 20.2941 26.5278 20.3293 26.6858C20.3339 26.7099 20.3384 26.734 20.3367 26.7987C20.3485 26.936 20.3664 27.0327 20.3844 27.1295C20.3887 27.1539 20.3931 27.1783 20.3914 27.2422C20.4018 27.3598 20.4183 27.438 20.4348 27.5162C20.4405 27.5584 20.4461 27.6007 20.446 27.6849C20.4568 27.8046 20.4733 27.8824 20.4899 27.9602C20.4947 28.0034 20.4995 28.0466 20.4989 28.1332C20.5113 28.271 20.5291 28.3656 20.5469 28.4601C20.5516 28.5026 20.5563 28.5451 20.555 28.6306C20.5663 28.7686 20.5836 28.8636 20.6009 28.9586C20.6071 29.018 20.6133 29.0775 20.6129 29.1812C20.6243 29.3218 20.6423 29.418 20.6603 29.5142C20.665 29.5559 20.6697 29.5975 20.6678 29.682C20.6788 29.821 20.6964 29.9171 20.7139 30.0132C20.7186 30.0557 20.7232 30.0983 20.7213 30.1854C20.7339 30.3614 20.753 30.4927 20.772 30.6241C20.7753 30.6499 20.7785 30.6757 20.7751 30.7446C20.7871 30.9361 20.8056 31.0846 20.8242 31.2332C20.829 31.2759 20.8339 31.3186 20.8316 31.4076C20.8261 31.5831 20.8201 31.7129 20.8306 31.8414C20.8796 32.4368 20.949 33.031 20.9809 33.6272C21.0178 34.3174 21.0411 35.0093 21.0389 35.7003C21.0303 38.4695 21.1133 41.2391 20.9938 44.0077C20.9644 44.6891 20.9506 45.3712 20.9295 46.053C20.9286 46.0807 20.9255 46.1083 20.9247 46.1359C20.9123 46.5496 20.9 46.9634 20.8877 47.3771C20.8887 47.4036 20.8898 47.4302 20.8698 47.491C20.843 47.8266 20.8372 48.1279 20.8314 48.4292C20.8324 48.4562 20.8333 48.4832 20.8133 48.5449C20.7873 48.8071 20.7822 49.0347 20.7771 49.2623C20.7774 49.3064 20.7777 49.3504 20.7569 49.4309C20.7312 49.6764 20.7266 49.8856 20.722 50.0947C20.7219 50.1564 20.7219 50.2181 20.7013 50.3176C20.6771 50.584 20.6733 50.8127 20.6696 51.0413C20.6687 51.1377 20.6677 51.2341 20.6467 51.3698C20.6267 51.84 20.6267 52.271 20.6267 52.7588C20.7204 52.5734 20.8179 52.4465 20.8288 52.2779C20.8383 52.2485 20.8478 52.2191 20.8826 52.1602C20.9516 51.9887 20.9951 51.8466 21.0387 51.7046C21.0694 51.6246 21.1001 51.5446 21.157 51.4382C21.3546 50.934 21.526 50.4562 21.6974 49.9784C21.7118 49.9379 21.7261 49.8973 21.7659 49.8307C21.8158 49.7336 21.8404 49.6626 21.8649 49.5916C21.878 49.5506 21.8911 49.5096 21.9299 49.4426C21.9797 49.3447 22.0038 49.2727 22.0279 49.2008C22.0733 49.1035 22.1187 49.0061 22.192 48.8879C22.2525 48.7999 22.2853 48.7328 22.318 48.6657C22.323 48.6539 22.3279 48.642 22.3598 48.61C22.419 48.5222 22.4513 48.4546 22.4835 48.3871C22.5249 48.3024 22.5663 48.2177 22.6355 48.1117C22.6945 48.0217 22.7257 47.9531 22.7569 47.8845C22.7612 47.8733 22.7655 47.8621 22.7973 47.832C22.9133 47.6343 23.0018 47.4555 23.0902 47.2767C23.1134 47.2289 23.1366 47.1811 23.1862 47.1138C23.2263 47.0613 23.2399 47.0284 23.2536 46.9955C23.258 46.9846 23.2625 46.9736 23.2926 46.9459C23.3336 46.8961 23.3491 46.8631 23.3646 46.8302C23.3697 46.8191 23.3748 46.8081 23.4057 46.7801C23.4469 46.7313 23.4623 46.6996 23.4777 46.6679C23.4831 46.6563 23.4885 46.6447 23.5196 46.6145C23.5595 46.5638 23.5736 46.5316 23.5877 46.4994C23.5928 46.4882 23.5978 46.477 23.6283 46.4482C23.6689 46.3993 23.6841 46.368 23.6993 46.3367C23.7192 46.3046 23.7392 46.2726 23.787 46.225C23.8312 46.1785 23.8475 46.1475 23.8639 46.1165C23.9032 46.0656 23.9426 46.0148 24.0118 45.9483C24.0748 45.8822 24.1079 45.8316 24.141 45.7811C24.1806 45.7311 24.2202 45.6812 24.2876 45.6155C24.332 45.5692 24.3487 45.5387 24.3653 45.5081C24.3855 45.4755 24.4058 45.4429 24.4536 45.3939C24.4976 45.3466 24.5141 45.3157 24.5306 45.2848C24.5672 45.2334 24.6037 45.182 24.6688 45.1158C24.7143 45.0704 24.7314 45.0398 24.7485 45.0091C24.8607 44.8834 24.9729 44.7577 25.1165 44.6166C25.2371 44.5027 25.3264 44.4043 25.4156 44.3059C25.463 44.2635 25.5103 44.221 25.5908 44.1697C25.6654 44.1188 25.707 44.0766 25.7486 44.0345C25.8515 43.9353 25.9545 43.836 26.0903 43.7267C26.1638 43.672 26.2045 43.6275 26.2451 43.583C26.3124 43.5232 26.3797 43.4634 26.4786 43.3937C26.5513 43.3441 26.5925 43.3043 26.6337 43.2645C26.643 43.2552 26.6523 43.2459 26.6933 43.2276C26.7493 43.1931 26.7735 43.1677 26.7978 43.1423C26.8064 43.1344 26.815 43.1264 26.854 43.1123C26.9109 43.0827 26.9373 43.0591 26.9638 43.0355C26.9733 43.0272 26.9828 43.0189 27.0232 43.0038C27.0796 42.9746 27.1052 42.9523 27.1308 42.9301C27.1407 42.9213 27.1505 42.9125 27.1917 42.8956C27.2475 42.8652 27.2721 42.843 27.2967 42.8207C27.3065 42.8117 27.3164 42.8027 27.3574 42.785C27.413 42.7543 27.4373 42.7321 27.4617 42.7099C27.5617 42.643 27.6617 42.576 27.7949 42.5028C27.853 42.4705 27.8778 42.4445 27.9027 42.4185C27.9314 42.3939 27.96 42.3693 28.0229 42.3374C28.1165 42.2886 28.1758 42.247 28.2351 42.2054C28.3166 42.1585 28.3981 42.1116 28.5168 42.0581C28.6505 41.9924 28.7471 41.9334 28.8436 41.8744C29.0502 41.7676 29.2568 41.6609 29.5034 41.5519C29.8228 41.4422 30.1023 41.3348 30.3818 41.2273C30.4062 41.2216 30.4306 41.2158 30.489 41.2145C30.5494 41.2056 30.5758 41.1923 30.6022 41.179C30.6263 41.1713 30.6504 41.1636 30.709 41.1591C30.7704 41.1483 30.7973 41.1343 30.8242 41.1203C30.8468 41.1126 30.8693 41.1048 30.9258 41.1002C30.9884 41.0897 31.0171 41.0759 31.0457 41.0621C31.0697 41.0563 31.0937 41.0505 31.1521 41.0477C31.2131 41.0356 31.2398 41.0206 31.2664 41.0055C31.2901 40.9993 31.3138 40.9932 31.3717 40.9905C31.4332 40.9797 31.4606 40.9654 31.488 40.951C31.5116 40.9444 31.5352 40.9378 31.5966 40.9367C31.7122 40.9621 31.7899 40.9819 31.8676 41.0017C31.8676 41.0017 31.8779 41.0043 31.8814 41.0287C31.9929 41.2113 31.8886 41.3392 31.8256 41.473C31.7248 41.5529 31.624 41.6328 31.4883 41.7184C31.3926 41.764 31.3319 41.8038 31.2712 41.8436C31.2616 41.8527 31.252 41.8617 31.2109 41.8796C31.1547 41.9122 31.13 41.9359 31.1052 41.9596C31.0609 41.9876 31.0167 42.0156 30.9395 42.0498C30.8808 42.0804 30.855 42.1049 30.8291 42.1294C30.8201 42.1375 30.8112 42.1457 30.7713 42.1602C30.7147 42.1902 30.689 42.2139 30.6632 42.2375C30.6343 42.2632 30.6053 42.2889 30.5445 42.3236C30.4895 42.3594 30.4663 42.3862 30.4431 42.413C30.4135 42.4365 30.3839 42.46 30.3237 42.4903C30.2688 42.5187 30.2445 42.5402 30.2203 42.5618C30.1762 42.5922 30.1321 42.6226 30.0548 42.6594C29.996 42.69 29.9704 42.7143 29.9448 42.7385C29.8766 42.7995 29.8085 42.8605 29.7109 42.9322C29.6585 42.9669 29.6354 42.9908 29.6124 43.0148C29.5838 43.0407 29.5553 43.0666 29.4951 43.1002C29.4396 43.1321 29.4157 43.1564 29.3918 43.1806C29.3829 43.1893 29.3741 43.198 29.3338 43.2141C29.2771 43.2477 29.252 43.274 29.2269 43.3003C29.1246 43.3975 29.0223 43.4948 28.8885 43.6002C28.8328 43.6342 28.8085 43.6599 28.7842 43.6857C28.7371 43.7285 28.6901 43.7713 28.6111 43.8224C28.5554 43.8577 28.5317 43.8848 28.5079 43.9119C28.3655 44.0438 28.2231 44.1756 28.0477 44.3201C27.8849 44.4749 27.755 44.617 27.6252 44.7591C27.6194 44.7711 27.6136 44.7832 27.5793 44.8144C27.5024 44.9023 27.4539 44.9709 27.4054 45.0396C27.3839 45.0708 27.3625 45.102 27.312 45.1489C27.2502 45.2129 27.2173 45.2612 27.1844 45.3095C27.161 45.342 27.1375 45.3745 27.0868 45.425C27.0453 45.4739 27.031 45.5049 27.0167 45.5359C27.0116 45.5478 27.0064 45.5598 26.9754 45.5908C26.936 45.6417 26.9223 45.6736 26.9087 45.7054C26.9044 45.717 26.9001 45.7286 26.8702 45.7583C26.8299 45.8099 26.8151 45.8434 26.8004 45.877C26.7959 45.8876 26.7915 45.8983 26.7605 45.9264C26.6989 46.0096 26.6637 46.0754 26.6286 46.1411C26.609 46.1744 26.5894 46.2077 26.5417 46.2575C26.4974 46.3059 26.4811 46.3377 26.4648 46.3696C26.4603 46.3813 26.4557 46.3929 26.4259 46.4232C26.3859 46.4745 26.3711 46.5071 26.3564 46.5398C26.3518 46.551 26.3472 46.5622 26.3153 46.5925C26.2581 46.6836 26.2282 46.7556 26.1983 46.8276C26.1662 46.9067 26.1341 46.9858 26.0758 47.0904C25.9861 47.2562 25.9225 47.3967 25.8589 47.5372C25.8482 47.5643 25.8374 47.5913 25.8022 47.6417C25.7676 47.6957 25.7574 47.7264 25.7472 47.7571C25.6798 47.8962 25.6124 48.0353 25.5193 48.2009C25.4164 48.4279 25.3393 48.6284 25.2622 48.8288C25.2472 48.8692 25.2321 48.9096 25.1911 48.9759C24.8297 49.574 24.6287 50.2057 24.3669 50.8106C24.3568 50.8374 24.3466 50.8642 24.3102 50.9163C24.2588 51.0125 24.2339 51.0834 24.2089 51.1544C24.1951 51.1956 24.1813 51.2368 24.1436 51.3032C24.1127 51.3629 24.1056 51.3973 24.0986 51.4318C24.0849 51.4728 24.0712 51.5138 24.0325 51.5817C23.9288 51.7921 23.85 51.9755 23.7712 52.159C23.762 52.1821 23.7529 52.2052 23.718 52.2463C23.6768 52.2961 23.6613 52.3279 23.6458 52.3597C23.6408 52.3713 23.6357 52.3828 23.6051 52.413C23.5658 52.4648 23.5521 52.4977 23.5384 52.5307C23.5131 52.5775 23.4878 52.6243 23.4359 52.6907C23.3972 52.7429 23.3851 52.7756 23.373 52.8082C23.3481 52.8551 23.3232 52.9021 23.2717 52.9683C23.2325 53.0207 23.22 53.0539 23.2075 53.0871C23.2027 53.0977 23.1979 53.1084 23.1674 53.1352C23.1257 53.1832 23.1097 53.2152 23.0936 53.2471C23.0878 53.2587 23.0819 53.2703 23.0473 53.3002C22.9515 53.4058 22.8845 53.4929 22.8175 53.5801C22.8113 53.5916 22.8051 53.603 22.7703 53.6328C22.6929 53.7193 22.6439 53.7872 22.5949 53.8552C22.5581 53.9064 22.5212 53.9575 22.4532 54.0233C22.3127 54.1533 22.2033 54.2685 22.0939 54.3838C22.0855 54.3924 22.0771 54.401 22.0378 54.4169C21.9812 54.4496 21.9554 54.4749 21.9297 54.5002C21.9021 54.5254 21.8746 54.5507 21.8138 54.5831C21.7378 54.6319 21.6949 54.6733 21.6521 54.7148C21.624 54.7412 21.5959 54.7676 21.5362 54.8025C21.4804 54.8361 21.4561 54.8612 21.4319 54.8863C21.4033 54.9112 21.3746 54.9361 21.3145 54.969C21.2588 55.0022 21.2346 55.0274 21.2104 55.0527C21.1817 55.0776 21.153 55.1026 21.0926 55.1353C21.0371 55.1683 21.0132 55.1937 20.9894 55.219C20.9256 55.2652 20.8617 55.3114 20.7658 55.3607C20.7082 55.3833 20.6828 55.4027 20.6573 55.4222C20.574 55.482 20.4907 55.5418 20.3817 55.6338C20.3544 55.9974 20.3526 56.3287 20.3509 56.66C20.3424 56.6815 20.3339 56.7031 20.2966 56.741C20.1503 56.8297 20.0605 56.9774 19.8859 56.8897C19.7144 56.8036 19.7187 56.6484 19.719 56.4906C19.7194 56.3362 19.7136 56.1818 19.7105 56.0274C19.7112 55.9672 19.7118 55.907 19.7324 55.8099C19.7792 55.4993 19.8046 55.2256 19.8335 54.9521C19.8643 54.6605 19.9062 54.3698 19.9271 54.0775C19.9359 53.9559 19.9027 53.8312 19.8886 53.7078C19.8828 53.6844 19.877 53.661 19.8744 53.5986C19.7806 53.3136 19.6946 53.0623 19.5834 52.8228C19.4925 52.6268 19.3715 52.4448 19.2639 52.2566C19.2354 52.2116 19.2069 52.1666 19.172 52.0855C19.1213 51.9895 19.077 51.9297 19.0327 51.87C19.0252 51.861 19.0177 51.852 19.0049 51.8123C18.9757 51.7553 18.9519 51.729 18.928 51.7028C18.9197 51.6935 18.9115 51.6843 18.8964 51.6439C18.8659 51.587 18.8421 51.5613 18.8184 51.5356C18.81 51.5267 18.8016 51.5178 18.7859 51.4775C18.753 51.4209 18.7274 51.3955 18.7018 51.3702C18.6783 51.3399 18.6549 51.3097 18.6227 51.2492C18.5905 51.195 18.567 51.1711 18.5435 51.1472C18.5177 51.1183 18.4919 51.0895 18.4574 51.029C18.4238 50.9735 18.399 50.9496 18.3741 50.9257Z" fill="#48AA57"/>
<path d="M20.3405 26.6693C20.2941 26.5278 20.2464 26.3714 20.2256 26.2115C20.0725 25.0352 19.8549 23.8707 19.5509 22.725C19.3576 21.9962 19.1309 21.2758 18.9007 20.5576C18.5776 19.5495 18.2335 18.5481 17.9057 17.5415C17.6685 16.813 17.3786 16.1075 17.0351 15.4234C16.9277 15.2095 16.8322 14.9896 16.7256 14.7753C16.687 14.6978 16.6316 14.6287 16.5629 14.5237C16.4868 14.7947 16.4142 15.0174 16.3661 15.2453C16.3513 15.3157 16.3935 15.4045 16.426 15.4776C16.5791 15.8223 16.7379 16.1645 16.892 16.5274C16.8319 16.4558 16.7681 16.3677 16.7185 16.2721C16.5878 16.0207 16.4633 15.7661 16.3411 15.5224C16.1896 15.5332 16.1801 15.6427 16.1388 15.7174C15.8789 16.1865 15.6005 16.6459 15.1989 17.006C14.2822 17.8277 13.2182 18.2729 11.9731 18.1625C11.4105 18.1126 10.9163 17.8648 10.497 17.4774C9.9632 16.9842 9.61754 16.3712 9.36681 15.6979C9.29066 15.4934 9.22343 15.2856 9.14987 15.0728C9.00366 15.1124 8.99214 15.2204 8.96234 15.3114C8.8005 15.8058 8.57402 16.268 8.27237 16.6912C7.82259 17.3221 7.24338 17.7684 6.46836 17.9134C6.03972 17.9936 5.60848 17.9816 5.182 17.8848C4.65714 17.7656 4.16815 17.5537 3.70626 17.2817C3.56637 17.1992 3.44933 17.0778 3.32031 16.9577C3.56284 17.0843 3.80314 17.2343 4.05175 17.3689C4.50785 17.6158 4.99295 17.803 5.50587 17.8609C6.33293 17.9544 7.09472 17.7748 7.72712 17.1889C8.30436 16.654 8.64403 15.9754 8.90518 15.2481C8.96582 15.0793 9.02512 14.91 9.13408 14.7418C9.19427 14.9214 9.26037 15.0993 9.31361 15.281C9.54252 16.0622 9.90421 16.7652 10.4801 17.3512C10.8564 17.734 11.3144 17.9396 11.8301 18.0484C12.5358 18.1973 13.2013 18.0425 13.8429 17.7718C14.343 17.5608 14.8305 17.3126 15.2018 16.8958C15.5941 16.4554 15.9487 15.9861 16.1612 15.4293C16.2755 15.1297 16.3596 14.8174 16.3556 14.49C16.3549 14.4346 16.3494 14.3778 16.359 14.3239C16.4666 13.7162 16.2424 13.2021 15.8975 12.7306C15.5065 12.1959 15.0137 11.7715 14.4389 11.443C14.3945 11.4176 14.3584 11.3775 14.3143 11.3408C14.3787 11.2044 14.4735 11.2355 14.5766 11.248C15.5067 11.3605 16.3989 11.2305 17.1984 10.7253C17.8901 10.2882 18.2745 9.61929 18.3912 8.81678C18.4532 8.39101 18.4646 7.95243 18.4469 7.52179C18.4255 7.00197 18.2528 6.51849 17.9987 6.0593C17.8101 5.71841 17.5995 5.39533 17.3413 5.10864C16.8938 4.61197 16.348 4.25215 15.6892 4.1228C15.1905 4.0249 14.6938 4.10343 14.2059 4.26358C13.6091 4.45947 13.1027 4.80294 12.6082 5.17333C12.5717 5.20068 12.5355 5.22848 12.498 5.25441C12.4926 5.25811 12.4808 5.25232 12.452 5.24778C12.4088 5.02993 12.5711 4.86102 12.6096 4.66273C12.6498 4.45589 12.7195 4.25483 12.7898 4.03908C12.755 4.24716 12.7089 4.46793 12.6573 4.6874C12.6328 4.79136 12.5979 4.89283 12.5655 5.00267C12.7164 5.04996 12.7833 4.95209 12.8582 4.90025C13.2536 4.62681 13.6625 4.38227 14.1172 4.2182C15.1709 3.8379 16.1558 3.94642 17.0109 4.69357C17.9693 5.53097 18.5198 6.5817 18.5355 7.8853C18.5434 8.54065 18.4765 9.17734 18.1661 9.76615C17.8389 10.3869 17.3472 10.8258 16.6917 11.076C16.2141 11.2582 15.7194 11.351 15.2081 11.3533C15.1174 11.3537 15.0266 11.3534 14.8938 11.3534C14.9357 11.4426 14.9498 11.5037 14.9863 11.545C15.1692 11.7525 15.3593 11.9535 15.5443 12.1592C15.8662 12.5171 16.1651 12.8906 16.3257 13.3548C16.3529 13.4333 16.3971 13.5102 16.4043 13.5905C16.459 14.1979 16.7635 14.7115 17.0269 15.2361C17.4173 16.0137 17.7571 16.8105 18.0274 17.637C18.3346 18.5764 18.6417 19.5158 18.9375 20.4588C19.1972 21.2867 19.4639 22.1134 19.6862 22.9517C19.9725 24.0317 20.162 25.1332 20.3068 26.2417C20.3247 26.3783 20.3369 26.5157 20.3405 26.6693Z" fill="#5EA9A4"/>
<path d="M5.8239 5.09196C5.67081 5.01223 5.5128 4.92105 5.36186 4.81932C4.88273 4.49635 4.36058 4.27258 3.7926 4.18001C2.91391 4.03678 2.1537 4.29677 1.4942 4.89368C0.964785 5.37286 0.590003 5.95504 0.318627 6.60685C0.220754 6.84193 0.143931 7.08756 0.140779 7.35271C0.136853 7.68297 0.086028 8.01352 0.0949082 8.34287C0.110484 8.9205 0.240497 9.4779 0.551675 9.97062C0.863992 10.4652 1.29763 10.8284 1.84542 11.0463C2.29216 11.2241 2.75643 11.3148 3.23542 11.337C3.28665 11.3394 3.33732 11.3539 3.39274 11.3637C3.40403 11.5055 3.30436 11.5435 3.23131 11.6098C2.8642 11.9434 2.4968 12.2748 2.24154 12.7133C1.8878 13.3209 1.77638 13.9562 1.93377 14.6466C2.08281 15.3004 2.4103 15.856 2.81952 16.3714C2.95063 16.5366 3.09255 16.693 3.2328 16.867C3.19023 16.8592 3.13324 16.8486 3.10023 16.8146C2.60784 16.3075 2.19499 15.743 1.961 15.0701C1.60178 14.0371 1.76972 13.0867 2.4706 12.244C2.64021 12.04 2.84257 11.8636 3.02909 11.6737C3.09063 11.6111 3.14974 11.546 3.24979 11.4398C3.02738 11.4055 2.86025 11.3813 2.69371 11.3536C1.99863 11.2381 1.36605 10.9984 0.857287 10.4795C0.441434 10.0553 0.190798 9.54624 0.0890144 8.97409C-0.0533489 8.1738 -0.0422892 7.37262 0.250022 6.59906C0.546271 5.81508 1.00068 5.13536 1.67185 4.62889C2.42749 4.05867 3.27944 3.9216 4.18335 4.18947C4.78806 4.36867 5.33876 4.66332 5.8239 5.09196Z" fill="#5EA9A4"/>
<path d="M16.9496 16.7245C17.0277 16.8545 17.1156 16.9967 17.1668 17.1511C17.6223 18.5253 18.0697 19.9022 18.5231 21.2771C18.8004 22.118 19.0603 22.9645 19.2359 23.8327C19.3962 24.6254 19.5355 25.4227 19.6649 26.2211C19.7692 26.865 19.8513 27.5128 19.9314 28.1603C19.9833 28.5801 20.011 29.0029 20.0547 29.4238C20.1021 29.8809 20.1568 30.3372 20.2056 30.7942C20.23 31.0229 20.2524 31.252 20.2684 31.4814C20.2928 31.8306 20.311 32.1802 20.3316 32.5297C20.349 32.8237 20.3662 33.1177 20.378 33.437C20.3531 33.4232 20.3196 33.3851 20.3165 33.3448C20.2735 32.7834 20.2422 32.2211 20.1928 31.6604C20.1314 30.9623 20.0574 30.2654 19.986 29.5682C19.9287 29.0088 19.8789 28.4482 19.8047 27.891C19.6744 26.9133 19.5419 25.9355 19.3851 24.9618C19.1332 23.398 18.6758 21.8881 18.1639 20.3927C17.793 19.3095 17.4432 18.2191 17.0829 17.1322C17.0394 17.0011 16.9894 16.8723 16.9496 16.7245Z" fill="#5EA9A4"/>
<path d="M20.9043 47.367C20.9 46.9634 20.9123 46.5496 20.9247 46.1359C20.9255 46.1083 20.9286 46.0807 20.9295 46.053C20.9506 45.3712 20.9644 44.6891 20.9938 44.0077C21.1133 41.2391 21.0303 38.4695 21.0389 35.7003C21.0411 35.0093 21.0178 34.3174 20.9809 33.6272C20.949 33.031 20.8796 32.4368 20.8306 31.8414C20.8201 31.7129 20.8261 31.5831 20.8297 31.4291C20.8562 31.4516 20.8934 31.4979 20.8964 31.5464C20.9592 32.5398 21.0364 33.5328 21.0741 34.5273C21.1866 37.4882 21.1559 40.4504 21.1133 43.412C21.0997 44.3605 21.0222 45.3081 20.977 46.2562C20.9633 46.5419 20.9618 46.8282 20.951 47.1141C20.9479 47.1953 20.9313 47.276 20.9043 47.367Z" fill="#5EA9A4"/>
<path d="M12.8726 2.64638C12.821 2.52147 12.7779 2.38366 12.7394 2.24457C12.5625 1.60637 12.1429 1.14258 11.6172 0.789535C10.8935 0.303582 10.0739 0.0443295 9.20357 0.0752246C8.29933 0.107325 7.44222 0.372964 6.72338 0.943914C6.0736 1.46001 5.72777 2.14569 5.72127 3.00226C5.71587 3.71323 5.82121 4.39368 6.10187 5.04653C6.12717 5.10539 6.14273 5.16866 6.15997 5.23067C6.16455 5.24718 6.15853 5.26666 6.15655 5.29773C6.03685 5.36916 5.98264 5.27158 5.9159 5.18449C6.05492 5.12878 6.02037 5.03677 5.99064 4.93093C5.88363 4.54995 5.74869 4.17199 5.69102 3.78293C5.56465 2.93042 5.64069 2.10836 6.18853 1.38765C6.48582 0.996551 6.86372 0.7064 7.29656 0.49531C7.96541 0.169116 8.67541 -0.0436296 9.42337 0.00760022C10.4859 0.0803757 11.4602 0.401514 12.2174 1.20763C12.5943 1.60887 12.8216 2.08239 12.8726 2.64638Z" fill="#5EA9A4"/>
<path d="M20.2496 47.4454C20.2538 47.7751 20.2414 48.1149 20.2289 48.4546C20.2282 48.4731 20.2253 48.4914 20.2244 48.5098C20.2036 48.9513 20.1835 49.3929 20.162 49.8344C20.1243 50.6067 20.0861 51.3791 20.0469 52.1514C20.0456 52.1766 20.0309 52.2012 20.0144 52.2494C19.8665 52.2082 19.8276 52.0857 19.7786 51.9535C19.8204 51.9513 19.8625 51.9683 19.9228 51.9927C19.9403 51.9428 19.9689 51.8963 19.9714 51.8484C20.0129 51.0601 20.0487 50.2715 20.0907 49.4832C20.1254 48.8326 20.1663 48.1823 20.2058 47.5319C20.2074 47.506 20.2235 47.4809 20.2496 47.4454Z" fill="#5EA9A4"/>
<path d="M19.8773 53.7252C19.9027 53.8312 19.9359 53.9559 19.9271 54.0775C19.9062 54.3698 19.8643 54.6605 19.8335 54.9521C19.8046 55.2256 19.7792 55.4993 19.7362 55.7876C19.7142 55.6959 19.6953 55.5884 19.7044 55.4833C19.7545 54.9027 19.8114 54.3228 19.8773 53.7252Z" fill="#5EA9A4"/>
<path d="M24.3836 50.8053C24.6287 50.2058 24.8297 49.574 25.1783 48.9933C25.1786 49.0442 25.175 49.1076 25.1514 49.1624C24.9714 49.5811 24.79 49.9992 24.6035 50.415C24.5443 50.5472 24.4685 50.6719 24.3836 50.8053Z" fill="#5EA9A4"/>
<path d="M19.6944 56.0386C19.7136 56.1818 19.7194 56.3362 19.719 56.4906C19.7187 56.6484 19.7144 56.8036 19.8859 56.8897C20.0605 56.9774 20.1503 56.8297 20.2853 56.7542C20.197 56.9535 20.0723 57.0282 19.9033 56.9906C19.745 56.9555 19.6442 56.8421 19.6418 56.6493C19.6394 56.4496 19.6649 56.2496 19.6944 56.0386Z" fill="#5EA9A4"/>
<path d="M20.8015 52.2781C20.8179 52.4465 20.7204 52.5734 20.6267 52.7588C20.6267 52.271 20.6267 51.84 20.6428 51.3936C20.6649 51.6042 20.6687 51.8304 20.678 52.0563C20.6815 52.1402 20.6404 52.2491 20.8015 52.2781Z" fill="#5EA9A4"/>
<path d="M20.4268 35.4236C20.4566 35.4647 20.488 35.5234 20.4887 35.5825C20.4936 36.006 20.4924 36.4296 20.4866 36.8789C20.4617 36.8557 20.4282 36.8071 20.4273 36.7579C20.4197 36.3191 20.4178 35.8802 20.4268 35.4236Z" fill="#5EA9A4"/>
<path d="M19.2597 52.275C19.3715 52.4448 19.4925 52.6268 19.5834 52.8228C19.6946 53.0623 19.7806 53.3136 19.8733 53.5805C19.809 53.4705 19.7497 53.3393 19.6884 53.2091C19.5447 52.9036 19.3999 52.5985 19.2597 52.275Z" fill="#5EA9A4"/>
<path d="M21.6813 49.9863C21.526 50.4562 21.3546 50.934 21.1694 51.4207C21.2569 51.1099 21.3529 50.7883 21.4617 50.4712C21.5177 50.3081 21.5967 50.153 21.6813 49.9863Z" fill="#5EA9A4"/>
<path d="M20.37 33.6487C20.4001 33.6891 20.4326 33.7473 20.4336 33.8061C20.4393 34.1374 20.4374 34.4687 20.4318 34.8256C20.407 34.8027 20.3735 34.7546 20.3723 34.7057C20.3638 34.3594 20.3619 34.013 20.37 33.6487Z" fill="#5EA9A4"/>
<path d="M20.4653 42.3921C20.4773 42.7763 20.4743 43.1735 20.455 43.5859C20.4302 43.4666 20.4124 43.3317 20.4152 43.1973C20.4209 42.9331 20.4381 42.6692 20.4653 42.3921Z" fill="#5EA9A4"/>
<path d="M20.357 45.0018C20.3681 45.3494 20.3635 45.7086 20.342 46.0827C20.3304 45.7361 20.3358 45.3748 20.357 45.0018Z" fill="#5EA9A4"/>
<path d="M20.3038 46.2235C20.3152 46.5706 20.3105 46.9287 20.2891 47.3017C20.2644 47.1825 20.247 47.0482 20.2502 46.9144C20.2558 46.6876 20.2745 46.4611 20.3038 46.2235Z" fill="#5EA9A4"/>
<path d="M20.3659 56.6456C20.3526 56.3287 20.3544 55.9974 20.3705 55.6534C20.3835 55.9709 20.3822 56.3011 20.3659 56.6456Z" fill="#5EA9A4"/>
<path d="M20.8481 48.4194C20.8372 48.1279 20.843 47.8266 20.8655 47.5105C20.8765 47.8004 20.8707 48.105 20.8481 48.4194Z" fill="#5EA9A4"/>
<path d="M20.4098 43.8903C20.4222 44.1634 20.4197 44.4491 20.4008 44.7501C20.388 44.4779 20.3914 44.1904 20.4098 43.8903Z" fill="#5EA9A4"/>
<path d="M10.247 46.3239C9.96326 46.4397 9.66647 46.546 9.34935 46.651C9.48337 46.5814 9.63504 46.506 9.79285 46.4471C9.93644 46.3935 10.0867 46.3579 10.247 46.3239Z" fill="#5EA9A4"/>
<path d="M30.3684 41.2183C30.1023 41.3348 29.8228 41.4422 29.5232 41.5482C29.5871 41.4977 29.6664 41.4352 29.7564 41.4022C29.953 41.3299 30.1551 41.2726 30.3684 41.2183Z" fill="#5EA9A4"/>
<path d="M13.5346 48.0142C13.7984 48.097 14.0705 48.1957 14.3515 48.3079C14.0879 48.2243 13.8154 48.1271 13.5346 48.0142Z" fill="#5EA9A4"/>
<path d="M20.7935 49.2523C20.7822 49.0347 20.7873 48.8071 20.8089 48.5647C20.8203 48.7807 20.8151 49.0115 20.7935 49.2523Z" fill="#5EA9A4"/>
<path d="M20.6856 51.0303C20.6733 50.8126 20.6771 50.584 20.697 50.3403C20.7093 50.5566 20.7054 50.7879 20.6856 51.0303Z" fill="#5EA9A4"/>
<path d="M12.8925 3.48672C12.8756 3.29732 12.8743 3.09965 12.8759 2.87824C12.9907 3.05763 12.9372 3.26861 12.8925 3.48672Z" fill="#5EA9A4"/>
<path d="M20.7384 50.0848C20.7266 49.8856 20.7312 49.6764 20.7521 49.4524C20.7638 49.6499 20.7593 49.8624 20.7384 50.0848Z" fill="#5EA9A4"/>
<path d="M16.9815 47.9734C16.845 47.8637 16.7095 47.7368 16.5706 47.5938C16.7056 47.7038 16.844 47.83 16.9815 47.9734Z" fill="#5EA9A4"/>
<path d="M27.6427 44.7566C27.755 44.617 27.8849 44.4749 28.0321 44.3314C27.9197 44.4713 27.79 44.6128 27.6427 44.7566Z" fill="#5EA9A4"/>
<path d="M17.4657 50.0601C17.6821 50.0691 17.8386 50.1891 17.9479 50.3972C17.7893 50.3025 17.6299 50.1897 17.4657 50.0601Z" fill="#5EA9A4"/>
<path d="M14.6805 46.4124C14.4783 46.3697 14.2685 46.3108 14.0464 46.2373C14.2471 46.2805 14.46 46.3384 14.6805 46.4124Z" fill="#5EA9A4"/>
<path d="M25.278 48.8205C25.3393 48.6284 25.4164 48.4279 25.5064 48.2183C25.444 48.4101 25.3689 48.6112 25.278 48.8205Z" fill="#5EA9A4"/>
<path d="M23.0736 47.2815C23.0018 47.4555 22.9133 47.6343 22.8088 47.8183C22.8809 47.6444 22.9689 47.4653 23.0736 47.2815Z" fill="#5EA9A4"/>
<path d="M23.7868 52.1504C23.85 51.9755 23.9288 51.7921 24.0207 51.5999C23.9567 51.7748 23.8796 51.9583 23.7868 52.1504Z" fill="#5EA9A4"/>
<path d="M22.1108 54.3868C22.2033 54.2685 22.3127 54.1533 22.4384 54.0354C22.3458 54.1518 22.2367 54.2708 22.1108 54.3868Z" fill="#5EA9A4"/>
<path d="M20.8362 31.2168C20.8056 31.0846 20.7871 30.9361 20.7733 30.764C20.8994 30.8787 20.8344 31.0457 20.8362 31.2168Z" fill="#5EA9A4"/>
<path d="M6.70094 48.2121C6.72677 48.3388 6.71871 48.4799 6.83739 48.6014C6.64518 48.517 6.62822 48.4741 6.70094 48.2121Z" fill="#5EA9A4"/>
<path d="M31.8426 41.4737C31.8886 41.3392 31.9929 41.2113 31.8827 41.0339C32.047 41.1924 32.0433 41.2749 31.8426 41.4737Z" fill="#5EA9A4"/>
<path d="M25.3987 44.3044C25.3264 44.4043 25.2371 44.5027 25.1321 44.6045C25.2048 44.5061 25.2933 44.4045 25.3987 44.3044Z" fill="#5EA9A4"/>
<path d="M25.8756 47.5323C25.9225 47.3967 25.9861 47.2562 26.0626 47.1073C26.0145 47.2417 25.9533 47.3846 25.8756 47.5323Z" fill="#5EA9A4"/>
<path d="M20.7838 30.608C20.753 30.4927 20.7339 30.3614 20.7199 30.2068C20.8396 30.3039 20.7858 30.4535 20.7838 30.608Z" fill="#5EA9A4"/>
<path d="M21.0229 51.7124C20.9951 51.8466 20.9516 51.9887 20.8948 52.1404C20.9234 52.0067 20.9652 51.8634 21.0229 51.7124Z" fill="#5EA9A4"/>
<path d="M12.8637 47.7987C12.9945 47.8211 13.1354 47.8581 13.2881 47.9096C13.1579 47.8872 13.0159 47.8502 12.8637 47.7987Z" fill="#5EA9A4"/>
<path d="M22.8348 53.5776C22.8845 53.4929 22.9515 53.4058 23.0335 53.314C22.983 53.3979 22.9175 53.4864 22.8348 53.5776Z" fill="#5EA9A4"/>
<path d="M15.6436 48.9494C15.743 48.9829 15.8471 49.0328 15.9575 49.0976C15.8587 49.0636 15.7535 49.0147 15.6436 48.9494Z" fill="#5EA9A4"/>
<path d="M14.5255 48.4045C14.6257 48.4313 14.7335 48.4738 14.8498 48.5296C14.7499 48.502 14.6415 48.4611 14.5255 48.4045Z" fill="#5EA9A4"/>
<path d="M11.8495 46.0389C11.7671 46.0662 11.6702 46.0827 11.5514 46.0931C11.6313 46.0674 11.7331 46.0477 11.8495 46.0389Z" fill="#5EA9A4"/>
<path d="M13.2522 46.073C13.1603 46.0844 13.0578 46.0818 12.9413 46.0631C13.0321 46.051 13.1368 46.0549 13.2522 46.073Z" fill="#5EA9A4"/>
<path d="M20.7253 29.9988C20.6964 29.9171 20.6788 29.821 20.6668 29.703C20.6937 29.7822 20.7152 29.8834 20.7253 29.9988Z" fill="#5EA9A4"/>
<path d="M9.14757 46.7084C9.06343 46.7678 8.96297 46.8202 8.84409 46.8701C8.92754 46.8122 9.02939 46.7568 9.14757 46.7084Z" fill="#5EA9A4"/>
<path d="M20.3952 27.1148C20.3664 27.0327 20.3485 26.936 20.336 26.8171C20.3631 26.8967 20.3846 26.9984 20.3952 27.1148Z" fill="#5EA9A4"/>
<path d="M9.68143 47.4955C9.7619 47.4683 9.85713 47.4514 9.97388 47.4399C9.89565 47.4655 9.79593 47.4856 9.68143 47.4955Z" fill="#5EA9A4"/>
<path d="M17.9699 49.4152C17.9065 49.3358 17.8476 49.2388 17.7885 49.1236C17.8504 49.2028 17.9124 49.3002 17.9699 49.4152Z" fill="#5EA9A4"/>
<path d="M20.6711 29.4995C20.6423 29.418 20.6243 29.3218 20.6118 29.2036C20.6389 29.2827 20.6604 29.3838 20.6711 29.4995Z" fill="#5EA9A4"/>
<path d="M28.8261 41.8703C28.7471 41.9334 28.6505 41.9924 28.5359 42.0517C28.6147 41.9901 28.7117 41.9282 28.8261 41.8703Z" fill="#5EA9A4"/>
<path d="M20.5577 28.4455C20.5291 28.3656 20.5113 28.271 20.4979 28.1549C20.6095 28.2135 20.5628 28.3281 20.5577 28.4455Z" fill="#5EA9A4"/>
<path d="M20.6121 28.9443C20.5836 28.8636 20.5663 28.7686 20.5539 28.652C20.5803 28.7303 20.6018 28.8302 20.6121 28.9443Z" fill="#5EA9A4"/>
<path d="M8.90591 47.6574C8.99022 47.6151 9.08711 47.5819 9.20393 47.5531C9.12208 47.5939 9.02029 47.6302 8.90591 47.6574Z" fill="#5EA9A4"/>
<path d="M18.4766 50.0808C18.4125 50.0384 18.3496 49.9791 18.2864 49.9029C18.35 49.9453 18.4139 50.0047 18.4766 50.0808Z" fill="#5EA9A4"/>
<path d="M27.4223 45.0371C27.4539 44.9709 27.5024 44.9023 27.5655 44.8288C27.5331 44.8942 27.4862 44.9644 27.4223 45.0371Z" fill="#5EA9A4"/>
<path d="M11.0953 47.4643C11.1696 47.4524 11.2542 47.4541 11.3525 47.4713C11.2793 47.4838 11.1924 47.4808 11.0953 47.4643Z" fill="#5EA9A4"/>
<path d="M20.4455 27.5029C20.4183 27.438 20.4018 27.3598 20.3907 27.2608C20.4161 27.3232 20.4361 27.4064 20.4455 27.5029Z" fill="#5EA9A4"/>
<path d="M20.5006 27.947C20.4734 27.8824 20.4568 27.8046 20.4454 27.7062C20.4708 27.7683 20.491 27.851 20.5006 27.947Z" fill="#5EA9A4"/>
<path d="M22.6119 53.853C22.6439 53.7872 22.6929 53.7193 22.7564 53.6465C22.7236 53.7114 22.6762 53.7811 22.6119 53.853Z" fill="#5EA9A4"/>
<path d="M12.8372 3.88131C12.8279 3.81107 12.8324 3.73466 12.8517 3.64716C12.8614 3.71576 12.8562 3.79545 12.8372 3.88131Z" fill="#5EA9A4"/>
<path d="M31.8659 40.9855C31.7899 40.9819 31.7122 40.9621 31.615 40.9361C31.7023 40.8245 31.7834 40.8963 31.8659 40.9855Z" fill="#5EA9A4"/>
<path d="M19.0297 51.8869C19.077 51.9297 19.1213 51.9895 19.1656 52.0664C19.1194 52.0236 19.0731 51.9638 19.0297 51.8869Z" fill="#5EA9A4"/>
<path d="M16.1415 49.2262C16.2047 49.2418 16.2718 49.2735 16.3445 49.3197C16.2819 49.3035 16.2137 49.273 16.1415 49.2262Z" fill="#5EA9A4"/>
<path d="M8.04214 47.2509C7.99722 47.2957 7.93601 47.3359 7.85804 47.3756C7.9028 47.3322 7.96432 47.2893 8.04214 47.2509Z" fill="#5EA9A4"/>
<path d="M19.6838 51.7453C19.638 51.7033 19.5963 51.6448 19.5536 51.57C19.5977 51.6121 19.6428 51.6705 19.6838 51.7453Z" fill="#5EA9A4"/>
<path d="M15.6182 46.86C15.5545 46.845 15.4864 46.8137 15.4124 46.7679C15.4756 46.7835 15.5447 46.8137 15.6182 46.86Z" fill="#5EA9A4"/>
<path d="M24.2241 51.1471C24.2339 51.0834 24.2588 51.0125 24.2971 50.9335C24.2867 50.9969 24.263 51.0683 24.2241 51.1471Z" fill="#5EA9A4"/>
<path d="M8.29093 47.8848C8.34027 47.8427 8.40518 47.8071 8.48699 47.7743C8.43808 47.8151 8.37229 47.8532 8.29093 47.8848Z" fill="#5EA9A4"/>
<path d="M22.7407 47.8888C22.7257 47.9531 22.6945 48.0217 22.6488 48.0963C22.6643 48.0325 22.6943 47.9628 22.7407 47.8888Z" fill="#5EA9A4"/>
<path d="M7.95945 48.0594C8.00428 48.0148 8.0654 47.9747 8.14321 47.935C8.09852 47.9782 8.03713 48.021 7.95945 48.0594Z" fill="#5EA9A4"/>
<path d="M31.2875 41.8479C31.3319 41.8038 31.3926 41.764 31.4699 41.7245C31.4256 41.7673 31.3647 41.8097 31.2875 41.8479Z" fill="#5EA9A4"/>
<path d="M22.4674 48.3913C22.4513 48.4546 22.419 48.5222 22.3722 48.5953C22.3889 48.5324 22.4201 48.464 22.4674 48.3913Z" fill="#5EA9A4"/>
<path d="M21.8496 49.599C21.8404 49.6626 21.8158 49.7336 21.7782 49.8129C21.7882 49.7497 21.8113 49.6781 21.8496 49.599Z" fill="#5EA9A4"/>
<path d="M22.3017 48.6692C22.2853 48.7328 22.2525 48.7999 22.2052 48.8725C22.2222 48.8095 22.2537 48.7411 22.3017 48.6692Z" fill="#5EA9A4"/>
<path d="M22.0126 49.2083C22.0038 49.2727 21.9797 49.3447 21.9422 49.4249C21.9516 49.3606 21.9745 49.2882 22.0126 49.2083Z" fill="#5EA9A4"/>
<path d="M28.2186 42.2013C28.1758 42.247 28.1165 42.2886 28.0407 42.3308C28.0835 42.2867 28.1428 42.242 28.2186 42.2013Z" fill="#5EA9A4"/>
<path d="M26.2138 46.821C26.2282 46.7556 26.2581 46.6836 26.3035 46.6063C26.2891 46.6721 26.2592 46.7433 26.2138 46.821Z" fill="#5EA9A4"/>
<path d="M15.073 46.5767C15.0099 46.5673 14.9401 46.5424 14.8619 46.5045C14.9244 46.5148 14.9954 46.538 15.073 46.5767Z" fill="#5EA9A4"/>
<path d="M26.6448 46.1386C26.6637 46.0754 26.6989 46.0096 26.7493 45.9396C26.73 46.0022 26.6955 46.0692 26.6448 46.1386Z" fill="#5EA9A4"/>
<path d="M27.2004 45.308C27.2173 45.2612 27.2502 45.2129 27.2978 45.1614C27.2804 45.2077 27.2484 45.2572 27.2004 45.308Z" fill="#5EA9A4"/>
<path d="M15.9543 47.0798C15.9061 47.067 15.8543 47.038 15.7976 46.9946C15.8453 47.0081 15.898 47.0359 15.9543 47.0798Z" fill="#5EA9A4"/>
<path d="M26.6186 43.2603C26.5925 43.3043 26.5513 43.3441 26.4951 43.3838C26.5212 43.3411 26.5623 43.2986 26.6186 43.2603Z" fill="#5EA9A4"/>
<path d="M19.293 51.1378C19.2488 51.109 19.2095 51.0648 19.1709 51.0048C19.2137 51.0334 19.2557 51.0779 19.293 51.1378Z" fill="#5EA9A4"/>
<path d="M21.6678 54.7187C21.6949 54.6733 21.7378 54.6319 21.7966 54.5905C21.7695 54.6346 21.7265 54.6785 21.6678 54.7187Z" fill="#5EA9A4"/>
<path d="M25.7329 44.0314C25.707 44.0766 25.6654 44.1188 25.6081 44.1618C25.634 44.1179 25.6756 44.0731 25.7329 44.0314Z" fill="#5EA9A4"/>
<path d="M24.1247 45.7831C24.1079 45.8316 24.0748 45.8822 24.0266 45.9359C24.0438 45.8877 24.0761 45.8364 24.1247 45.7831Z" fill="#5EA9A4"/>
<path d="M26.2289 43.5812C26.2045 43.6275 26.1638 43.672 26.1072 43.7178C26.1317 43.6725 26.1723 43.626 26.2289 43.5812Z" fill="#5EA9A4"/>
<path d="M9.34545 47.5494C9.3788 47.5244 9.42256 47.5088 9.48429 47.4987C9.45346 47.5224 9.40466 47.5406 9.34545 47.5494Z" fill="#5EA9A4"/>
<path d="M10.9689 46.1551C10.9364 46.1806 10.894 46.1965 10.8339 46.2076C10.8639 46.1836 10.9114 46.1645 10.9689 46.1551Z" fill="#5EA9A4"/>
<path d="M13.915 46.1883C13.8736 46.1973 13.8259 46.1934 13.7673 46.1747C13.8071 46.1651 13.8579 46.1703 13.915 46.1883Z" fill="#5EA9A4"/>
<path d="M13.6398 46.1327C13.5991 46.1431 13.5516 46.1407 13.4928 46.1242C13.532 46.1133 13.5824 46.1167 13.6398 46.1327Z" fill="#5EA9A4"/>
<path d="M11.3009 46.0997C11.2666 46.1247 11.2224 46.1395 11.1603 46.1486C11.1918 46.1252 11.2414 46.1074 11.3009 46.0997Z" fill="#5EA9A4"/>
<path d="M11.5889 47.5207C11.6305 47.5093 11.6799 47.5103 11.7414 47.5258C11.7012 47.5379 11.649 47.5354 11.5889 47.5207Z" fill="#5EA9A4"/>
<path d="M21.4465 54.8895C21.4561 54.8612 21.4804 54.836 21.5186 54.8107C21.5088 54.8379 21.485 54.8653 21.4465 54.8895Z" fill="#5EA9A4"/>
<path d="M18.3707 50.9402C18.399 50.9496 18.4238 50.9735 18.4493 51.0113C18.4224 51.0017 18.3949 50.9782 18.3707 50.9402Z" fill="#5EA9A4"/>
<path d="M17.2983 49.9473C17.3282 49.9476 17.3606 49.9627 17.397 49.9914C17.3675 49.9907 17.3342 49.9765 17.2983 49.9473Z" fill="#5EA9A4"/>
<path d="M17.1321 49.836C17.1619 49.8364 17.1945 49.8516 17.2309 49.8805C17.2015 49.8797 17.1681 49.8653 17.1321 49.836Z" fill="#5EA9A4"/>
<path d="M16.9643 49.7268C16.9944 49.7267 17.0277 49.7414 17.0649 49.77C17.0351 49.7697 17.0013 49.7557 16.9643 49.7268Z" fill="#5EA9A4"/>
<path d="M21.225 55.0559C21.2346 55.0274 21.2588 55.0022 21.297 54.9767C21.2873 55.004 21.2634 55.0316 21.225 55.0559Z" fill="#5EA9A4"/>
<path d="M16.694 49.5563C16.7224 49.5553 16.7533 49.569 16.7889 49.5949C16.7611 49.5951 16.7287 49.583 16.694 49.5563Z" fill="#5EA9A4"/>
<path d="M18.7523 50.4158C18.7237 50.4069 18.6977 50.3834 18.6718 50.3459C18.6997 50.3549 18.7273 50.3781 18.7523 50.4158Z" fill="#5EA9A4"/>
<path d="M31.1194 41.9639C31.13 41.9359 31.1547 41.9122 31.1933 41.8885C31.1825 41.9151 31.1581 41.9416 31.1194 41.9639Z" fill="#5EA9A4"/>
<path d="M21.0039 55.2222C21.0132 55.1937 21.0371 55.1683 21.075 55.1426C21.0654 55.1699 21.0419 55.1977 21.0039 55.2222Z" fill="#5EA9A4"/>
<path d="M16.5225 49.4492C16.5523 49.4483 16.5852 49.4622 16.6225 49.4894C16.5931 49.4898 16.5593 49.477 16.5225 49.4492Z" fill="#5EA9A4"/>
<path d="M20.67 55.4292C20.6828 55.4027 20.7082 55.3833 20.7464 55.3648C20.7336 55.3893 20.7082 55.4127 20.67 55.4292Z" fill="#5EA9A4"/>
<path d="M27.448 42.7047C27.4373 42.7321 27.413 42.7543 27.3755 42.7765C27.3864 42.7509 27.4104 42.7252 27.448 42.7047Z" fill="#5EA9A4"/>
<path d="M30.8165 41.1113C30.7973 41.1343 30.7704 41.1483 30.728 41.1575C30.7445 41.1359 30.7766 41.1191 30.8165 41.1113Z" fill="#5EA9A4"/>
<path d="M23.6607 52.3575C23.6613 52.3279 23.6768 52.2961 23.7056 52.2603C23.7044 52.2893 23.69 52.3223 23.6607 52.3575Z" fill="#5EA9A4"/>
<path d="M31.2581 40.997C31.2398 41.0206 31.2131 41.0356 31.1706 41.0463C31.1865 41.0242 31.2182 41.0064 31.2581 40.997Z" fill="#5EA9A4"/>
<path d="M23.5532 52.5275C23.5521 52.4977 23.5658 52.4648 23.5928 52.4273C23.5933 52.4567 23.5806 52.4905 23.5532 52.5275Z" fill="#5EA9A4"/>
<path d="M23.3875 52.8049C23.3851 52.7756 23.3972 52.7429 23.4219 52.705C23.4236 52.7337 23.4128 52.7676 23.3875 52.8049Z" fill="#5EA9A4"/>
<path d="M18.9239 51.7172C18.9518 51.729 18.9757 51.7553 18.9985 51.7959C18.9715 51.7841 18.9456 51.7579 18.9239 51.7172Z" fill="#5EA9A4"/>
<path d="M31.0376 41.053C31.0171 41.0759 30.9884 41.0896 30.9436 41.0977C30.9615 41.076 30.9955 41.06 31.0376 41.053Z" fill="#5EA9A4"/>
<path d="M23.2222 53.0838C23.22 53.0539 23.2325 53.0207 23.2579 52.9828C23.2595 53.0122 23.2482 53.0464 23.2222 53.0838Z" fill="#5EA9A4"/>
<path d="M18.8141 51.55C18.8421 51.5613 18.8659 51.587 18.8889 51.6268C18.8621 51.6154 18.836 51.5899 18.8141 51.55Z" fill="#5EA9A4"/>
<path d="M23.1086 53.2453C23.1097 53.2152 23.1257 53.1832 23.1553 53.1479C23.1538 53.1775 23.1387 53.2105 23.1086 53.2453Z" fill="#5EA9A4"/>
<path d="M31.4801 40.9421C31.4606 40.9654 31.4332 40.9797 31.39 40.9891C31.4068 40.9671 31.4394 40.9501 31.4801 40.9421Z" fill="#5EA9A4"/>
<path d="M30.5951 41.1697C30.5758 41.1923 30.5494 41.2056 30.5078 41.2141C30.5244 41.193 30.5562 41.1768 30.5951 41.1697Z" fill="#5EA9A4"/>
<path d="M19.514 51.4722C19.4869 51.4609 19.4651 51.4359 19.4437 51.3978C19.4691 51.4092 19.4942 51.4339 19.514 51.4722Z" fill="#5EA9A4"/>
<path d="M18.6988 51.385C18.7274 51.3955 18.753 51.4209 18.7781 51.4609C18.7503 51.4504 18.7231 51.4251 18.6988 51.385Z" fill="#5EA9A4"/>
<path d="M24.1125 51.426C24.1056 51.3973 24.1127 51.3629 24.1314 51.3212C24.1375 51.3494 24.1319 51.3848 24.1125 51.426Z" fill="#5EA9A4"/>
<path d="M19.4046 51.3054C19.3775 51.2947 19.3552 51.2703 19.3331 51.2327C19.3587 51.2435 19.384 51.2676 19.4046 51.3054Z" fill="#5EA9A4"/>
<path d="M18.5395 51.1611C18.567 51.1711 18.5905 51.195 18.6134 51.2324C18.587 51.2222 18.5612 51.1987 18.5395 51.1611Z" fill="#5EA9A4"/>
<path d="M21.9445 54.5033C21.9555 54.4749 21.9812 54.4496 22.0216 54.4249C22.0106 54.4524 21.985 54.4794 21.9445 54.5033Z" fill="#5EA9A4"/>
<path d="M19.1343 50.9157C19.1061 50.906 19.0814 50.8819 19.0566 50.8438C19.0836 50.8537 19.1108 50.8775 19.1343 50.9157Z" fill="#5EA9A4"/>
<path d="M18.1478 50.6635C18.176 50.6723 18.2011 50.6953 18.226 50.732C18.1988 50.7231 18.1718 50.7004 18.1478 50.6635Z" fill="#5EA9A4"/>
<path d="M18.9697 50.6937C18.9418 50.6842 18.9169 50.6602 18.8918 50.6222C18.9187 50.6319 18.9457 50.6556 18.9697 50.6937Z" fill="#5EA9A4"/>
<path d="M29.2417 43.3026C29.252 43.274 29.2771 43.2477 29.317 43.222C29.3067 43.2499 29.2816 43.2774 29.2417 43.3026Z" fill="#5EA9A4"/>
<path d="M26.9495 43.0312C26.9373 43.0591 26.9109 43.0827 26.8702 43.1053C26.8823 43.0786 26.9087 43.0528 26.9495 43.0312Z" fill="#5EA9A4"/>
<path d="M26.7832 43.1392C26.7735 43.1677 26.7493 43.1931 26.7109 43.2187C26.7207 43.1913 26.7447 43.1637 26.7832 43.1392Z" fill="#5EA9A4"/>
<path d="M16.3348 47.3631C16.305 47.3609 16.2735 47.3437 16.2389 47.3127C16.2683 47.3153 16.3007 47.3317 16.3348 47.3631Z" fill="#5EA9A4"/>
<path d="M29.4059 43.1843C29.4157 43.1564 29.4396 43.1321 29.4772 43.1077C29.4673 43.1343 29.4437 43.1611 29.4059 43.1843Z" fill="#5EA9A4"/>
<path d="M16.117 47.1945C16.087 47.1933 16.0547 47.1772 16.0191 47.1472C16.0488 47.1488 16.0817 47.1641 16.117 47.1945Z" fill="#5EA9A4"/>
<path d="M23.2388 46.9985C23.2399 47.0284 23.2263 47.0613 23.1995 47.0988C23.1989 47.0695 23.2114 47.0355 23.2388 46.9985Z" fill="#5EA9A4"/>
<path d="M23.3497 46.833C23.3491 46.8631 23.3336 46.8961 23.3043 46.9326C23.3052 46.9027 23.32 46.8692 23.3497 46.833Z" fill="#5EA9A4"/>
<path d="M23.4628 46.6698C23.4623 46.6996 23.4469 46.7313 23.4182 46.7668C23.4192 46.7376 23.4336 46.7046 23.4628 46.6698Z" fill="#5EA9A4"/>
<path d="M23.573 46.5022C23.5736 46.5316 23.5595 46.5638 23.5325 46.6003C23.5325 46.5715 23.5454 46.5382 23.573 46.5022Z" fill="#5EA9A4"/>
<path d="M26.3713 46.537C26.3711 46.5071 26.3859 46.4745 26.414 46.4378C26.4137 46.4672 26.3999 46.5007 26.3713 46.537Z" fill="#5EA9A4"/>
<path d="M23.6845 46.3386C23.6841 46.368 23.6689 46.3993 23.6408 46.4346C23.6418 46.4059 23.6557 46.3732 23.6845 46.3386Z" fill="#5EA9A4"/>
<path d="M26.4797 46.3672C26.4811 46.3377 26.4974 46.3059 26.5272 46.2705C26.5254 46.2997 26.5099 46.3323 26.4797 46.3672Z" fill="#5EA9A4"/>
<path d="M7.54817 47.532C7.53644 47.5587 7.51136 47.5799 7.47323 47.6007C7.48506 47.5757 7.50994 47.5511 7.54817 47.532Z" fill="#5EA9A4"/>
<path d="M10.4737 46.2656C10.4544 46.2892 10.4271 46.304 10.3838 46.3139C10.4004 46.2917 10.433 46.2742 10.4737 46.2656Z" fill="#5EA9A4"/>
<path d="M28.7988 43.6879C28.8085 43.6599 28.8328 43.6342 28.8714 43.6082C28.8616 43.6354 28.8375 43.6627 28.7988 43.6879Z" fill="#5EA9A4"/>
<path d="M10.6953 46.2125C10.6758 46.2359 10.6485 46.25 10.6055 46.2591C10.6224 46.2372 10.655 46.2202 10.6953 46.2125Z" fill="#5EA9A4"/>
<path d="M23.8492 46.118C23.8475 46.1475 23.8312 46.1785 23.8013 46.2125C23.8034 46.1835 23.819 46.1515 23.8492 46.118Z" fill="#5EA9A4"/>
<path d="M28.5227 43.9134C28.5316 43.8848 28.5554 43.8577 28.5937 43.8301C28.5846 43.8581 28.5611 43.8865 28.5227 43.9134Z" fill="#5EA9A4"/>
<path d="M26.8154 45.874C26.8151 45.8435 26.8299 45.8099 26.8585 45.7726C26.8583 45.8028 26.8443 45.837 26.8154 45.874Z" fill="#5EA9A4"/>
<path d="M26.9232 45.7026C26.9223 45.6736 26.936 45.6417 26.9623 45.6053C26.9626 45.6337 26.9501 45.6667 26.9232 45.7026Z" fill="#5EA9A4"/>
<path d="M24.3504 45.5094C24.3487 45.5387 24.332 45.5692 24.3023 45.6031C24.3047 45.5746 24.3202 45.5427 24.3504 45.5094Z" fill="#5EA9A4"/>
<path d="M27.0314 45.5339C27.031 45.5049 27.0453 45.4739 27.072 45.4385C27.0716 45.4667 27.0588 45.4993 27.0314 45.5339Z" fill="#5EA9A4"/>
<path d="M24.5157 45.2864C24.5141 45.3157 24.4976 45.3466 24.4679 45.3809C24.4701 45.3522 24.4854 45.3201 24.5157 45.2864Z" fill="#5EA9A4"/>
<path d="M24.7339 45.0103C24.7314 45.0398 24.7143 45.0704 24.6835 45.1037C24.6863 45.0746 24.7028 45.043 24.7339 45.0103Z" fill="#5EA9A4"/>
<path d="M6.99433 47.9099C6.98451 47.9376 6.96056 47.9623 6.9229 47.9866C6.93286 47.9597 6.95653 47.9333 6.99433 47.9099Z" fill="#5EA9A4"/>
<path d="M30.6775 42.2415C30.689 42.2139 30.7147 42.1902 30.7546 42.1672C30.743 42.1938 30.7174 42.2197 30.6775 42.2415Z" fill="#5EA9A4"/>
<path d="M17.6916 48.9201C17.6644 48.9084 17.6423 48.8828 17.6207 48.8437C17.6464 48.8555 17.6715 48.8809 17.6916 48.9201Z" fill="#5EA9A4"/>
<path d="M17.5853 48.753C17.5575 48.7421 17.5338 48.717 17.5103 48.6779C17.5369 48.6888 17.5631 48.7138 17.5853 48.753Z" fill="#5EA9A4"/>
<path d="M30.4579 42.4151C30.4663 42.3862 30.4895 42.3594 30.5269 42.3318C30.5183 42.3598 30.4955 42.3885 30.4579 42.4151Z" fill="#5EA9A4"/>
<path d="M17.4717 48.5877C17.4442 48.5778 17.421 48.5541 17.3974 48.5171C17.4234 48.5271 17.4497 48.5505 17.4717 48.5877Z" fill="#5EA9A4"/>
<path d="M7.29432 48.511C7.3036 48.4833 7.32729 48.4582 7.36479 48.4324C7.3553 48.459 7.33202 48.4863 7.29432 48.511Z" fill="#5EA9A4"/>
<path d="M27.888 42.4159C27.8778 42.4445 27.853 42.4705 27.8136 42.4962C27.8238 42.4684 27.8486 42.4409 27.888 42.4159Z" fill="#5EA9A4"/>
<path d="M7.51604 48.3459C7.52683 48.3179 7.55221 48.2929 7.59195 48.2683C7.58108 48.2954 7.55586 48.3222 7.51604 48.3459Z" fill="#5EA9A4"/>
<path d="M30.2337 42.5671C30.2445 42.5402 30.2688 42.5187 30.3059 42.4971C30.2949 42.5222 30.271 42.5474 30.2337 42.5671Z" fill="#5EA9A4"/>
<path d="M17.2616 48.3074C17.2326 48.2987 17.2057 48.275 17.1781 48.2368C17.2062 48.2456 17.2349 48.269 17.2616 48.3074Z" fill="#5EA9A4"/>
<path d="M7.68179 48.2318C7.69352 48.2042 7.71943 48.1805 7.75949 48.1577C7.74774 48.1843 7.72185 48.21 7.68179 48.2318Z" fill="#5EA9A4"/>
<path d="M29.9592 42.7421C29.9704 42.7143 29.996 42.69 30.0359 42.6662C30.0246 42.6931 29.9991 42.7194 29.9592 42.7421Z" fill="#5EA9A4"/>
<path d="M30.8437 42.1328C30.855 42.1049 30.8808 42.0804 30.921 42.0566C30.9096 42.0835 30.8839 42.1098 30.8437 42.1328Z" fill="#5EA9A4"/>
<path d="M27.283 42.8158C27.2721 42.843 27.2475 42.8652 27.2097 42.8874C27.2208 42.8619 27.2451 42.8364 27.283 42.8158Z" fill="#5EA9A4"/>
<path d="M12.6414 47.7361C12.6678 47.7272 12.6987 47.7299 12.7386 47.7459C12.7137 47.7553 12.6797 47.7516 12.6414 47.7361Z" fill="#5EA9A4"/>
<path d="M7.21635 47.7483C7.20612 47.7759 7.18188 47.7993 7.14421 47.8229C7.15463 47.7968 7.17849 47.7705 7.21635 47.7483Z" fill="#5EA9A4"/>
<path d="M25.7614 47.754C25.7574 47.7264 25.7676 47.6957 25.7888 47.6591C25.7918 47.6857 25.7837 47.7183 25.7614 47.754Z" fill="#5EA9A4"/>
<path d="M12.4204 47.6807C12.4464 47.6715 12.4769 47.6739 12.5168 47.6891C12.4924 47.6987 12.4587 47.6954 12.4204 47.6807Z" fill="#5EA9A4"/>
<path d="M8.67642 47.7248C8.69554 47.7003 8.72826 47.6824 8.7754 47.67C8.75655 47.6941 8.72328 47.7128 8.67642 47.7248Z" fill="#5EA9A4"/>
<path d="M12.1954 47.6298C12.222 47.6198 12.254 47.6211 12.296 47.6358C12.2708 47.6466 12.2358 47.6439 12.1954 47.6298Z" fill="#5EA9A4"/>
<path d="M7.3816 47.6376C7.37042 47.6648 7.34523 47.6879 7.30637 47.7106C7.31766 47.6846 7.34262 47.659 7.3816 47.6376Z" fill="#5EA9A4"/>
<path d="M27.1169 42.9252C27.1052 42.9523 27.0796 42.9746 27.0406 42.9963C27.0524 42.9707 27.0777 42.9456 27.1169 42.9252Z" fill="#5EA9A4"/>
<path d="M11.9193 47.5751C11.9455 47.5644 11.9772 47.5649 12.0189 47.5784C11.9942 47.5898 11.9595 47.588 11.9193 47.5751Z" fill="#5EA9A4"/>
<path d="M29.6264 43.0183C29.6354 42.9908 29.6585 42.9669 29.6947 42.9432C29.6854 42.9696 29.6629 42.9957 29.6264 43.0183Z" fill="#5EA9A4"/>
<path d="M7.77003 10.7254C7.5897 10.4655 7.45208 10.2097 7.39127 9.91312C7.26186 9.28193 7.41748 8.72031 7.8191 8.23631C8.07581 7.92693 8.41996 7.72697 8.81628 7.62992C9.96723 7.34808 11.1702 8.16442 11.1942 9.48995C11.2086 10.2826 10.776 10.9663 10.0078 11.2909C9.31208 11.585 8.47468 11.428 7.93708 10.8991C7.88456 10.8474 7.83423 10.7935 7.77003 10.7254Z" fill="var(--fill-0, #044AAA)"/>
</g>
</svg>
