<svg preserveAspectRatio="none" width="100%" height="100%" overflow="visible" style="display: block;" viewBox="0 0 598.5 480.008" fill="none" xmlns="http://www.w3.org/2000/svg">
<g id="Group 13">
<path id="Ellipse 35" d="M0 228.008C0 367.184 112.824 480.008 252 480.008C391.176 480.008 504 367.184 504 228.008C504 88.8325 301.5 33.068 208 4.53808C114.5 -23.9919 0 88.8325 0 228.008Z" fill="var(--fill-0, #83C29E)"/>
<path id="Subtract" d="M534.168 22.3252C498.607 -17.3293 436.272 3.69607 387.53 25.1731C359.739 37.4184 326.806 44.5057 291.5 44.5057C274.946 44.5057 258.915 42.9473 243.69 40.0297C197.686 31.2136 143.574 33.8976 122.18 75.567C104.486 110.03 94.5 149.103 94.5 190.508C94.5002 329.683 207.324 442.508 346.5 442.508C485.676 442.508 598.5 329.683 598.5 190.508C598.5 125.877 574.169 66.9302 534.168 22.3252Z" fill="var(--fill-0, #C5E8D4)"/>
</g>
</svg>
